<?xml version="1.0" encoding="UTF-8"?>
<svg version="1.1" xmlns="http://www.w3.org/2000/svg" width="350" height="441">
<path d="M0 0 C2.46758327 1.91371396 4.78548836 3.90876826 7.0859375 6.01953125 C7.84132812 6.68339844 8.59671875 7.34726562 9.375 8.03125 C25.77424298 23.27521985 32.80799829 43.81718423 34.03515625 65.640625 C34.0859375 69.01953125 34.0859375 69.01953125 33.0859375 71.01953125 C34.3234375 71.39078125 35.5609375 71.76203125 36.8359375 72.14453125 C48.94369903 76.2623035 58.46072908 82.80593471 68.0859375 91.01953125 C68.77558594 91.60476562 69.46523438 92.19 70.17578125 92.79296875 C85.71817333 107.20168046 96.82926253 130.14804403 98.30883789 151.18945312 C99.2254036 178.50825817 94.16948505 202.62438755 76.0859375 224.01953125 C75.41820312 224.83292969 74.75046875 225.64632812 74.0625 226.484375 C58.62744316 244.56623762 35.05503446 256.33021933 11.34033203 258.24072266 C-11.54758019 259.20377715 -30.13353136 254.48166753 -49.78515625 242.7890625 C-53.68308142 240.46935204 -53.68308142 240.46935204 -57.9140625 239.01953125 C-60.5190702 240.36926071 -60.5190702 240.36926071 -62.9765625 242.58203125 C-73.49963285 250.80140241 -84.67338063 253.95294747 -97.9140625 253.01953125 C-109.90991565 251.17160609 -119.93511681 246.22391228 -127.9140625 237.01953125 C-128.6153125 237.4784375 -129.3165625 237.93734375 -130.0390625 238.41015625 C-146.39923866 248.99092235 -162.40761477 254.49871495 -182.08374023 250.4765625 C-199.5804174 246.49820957 -213.2461581 236.377365 -223.1015625 221.45703125 C-231.70550362 206.08779944 -233.72031188 188.44642761 -229.2890625 171.39453125 C-225.9608054 161.53821899 -221.142461 153.48317349 -213.9140625 146.01953125 C-214.43806641 144.89804687 -214.43806641 144.89804687 -214.97265625 143.75390625 C-215.42769531 142.7690625 -215.88273437 141.78421875 -216.3515625 140.76953125 C-216.80402344 139.795 -217.25648438 138.82046875 -217.72265625 137.81640625 C-221.40000243 129.18368537 -221.28478425 117.88239269 -218.2890625 109.01953125 C-213.71219952 98.32951561 -205.74071427 90.19242677 -194.9921875 85.74609375 C-185.43754336 82.40556027 -173.67362886 82.71616952 -164.375 86.6953125 C-153.15152292 92.73461207 -146.18823329 101.83322212 -142.31640625 113.87890625 C-141.77112043 116.78003859 -141.78229611 119.5693868 -141.7890625 122.51953125 C-141.78519531 124.205625 -141.78519531 124.205625 -141.78125 125.92578125 C-141.89139883 128.49160115 -142.16135588 130.58219552 -142.9140625 133.01953125 C-142.18832031 133.28507813 -141.46257812 133.550625 -140.71484375 133.82421875 C-128.94632175 138.84676789 -119.49423088 148.64782448 -113.9140625 160.01953125 C-113.9140625 160.67953125 -113.9140625 161.33953125 -113.9140625 162.01953125 C-112.62822266 161.58640625 -112.62822266 161.58640625 -111.31640625 161.14453125 C-110.17300781 160.77328125 -109.02960938 160.40203125 -107.8515625 160.01953125 C-106.72621094 159.64828125 -105.60085937 159.27703125 -104.44140625 158.89453125 C-100.79540566 157.990097 -97.65460144 157.86705068 -93.9140625 158.01953125 C-93.78128906 156.94574219 -93.64851562 155.87195313 -93.51171875 154.765625 C-93.33336686 153.32942292 -93.15497955 151.89322524 -92.9765625 150.45703125 C-92.84604492 149.40032227 -92.84604492 149.40032227 -92.71289062 148.32226562 C-92.16021759 143.88041198 -91.56011654 139.44878461 -90.9140625 135.01953125 C-91.62691406 134.52324219 -92.33976563 134.02695313 -93.07421875 133.515625 C-111.19475551 120.66296972 -123.72086089 102.6557396 -127.60058594 80.39941406 C-130.68163627 57.00838705 -125.3794411 36.23685308 -111.9140625 17.01953125 C-85.15840465 -17.57208034 -36.0793748 -24.52043301 0 0 Z " fill="#BECE4A" transform="translate(240.9140625,13.98046875)"/>
<path d="M0 0 C2.46758327 1.91371396 4.78548836 3.90876826 7.0859375 6.01953125 C7.84132812 6.68339844 8.59671875 7.34726562 9.375 8.03125 C25.12143417 22.66839929 33.30029562 43.48218206 34.109375 64.70703125 C34.36618453 85.67029847 25.33877697 107.37225005 10.86328125 122.234375 C9.94675781 123.15347656 9.03023437 124.07257813 8.0859375 125.01953125 C7.36535156 125.76332031 6.64476562 126.50710937 5.90234375 127.2734375 C-9.09670582 141.76212243 -30.45189645 147.34868859 -50.78344727 147.32983398 C-70.09871901 146.9726137 -90.11070349 138.5243151 -103.9140625 125.01953125 C-105.09162109 123.88257813 -105.09162109 123.88257813 -106.29296875 122.72265625 C-121.80975421 106.65451293 -128.37384361 85.79012137 -128.27539062 63.84741211 C-127.87997295 42.49656202 -118.74083618 23.58943873 -104.3515625 7.95703125 C-75.93126072 -19.07556049 -32.23942569 -21.91070888 0 0 Z " fill="#949699" transform="translate(240.9140625,13.98046875)"/>
<path d="M0 0 C8.8138897 6.39812259 15.49724977 15.59379461 17.5390625 26.45703125 C17.63200756 28.62210441 17.66903282 30.78996968 17.6640625 32.95703125 C17.66792969 34.643125 17.66792969 34.643125 17.671875 36.36328125 C17.56172617 38.92910115 17.29176912 41.01969552 16.5390625 43.45703125 C17.26480469 43.72257812 17.99054688 43.988125 18.73828125 44.26171875 C30.50680325 49.28426789 39.95889412 59.08532448 45.5390625 70.45703125 C45.5390625 71.11703125 45.5390625 71.77703125 45.5390625 72.45703125 C46.3846875 72.17988281 47.2303125 71.90273437 48.1015625 71.6171875 C49.2359375 71.25496094 50.3703125 70.89273438 51.5390625 70.51953125 C52.6528125 70.15988281 53.7665625 69.80023438 54.9140625 69.4296875 C58.82788099 68.37953577 62.51423491 67.87628412 66.5390625 67.45703125 C66.58393799 68.01986816 66.62881348 68.58270508 66.67504883 69.16259766 C68.3376515 90.97689881 68.3376515 90.97689881 75.5390625 111.45703125 C75.94769531 112.36710937 76.35632813 113.2771875 76.77734375 114.21484375 C82.88960228 127.40354808 92.10119134 137.55494435 102.5390625 147.45703125 C92.78923755 157.51313342 81.4861125 163.22524922 67.4140625 163.70703125 C55.03369813 163.53927564 43.22444748 159.38364807 34.3515625 150.58203125 C33.4003603 149.55286165 32.45701398 148.51596504 31.5390625 147.45703125 C30.8378125 147.9159375 30.1365625 148.37484375 29.4140625 148.84765625 C13.05388634 159.42842235 -2.95448977 164.93621495 -22.63061523 160.9140625 C-40.1272924 156.93570957 -53.7930331 146.814865 -63.6484375 131.89453125 C-72.25237862 116.52529944 -74.26718688 98.88392761 -69.8359375 81.83203125 C-66.5076804 71.97571899 -61.689336 63.92067349 -54.4609375 56.45703125 C-54.81027344 55.709375 -55.15960938 54.96171875 -55.51953125 54.19140625 C-55.97457031 53.2065625 -56.42960937 52.22171875 -56.8984375 51.20703125 C-57.35089844 50.2325 -57.80335937 49.25796875 -58.26953125 48.25390625 C-61.94687743 39.62118537 -61.83165925 28.31989269 -58.8359375 19.45703125 C-54.25907452 8.76701561 -46.28758927 0.62992677 -35.5390625 -3.81640625 C-23.88035297 -7.89257161 -10.41492641 -6.52999354 0 0 Z " fill="#90769F" transform="translate(81.4609375,103.54296875)"/>
<path d="M0 0 C-1.77817633 21.33811592 -9.86166566 38.81908244 -25 54 C-25.72058594 54.74378906 -26.44117188 55.48757812 -27.18359375 56.25390625 C-42.8543767 71.39146785 -65.09996825 76.63602554 -86.26953125 76.2734375 C-99.23807705 75.74066421 -110.59514518 70.83351769 -122 65 C-119.85338664 48.66599952 -109.23386246 34.43577829 -98 23 C-97.19046875 22.16597656 -96.3809375 21.33195312 -95.546875 20.47265625 C-72.92195542 -1.50874017 -29.78184966 -14.89092483 0 0 Z " fill="#898D77" transform="translate(274,85)"/>
<path d="M0 0 C8.88104505 6.44687157 15.37740169 15.56791744 17.5390625 26.45703125 C18.6504288 37.74533748 16.25084263 47.5809658 9.6640625 56.89453125 C3.60856352 64.19179078 -3.91458225 70.5044308 -13.63867188 71.73193359 C-24.57260673 72.53642963 -35.14897046 72.25704082 -44.16796875 65.3984375 C-46.72151769 63.18137378 -49.10486299 60.88139778 -51.4609375 58.45703125 C-51.986875 57.95171875 -52.5128125 57.44640625 -53.0546875 56.92578125 C-59.69421604 49.96237327 -61.05594678 40.61215455 -60.93334961 31.37939453 C-60.41090616 19.44149055 -55.18412375 10.71666129 -46.6484375 2.70703125 C-33.71184819 -8.16864268 -14.14530373 -8.86888091 0 0 Z " fill="#B2E1EB" transform="translate(81.4609375,103.54296875)"/>
<path d="M0 0 C0.06731323 0.84425537 0.06731323 0.84425537 0.13598633 1.70556641 C1.798589 23.51986756 1.798589 23.51986756 9 44 C9.40863281 44.91007812 9.81726563 45.82015625 10.23828125 46.7578125 C16.35053978 59.94651683 25.56212884 70.0979131 36 80 C26.25017505 90.05610217 14.94705 95.76821797 0.875 96.25 C-11.50536437 96.08224439 -23.31461502 91.92661682 -32.1875 83.125 C-33.1387022 82.0958304 -34.08204852 81.05893379 -35 80 C-33.53777998 76.71928301 -31.66123248 74.32904172 -29.3125 71.625 C-20.09724509 60.29476855 -15.60682901 47.95154086 -15.625 33.375 C-15.62371094 32.31063721 -15.62242187 31.24627441 -15.62109375 30.1496582 C-15.71757169 22.96369635 -16.5101583 17.02073853 -19.125 10.29296875 C-20 8 -20 8 -20 5 C-5.8372093 0 -5.8372093 0 0 0 Z " fill="#B1B2B5" transform="translate(148,171)"/>
<path d="M0 0 C3.465 1.485 3.465 1.485 7 3 C7.33 18.18 7.66 33.36 8 49 C12.25633696 50.06408424 16.15386471 50.14713651 20.5 50.125 C21.63888672 50.13080078 21.63888672 50.13080078 22.80078125 50.13671875 C27.98656663 50.13769132 27.98656663 50.13769132 33 49 C33.495 48.01 33.495 48.01 34 47 C33.19175781 46.96261719 32.38351563 46.92523438 31.55078125 46.88671875 C29.94783203 46.78810547 29.94783203 46.78810547 28.3125 46.6875 C26.72888672 46.60048828 26.72888672 46.60048828 25.11328125 46.51171875 C21.70936595 45.95222953 19.7630657 45.03721657 17 43 C14.53062791 39.29594186 14.7552431 37.41337325 14.76953125 32.99609375 C14.76998947 32.31700455 14.77044769 31.63791534 14.7709198 30.93824768 C14.7739367 29.50511931 14.78180622 28.07199406 14.79418945 26.63891602 C14.81246172 24.44210231 14.81469894 22.24570995 14.81445312 20.04882812 C14.85240652 9.29518697 14.85240652 9.29518697 16 7 C16.53625 7.10957031 17.0725 7.21914063 17.625 7.33203125 C25.73455541 8.97261565 33.86643638 10.48357288 42 12 C42 21.57 42 31.14 42 41 C45.403125 40.896875 48.80625 40.79375 52.3125 40.6875 C53.38153564 40.66260498 54.45057129 40.63770996 55.55200195 40.61206055 C56.81983521 40.56239136 56.81983521 40.56239136 58.11328125 40.51171875 C59.40939331 40.47244263 59.40939331 40.47244263 60.73168945 40.43237305 C63.40213987 39.92334628 64.31011183 39.07670092 66 37 C65.20335937 37.03480469 64.40671875 37.06960938 63.5859375 37.10546875 C52.44227959 37.39016074 52.44227959 37.39016074 48 34 C45.65092989 29.68800829 45.76482654 25.46639553 45.875 20.6875 C45.91625 18.150625 45.9575 15.61375 46 13 C54.91 12.67 63.82 12.34 73 12 C73.09198433 16.05753083 73.17156595 20.11239665 73.21972656 24.17041016 C73.23980642 25.5497668 73.26707666 26.92903869 73.30175781 28.30810547 C73.35042817 30.29356979 73.37086418 32.27966254 73.390625 34.265625 C73.4220459 36.05661621 73.4220459 36.05661621 73.45410156 37.88378906 C72.91085766 41.61172735 71.92394393 42.71494666 69 45 C66.33821779 46.3308911 64.31260604 46.11268993 61.3359375 46.09765625 C60.21445313 46.09443359 59.09296875 46.09121094 57.9375 46.08789062 C56.761875 46.07951172 55.58625 46.07113281 54.375 46.0625 C53.19164062 46.05798828 52.00828125 46.05347656 50.7890625 46.04882812 C47.85932493 46.03701467 44.92968728 46.02054258 42 46 C41.87367188 46.95261719 41.74734375 47.90523438 41.6171875 48.88671875 C41 52 41 52 39.125 53.8125 C33.50470129 56.95325516 27.44966799 56.2228175 21.1875 56.25 C20.01123047 56.270625 18.83496094 56.29125 17.62304688 56.3125 C6.80552575 56.36142039 6.80552575 56.36142039 2 53 C0 51 0 51 -0.24050903 48.82333374 C-0.23606781 47.92176544 -0.23162659 47.02019714 -0.22705078 46.09130859 C-0.22689972 45.07040131 -0.22674866 44.04949402 -0.22659302 42.99765015 C-0.21627045 41.89240997 -0.20594788 40.7871698 -0.1953125 39.6484375 C-0.1924826 38.5192691 -0.18965271 37.39010071 -0.18673706 36.22671509 C-0.17551462 32.60937029 -0.15040622 28.99227034 -0.125 25.375 C-0.11497287 22.9270869 -0.10584656 20.47916993 -0.09765625 18.03125 C-0.07556857 12.02074936 -0.04207074 6.01039217 0 0 Z M22 15 C21.91321697 18.95819611 21.85968267 22.91614934 21.8125 26.875 C21.78736328 28.00292969 21.76222656 29.13085938 21.73632812 30.29296875 C21.72666016 31.36933594 21.71699219 32.44570313 21.70703125 33.5546875 C21.6913208 34.54968262 21.67561035 35.54467773 21.65942383 36.56982422 C21.82800903 37.77276123 21.82800903 37.77276123 22 39 C25.78582528 41.92450033 25.78582528 41.92450033 35 41 C35 33.08 35 25.16 35 17 C26.88579937 14.85537969 26.88579937 14.85537969 22 15 Z M54 18 C54 21.96 54 25.92 54 30 C57.61136212 31.80568106 58.544531 32.24851563 62.25 32.125 C63.4875 32.08375 64.725 32.0425 66 32 C66 27.38 66 22.76 66 18 C62.04 18 58.08 18 54 18 Z " fill="#949699" transform="translate(111,346)"/>
<path d="M0 0 C-2.88430527 10.9299989 -8.89968949 18.27061919 -18.22265625 24.48046875 C-27.69436571 29.70674429 -38.90705245 29.26987989 -49.31640625 27.40625 C-57.48891841 24.89520786 -64.28985259 19.06522111 -69 12 C-50.46909706 -4.15304371 -23.07113985 -12.28324576 0 0 Z " fill="#92B6CC" transform="translate(97,147)"/>
<path d="M0 0 C1.96484375 0.91015625 1.96484375 0.91015625 3.23046875 3.0078125 C7.98172111 17.31813211 8.54550135 34.9583782 2.515625 48.9375 C-1.7496779 57.11355922 -6.70866069 64.19907129 -13.03515625 70.91015625 C-17.20221016 69.42192271 -18.29308871 67.11808251 -20.16015625 63.22265625 C-20.65773438 62.20816406 -21.1553125 61.19367188 -21.66796875 60.1484375 C-26.09018695 49.67409783 -27.14988944 36.81771139 -23.41015625 25.91015625 C-22.67113655 24.21948663 -21.87908296 22.5509797 -21.03515625 20.91015625 C-20.58785156 20.03875 -20.14054687 19.16734375 -19.6796875 18.26953125 C-16.21224148 12.05973517 -8.27279063 -0.36520957 0 0 Z " fill="#836C92" transform="translate(127.03515625,178.08984375)"/>
<path d="M0 0 C3.99177674 2.09737422 6.35694881 4.13222495 8.09375 8.28125 C9.55750384 13.92715768 8.99593651 17.22582834 6.09375 22.28125 C2.23000511 26.5129706 -1.05244989 28.14394089 -6.66015625 28.484375 C-11.37218832 28.0582434 -14.61896974 25.69725829 -17.78125 22.21875 C-20.16836542 18.10760677 -20.54859007 13.92721652 -19.90625 9.28125 C-15.84294773 1.58999927 -8.96182648 -3.37904933 0 0 Z " fill="#6D6E71" transform="translate(118.90625,273.71875)"/>
<path d="M0 0 C0.07433795 5.87155408 0.12869117 11.74283219 0.16479492 17.61474609 C0.17985098 19.61088841 0.20030027 21.60699781 0.22631836 23.60302734 C0.26284161 26.47762185 0.27975837 29.35177772 0.29296875 32.2265625 C0.30845261 33.11429352 0.32393646 34.00202454 0.33988953 34.91665649 C0.34126728 40.02666331 -0.10649873 43.59367055 -3 48 C-6.71097076 50.21267422 -10.05836205 50.21849754 -14.3125 50.125 C-15.38113281 50.10695313 -16.44976562 50.08890625 -17.55078125 50.0703125 C-18.76314453 50.03550781 -18.76314453 50.03550781 -20 50 C-20 48.02 -20 46.04 -20 44 C-19.21753906 43.95101562 -18.43507812 43.90203125 -17.62890625 43.8515625 C-16.61699219 43.77679688 -15.60507813 43.70203125 -14.5625 43.625 C-13.04849609 43.52058594 -13.04849609 43.52058594 -11.50390625 43.4140625 C-10.67761719 43.27742188 -9.85132813 43.14078125 -9 43 C-7.33650681 39.67301363 -7.75621943 35.93570615 -7.68359375 32.2734375 C-7.66281265 31.41062164 -7.64203156 30.54780579 -7.62062073 29.65884399 C-7.55513966 26.89764507 -7.49624702 24.13634962 -7.4375 21.375 C-7.3943134 19.50519828 -7.35069907 17.63540638 -7.30664062 15.765625 C-7.19945976 11.17718272 -7.09818825 6.58864317 -7 2 C-4.35261084 0.5393715 -3.10551666 0 0 0 Z " fill="#949599" transform="translate(208,352)"/>
<path d="M0 0 C42.57 0 85.14 0 129 0 C129 0.99 129 1.98 129 3 C86.43 3 43.86 3 0 3 C0 2.01 0 1.02 0 0 Z " fill="#C5D82C" transform="translate(101,438)"/>
<path d="M0 0 C0 18.15 0 36.3 0 55 C-2.31 55 -4.62 55 -7 55 C-7 37.51 -7 20.02 -7 2 C-2 0 -2 0 0 0 Z " fill="#949699" transform="translate(220,347)"/>
<path d="M0 0 C3.38906241 2.45414864 4.62014879 5.18243667 5.3125 9.25 C4.60839925 13.56261712 2.85157145 15.20106971 -0.1875 18.3125 C-3.09045805 19.76397903 -4.96011779 19.68489025 -8.1875 19.3125 C-11.11687654 17.49939858 -13.62397949 15.43954101 -15.1875 12.3125 C-15.59954834 7.67695612 -15.06204146 5.00833902 -12.1875 1.3125 C-8.44943617 -1.3943738 -4.32147895 -1.3581791 0 0 Z " fill="#6E6F72" transform="translate(137.1875,310.6875)"/>
<path d="M0 0 C0 11.88 0 23.76 0 36 C-2.31 36 -4.62 36 -7 36 C-7 24.45 -7 12.9 -7 1 C-5 0 -5 0 0 0 Z " fill="#949699" transform="translate(195,356)"/>
<path d="M0 0 C1.918125 -0.0825 3.83625 -0.165 5.8125 -0.25 C7.43091797 -0.31960938 7.43091797 -0.31960938 9.08203125 -0.390625 C12 0 12 0 13.8984375 1.859375 C15 4 15 4 14.8125 6.5 C14 9 14 9 12.75 11 C12.5025 11.66 12.255 12.32 12 13 C13.31865712 15.64225405 13.31865712 15.64225405 15 18 C15 18.66 15 19.32 15 20 C13.68 20 12.36 20 11 20 C10.74605469 19.43410156 10.49210938 18.86820312 10.23046875 18.28515625 C9.88628906 17.55167969 9.54210937 16.81820313 9.1875 16.0625 C8.85105469 15.33160156 8.51460937 14.60070312 8.16796875 13.84765625 C7.06399866 11.66970511 7.06399866 11.66970511 4 11 C4 13.97 4 16.94 4 20 C2.68 20 1.36 20 0 20 C0 13.4 0 6.8 0 0 Z M4 3 C4 4.65 4 6.3 4 8 C6.31 8 8.62 8 11 8 C11 6.35 11 4.7 11 3 C8.69 3 6.38 3 4 3 Z " fill="#939599" transform="translate(147,409)"/>
<path d="M0 0 C1.32 0 2.64 0 4 0 C4 2.64 4 5.28 4 8 C7.465 7.505 7.465 7.505 11 7 C11 4.69 11 2.38 11 0 C12.32 0 13.64 0 15 0 C15 6.6 15 13.2 15 20 C13.68 19.67 12.36 19.34 11 19 C11 16.69 11 14.38 11 12 C8.69 11.67 6.38 11.34 4 11 C4 13.97 4 16.94 4 20 C2.68 20 1.36 20 0 20 C0 13.4 0 6.8 0 0 Z " fill="#939498" transform="translate(111,409)"/>
<path d="M0 0 C4.73751475 1.18437869 5.15741989 2.12377253 7.75 6.0625 C8.36359375 6.98160156 8.9771875 7.90070313 9.609375 8.84765625 C10.06828125 9.55792969 10.5271875 10.26820313 11 11 C11.33 7.37 11.66 3.74 12 0 C12.99 0 13.98 0 15 0 C15 6.6 15 13.2 15 20 C11 19 11 19 9.078125 16.49609375 C8.47484375 15.48675781 7.8715625 14.47742188 7.25 13.4375 C6.32960937 11.91962891 6.32960937 11.91962891 5.390625 10.37109375 C4.93171875 9.58863281 4.4728125 8.80617188 4 8 C3.67 11.96 3.34 15.92 3 20 C2.01 20 1.02 20 0 20 C0 13.4 0 6.8 0 0 Z " fill="#939598" transform="translate(205,409)"/>
<path d="M0 0 C3.6875 0.3125 3.6875 0.3125 6.125 1.9375 C8.15911336 5.02935231 8.29355429 6.67617425 7.6875 10.3125 C6.0625 12.6875 6.0625 12.6875 3.6875 14.3125 C0.30235573 14.80616687 -1.57703845 14.69016945 -4.625 13.125 C-6.79244914 10.79699908 -7.23682671 9.4907781 -7.3125 6.3125 C-4.36200495 0.4115099 -4.36200495 0.4115099 0 0 Z " fill="#949699" transform="translate(168.3125,333.6875)"/>
<path d="M0 0 C1.97283431 3.94566861 1.44003932 8.69877055 1 13 C-0.625 16.1875 -0.625 16.1875 -3 18 C-6.47787674 18.57964612 -8.24237189 18.43000514 -11.3125 16.6875 C-14.04146938 13.95853062 -14.15646379 11.24339485 -14.1875 7.5625 C-14.20167969 6.80066406 -14.21585938 6.03882813 -14.23046875 5.25390625 C-13.97142319 2.72052853 -13.34264667 1.15382903 -12 -1 C-7.41978681 -4.00985438 -4.57364413 -2.46273146 0 0 Z M-10 2 C-10.09873816 3.99799572 -10.12971799 5.99957158 -10.125 8 C-10.12757813 9.093125 -10.13015625 10.18625 -10.1328125 11.3125 C-10.30547755 13.91830354 -10.30547755 13.91830354 -9 15 C-7.33382885 15.04063832 -5.66611905 15.042721 -4 15 C-1.66953299 11.3586453 -1.69108907 8.2475253 -2 4 C-2.66 3.01 -3.32 2.02 -4 1 C-7.28912144 0.5085887 -7.28912144 0.5085887 -10 2 Z " fill="#939599" transform="translate(143,411)"/>
<path d="M0 0 C2.76315716 2.76315716 2.33171199 4.52236723 2.375 8.375 C2.40335938 9.51710938 2.43171875 10.65921875 2.4609375 11.8359375 C1.91178389 15.60555127 1.01524194 16.74673256 -2 19 C-5 19.5 -5 19.5 -8 19 C-10.98448329 16.76028831 -11.9050608 15.59878975 -12.49609375 11.87109375 C-12.47675781 10.73800781 -12.45742187 9.60492188 -12.4375 8.4375 C-12.43556641 6.73400391 -12.43556641 6.73400391 -12.43359375 4.99609375 C-12 2 -12 2 -10.66015625 0.16015625 C-6.65082174 -2.64166104 -4.28568594 -1.73251134 0 0 Z M-8 2 C-9.23887548 4.47775095 -9.16741669 6.23653707 -9.1875 9 C-9.20167969 9.886875 -9.21585938 10.77375 -9.23046875 11.6875 C-9.22713126 14.19519984 -9.22713126 14.19519984 -7 16 C-3.69316534 15.71016731 -3.69316534 15.71016731 -1 14 C-0.90145345 12.35659133 -0.87027589 10.7088539 -0.875 9.0625 C-0.87242187 8.16660156 -0.86984375 7.27070313 -0.8671875 6.34765625 C-0.84578587 3.97844445 -0.84578587 3.97844445 -2 2 C-3.98 2 -5.96 2 -8 2 Z " fill="#939598" transform="translate(199,410)"/>
<path d="M0 0 C3.96 0 7.92 0 12 0 C11.04840558 4.75797209 10.04249682 6.88132298 7.4375 10.8125 C6.47650391 12.27623047 6.47650391 12.27623047 5.49609375 13.76953125 C5.00238281 14.50558594 4.50867188 15.24164063 4 16 C6.64 16.33 9.28 16.66 12 17 C12 17.99 12 18.98 12 20 C7.71 20 3.42 20 -1 20 C-0.04840558 15.24202791 0.95750318 13.11867702 3.5625 9.1875 C4.20316406 8.21167969 4.84382812 7.23585938 5.50390625 6.23046875 C6.24447266 5.12638672 6.24447266 5.12638672 7 4 C4.69 3.67 2.38 3.34 0 3 C0 2.01 0 1.02 0 0 Z " fill="#939599" transform="translate(172,409)"/>
<path d="M0 0 C0.99 0 1.98 0 3 0 C3 6.6 3 13.2 3 20 C2.01 20 1.02 20 0 20 C0 13.4 0 6.8 0 0 Z " fill="#939598" transform="translate(165,409)"/>
</svg>
