<?xml version="1.0" standalone="yes"?>
<svg xmlns="http://www.w3.org/2000/svg" width="642" height="145">
<path style="fill:#e8e6df; stroke:none;" d="M0 0L0 145L642 145L642 0L0 0z"/>
<path style="fill:#967ab2; stroke:none;" d="M571 8C572.769 8.77892 574.036 8.91241 576 9C574.231 8.22102 572.964 8.0876 571 8z"/>
<path style="fill:#8f70ad; stroke:none;" d="M569 9L570 10L569 9z"/>
<path style="fill:#5c2d91; stroke:none;" d="M570.004 9.74228C556.828 14.8242 565.001 34.8462 577.996 29.848C591.25 24.7503 583.342 4.59766 570.004 9.74228z"/>
<path style="fill:#8866a9; stroke:none;" d="M578 9L579 10L578 9z"/>
<path style="fill:#a48db9; stroke:none;" d="M567 10L568 11L567 10z"/>
<path style="fill:#9579b1; stroke:none;" d="M580 10L581 11L580 10z"/>
<path style="fill:#9375af; stroke:none;" d="M566 11L567 12L566 11z"/>
<path style="fill:#987cb2; stroke:none;" d="M565 12L566 13L565 12z"/>
<path style="fill:#b4a0c2; stroke:none;" d="M564 13L565 14L564 13z"/>
<path style="fill:#9c82b4; stroke:none;" d="M583 13L584 14L583 13z"/>
<path style="fill:#ae99be; stroke:none;" d="M563 15L564 16L563 15z"/>
<path style="fill:#9477b0; stroke:none;" d="M584 15L585 16L584 15z"/>
<path style="fill:#b7a6c4; stroke:none;" d="M585 17L585 22C585.83 19.9696 585.83 19.0304 585 17z"/>
<path style="fill:#cfc5d1; stroke:none;" d="M562 18L562 21C562.696 19.4463 562.696 19.5537 562 18z"/>
<path style="fill:#c5b7cb; stroke:none;" d="M519 21C525.208 19.5221 531.654 20 538 20C533.702 18.1966 522.221 17.3137 519 21M610 19C615.469 21.295 623.099 20 629 20C623.531 17.705 615.901 19 610 19z"/>
<path style="fill:#5c2d91; stroke:none;" d="M520 20C530.404 34.7692 546.224 47.2243 559 60C562.338 63.3383 568.875 72.7932 574 72.7932C579.125 72.7932 585.662 63.3384 589 60C601.776 47.2243 617.596 34.7692 628 20C622.549 20 615.16 18.7011 610 20.6034C603.829 22.8787 598.547 30.4529 594 35C589.338 39.6625 584.751 44.4184 580 48.9907C578.417 50.514 576.422 52.9444 574 52.9444C571.203 52.9444 568.792 49.7659 567 47.9985C562.637 43.6958 558.333 39.3327 554 35C549.453 30.4529 544.171 22.8787 538 20.6034C532.84 18.7011 525.45 20 520 20z"/>
<path style="fill:#8968aa; stroke:none;" d="M628 20L629 21L628 20z"/>
<path style="fill:#b6a4c3; stroke:none;" d="M520 21L521 22L520 21z"/>
<path style="fill:#8968aa; stroke:none;" d="M627 21L628 22L627 21z"/>
<path style="fill:#b6a4c3; stroke:none;" d="M521 22L522 23L521 22z"/>
<path style="fill:#8968aa; stroke:none;" d="M626 22L627 23L626 22z"/>
<path style="fill:#b6a4c3; stroke:none;" d="M522 23L523 24L522 23z"/>
<path style="fill:#9d82b5; stroke:none;" d="M563 23L564 24L563 23z"/>
<path style="fill:#8968aa; stroke:none;" d="M625 23L626 24L625 23z"/>
<path style="fill:#b6a4c3; stroke:none;" d="M523 24L524 25L523 24z"/>
<path style="fill:#b9a7c5; stroke:none;" d="M584 24L585 25L584 24z"/>
<path style="fill:#8968aa; stroke:none;" d="M624 24L625 25L624 24z"/>
<path style="fill:#b6a4c3; stroke:none;" d="M524 25L525 26L524 25z"/>
<path style="fill:#997db3; stroke:none;" d="M564 25L565 26L564 25z"/>
<path style="fill:#8968aa; stroke:none;" d="M623 25L624 26L623 25z"/>
<path style="fill:#b6a4c3; stroke:none;" d="M525 26L526 27L525 26z"/>
<path style="fill:#8968aa; stroke:none;" d="M622 26L623 27L622 26z"/>
<path style="fill:#b29fc1; stroke:none;" d="M526 27L527 28L526 27z"/>
<path style="fill:#8968aa; stroke:none;" d="M621 27L622 28L621 27z"/>
<path style="fill:#b29fc1; stroke:none;" d="M527 28L528 29L527 28z"/>
<path style="fill:#8968aa; stroke:none;" d="M620 28L621 29L620 28z"/>
<path style="fill:#b29fc1; stroke:none;" d="M528 29L529 30L528 29z"/>
<path style="fill:#a38bb9; stroke:none;" d="M568 29L569 30L568 29z"/>
<path style="fill:#987db3; stroke:none;" d="M579 29L580 30L579 29z"/>
<path style="fill:#8968aa; stroke:none;" d="M619 29L620 30L619 29z"/>
<path style="fill:#b29fc1; stroke:none;" d="M529 30L530 31L529 30z"/>
<path style="fill:#8a6bab; stroke:none;" d="M570.667 30.3333C570.222 30.7778 571.278 30.7222 571.333 30.6667C571.778 30.2222 570.722 30.2777 570.667 30.3333z"/>
<path style="fill:#ad98be; stroke:none;" d="M576.667 30.3333C576.222 30.7777 577.278 30.7222 577.333 30.6667C577.778 30.2222 576.722 30.2777 576.667 30.3333z"/>
<path style="fill:#8c6cac; stroke:none;" d="M618 30L619 31L618 30z"/>
<path style="fill:#b29fc1; stroke:none;" d="M530 31L531 32L530 31z"/>
<path style="fill:#8c6cac; stroke:none;" d="M617 31L618 32L617 31z"/>
<path style="fill:#b29fc1; stroke:none;" d="M531 32L532 33L531 32z"/>
<path style="fill:#8c6cac; stroke:none;" d="M616 32L617 33L616 32z"/>
<path style="fill:#b29fc1; stroke:none;" d="M532 33L533 34L532 33z"/>
<path style="fill:#8c6cac; stroke:none;" d="M615 33L616 34L615 33z"/>
<path style="fill:#b29fc1; stroke:none;" d="M533 34L534 35L533 34z"/>
<path style="fill:#8c6cac; stroke:none;" d="M614 34L615 35L614 34z"/>
<path style="fill:#b29fc1; stroke:none;" d="M534 35L535 36L534 35z"/>
<path style="fill:#8c6cac; stroke:none;" d="M613 35L614 36L613 35z"/>
<path style="fill:#b29fc1; stroke:none;" d="M535 36L536 37L535 36z"/>
<path style="fill:#8c6cac; stroke:none;" d="M612 36L613 37L612 36z"/>
<path style="fill:#b29fc1; stroke:none;" d="M536 37L537 38L536 37z"/>
<path style="fill:#8c6cac; stroke:none;" d="M611 37L612 38L611 37z"/>
<path style="fill:#b29fc1; stroke:none;" d="M537 38L538 39L537 38z"/>
<path style="fill:#8c6cac; stroke:none;" d="M610 38L611 39L610 38z"/>
<path style="fill:#b29fc1; stroke:none;" d="M538 39L539 40L538 39z"/>
<path style="fill:#8c6cac; stroke:none;" d="M609 39L610 40L609 39z"/>
<path style="fill:#b29fc1; stroke:none;" d="M539 40L540 41L539 40z"/>
<path style="fill:#8c6cac; stroke:none;" d="M608 40L609 41L608 40z"/>
<path style="fill:#b29fc1; stroke:none;" d="M540 41L541 42L540 41z"/>
<path style="fill:#8c6cac; stroke:none;" d="M607 41L608 42L607 41z"/>
<path style="fill:#b29fc1; stroke:none;" d="M541 42L542 43L541 42z"/>
<path style="fill:#8c6cac; stroke:none;" d="M606 42L607 43L606 42z"/>
<path style="fill:#b29fc1; stroke:none;" d="M542 43L543 44L542 43z"/>
<path style="fill:#8c6cac; stroke:none;" d="M605 43L606 44L605 43z"/>
<path style="fill:#74736f; stroke:none;" d="M219 44C220.248 44.6848 220.548 44.7488 222 45C220.752 44.3152 220.452 44.2512 219 44z"/>
<path style="fill:#b29fc1; stroke:none;" d="M543 44L544 45L543 44z"/>
<path style="fill:#8c6cac; stroke:none;" d="M604 44L605 45L604 44z"/>
<path style="fill:#4c4c49; stroke:none;" d="M217 45L218 46L217 45z"/>
<path style="fill:#000000; stroke:none;" d="M218.317 46.0471C213.627 48.9376 217.791 56.1645 222.682 52.9676C227.067 50.1015 222.816 43.2747 218.317 46.0471z"/>
<path style="fill:#7a7975; stroke:none;" d="M223 45L224 46L223 45z"/>
<path style="fill:#b29fc1; stroke:none;" d="M544 45L545 46L544 45z"/>
<path style="fill:#8c6cac; stroke:none;" d="M603 45L604 46L603 45z"/>
<path style="fill:#4d4d4a; stroke:none;" d="M216 46L217 47L216 46z"/>
<path style="fill:#888682; stroke:none;" d="M224 46L225 47L224 46z"/>
<path style="fill:#a289b7; stroke:none;" d="M387 46C389.89 47.2129 392.874 46.9983 396 47C393.11 45.7871 390.126 46.0017 387 46z"/>
<path style="fill:#b29fc1; stroke:none;" d="M545 46L546 47L545 46z"/>
<path style="fill:#8c6cac; stroke:none;" d="M602 46L603 47L602 46z"/>
<path style="fill:#74736f; stroke:none;" d="M16 47C18.6127 48.0977 21.1645 47.9928 24 48C21.3873 46.9023 18.8355 47.0072 16 47z"/>
<path style="fill:#cfcdc7; stroke:none;" d="M24 47L24 117C26.0851 112.031 25 105.35 25 100L25 66C25 60.113 26.2922 52.4625 24 47z"/>
<path style="fill:#b1afaa; stroke:none;" d="M215 47L216 48L215 47z"/>
<path style="fill:#a791bb; stroke:none;" d="M381 47L382 48L381 47z"/>
<path style="fill:#5c2d91; stroke:none;" d="M406 107C398.517 109 390.794 111.914 383 109.84C361.02 103.992 357.562 73.2016 374.09 59.5293C384.124 51.2283 394.729 53.9247 406 57C405.992 54.7883 406.457 51.601 404.972 49.7384C403.314 47.6574 399.435 47.4152 397 47.1705C389.606 46.4275 381.768 46.6826 375 49.9815C359.856 57.3628 354.814 73.1653 356.093 89C357.247 103.28 368.52 115.843 383 116.91C391.412 117.53 408.112 119.039 406 107z"/>
<path style="fill:#9c82b5; stroke:none;" d="M399.667 47.3333C399.222 47.7779 400.278 47.7221 400.333 47.6667C400.778 47.2223 399.722 47.2777 399.667 47.3333z"/>
<path style="fill:#d0c6d2; stroke:none;" d="M401.667 47.3333C401.222 47.7779 402.278 47.7222 402.333 47.6667C402.778 47.2224 401.722 47.2777 401.667 47.3333z"/>
<path style="fill:#b29fc1; stroke:none;" d="M546 47L547 48L546 47z"/>
<path style="fill:#8c6cac; stroke:none;" d="M601 47L602 48L601 47z"/>
<path style="fill:#000000; stroke:none;" d="M16 48L16 116L24 116L24 48L16 48z"/>
<path style="fill:#434341; stroke:none;" d="M215 48L215 51C215.696 49.4463 215.696 49.5537 215 48z"/>
<path style="fill:#7e7c79; stroke:none;" d="M225 48L225 51C225.696 49.4463 225.696 49.5537 225 48z"/>
<path style="fill:#9a7eb4; stroke:none;" d="M377.667 48.3333C377.222 48.7779 378.278 48.7222 378.333 48.6667C378.778 48.2223 377.722 48.2777 377.667 48.3333z"/>
<path style="fill:#9477b0; stroke:none;" d="M404 48L405 49L404 48z"/>
<path style="fill:#b29fc1; stroke:none;" d="M547 48L548 49L547 48z"/>
<path style="fill:#8c6cac; stroke:none;" d="M600 48L601 49L600 48z"/>
<path style="fill:#a892bb; stroke:none;" d="M375 49L376 50L375 49z"/>
<path style="fill:#7f5ca5; stroke:none;" d="M406 49L406 58C407.256 55.0059 407.256 51.9941 406 49z"/>
<path style="fill:#b29fc1; stroke:none;" d="M548 49L549 50L548 49z"/>
<path style="fill:#8c6cac; stroke:none;" d="M599 49L600 50L599 49z"/>
<path style="fill:#b7a6c3; stroke:none;" d="M373 50L374 51L373 50z"/>
<path style="fill:#b29fc1; stroke:none;" d="M549 50L550 51L549 50z"/>
<path style="fill:#8c6cac; stroke:none;" d="M598 50L599 51L598 50z"/>
<path style="fill:#888783; stroke:none;" d="M215 51L216 52L215 51z"/>
<path style="fill:#bcbbb5; stroke:none;" d="M225 51L226 52L225 51z"/>
<path style="fill:#8867aa; stroke:none;" d="M372 51L373 52L372 51z"/>
<path style="fill:#b29fc1; stroke:none;" d="M550 51L551 52L550 51z"/>
<path style="fill:#8c6cac; stroke:none;" d="M597 51L598 52L597 51z"/>
<path style="fill:#565552; stroke:none;" d="M224 52L225 53L224 52z"/>
<path style="fill:#9c82b4; stroke:none;" d="M370 52L371 53L370 52z"/>
<path style="fill:#b29fc1; stroke:none;" d="M551 52L552 53L551 52z"/>
<path style="fill:#8c6cac; stroke:none;" d="M596 52L597 53L596 52z"/>
<path style="fill:#abaaa4; stroke:none;" d="M216 53L217 54L216 53z"/>
<path style="fill:#3f3e3c; stroke:none;" d="M223 53L224 54L223 53z"/>
<path style="fill:#6f469c; stroke:none;" d="M389 53C390.506 53.683 391.315 53.8259 393 54C391.494 53.3169 390.685 53.1741 389 53z"/>
<path style="fill:#b29fc1; stroke:none;" d="M552 53L553 54L552 53z"/>
<path style="fill:#9071ae; stroke:none;" d="M595 53L596 54L595 53z"/>
<path style="fill:#6c6b68; stroke:none;" d="M218 54L219 55L218 54z"/>
<path style="fill:#393937; stroke:none;" d="M219 54C220.248 54.6848 220.548 54.7488 222 55C220.752 54.3152 220.452 54.2512 219 54z"/>
<path style="fill:#b2b1ab; stroke:none;" d="M222 54L223 55L222 54z"/>
<path style="fill:#8e6fad; stroke:none;" d="M383 54L384 55L383 54z"/>
<path style="fill:#cec4d1; stroke:none;" d="M384 54C385.248 54.6849 385.548 54.7488 387 55C385.752 54.3152 385.452 54.2512 384 54z"/>
<path style="fill:#a289b7; stroke:none;" d="M396 54C397.248 54.6848 397.548 54.7488 399 55C397.752 54.3152 397.452 54.2512 396 54z"/>
<path style="fill:#b29fc1; stroke:none;" d="M553 54L554 55L553 54z"/>
<path style="fill:#9071ae; stroke:none;" d="M594 54L595 55L594 54z"/>
<path style="fill:#bbabc6; stroke:none;" d="M366 55L367 56L366 55z"/>
<path style="fill:#c1b3ca; stroke:none;" d="M380.667 55.3333C380.222 55.7779 381.278 55.7222 381.333 55.6667C381.778 55.2223 380.722 55.2777 380.667 55.3333z"/>
<path style="fill:#b8a7c5; stroke:none;" d="M400 55L401 56L400 55z"/>
<path style="fill:#8c6cab; stroke:none;" d="M401 55L402 56L401 55z"/>
<path style="fill:#b19ec1; stroke:none;" d="M554 55L555 56L554 55z"/>
<path style="fill:#9274af; stroke:none;" d="M593 55L594 56L593 55z"/>
<path style="fill:#a891bb; stroke:none;" d="M365 56L366 57L365 56z"/>
<path style="fill:#a892bc; stroke:none;" d="M378 56L379 57L378 56z"/>
<path style="fill:#a289b7; stroke:none;" d="M403 56L404 57L403 56z"/>
<path style="fill:#b29fc1; stroke:none;" d="M555 56L556 57L555 56z"/>
<path style="fill:#9071ae; stroke:none;" d="M592 56L593 57L592 56z"/>
<path style="fill:#9c81b4; stroke:none;" d="M376 57L377 58L376 57z"/>
<path style="fill:#a993bc; stroke:none;" d="M405 57L406 58L405 57z"/>
<path style="fill:#b29fc1; stroke:none;" d="M556 57L557 58L556 57z"/>
<path style="fill:#9071ae; stroke:none;" d="M591 57L592 58L591 57z"/>
<path style="fill:#b29fc1; stroke:none;" d="M557 58L558 59L557 58z"/>
<path style="fill:#9071ae; stroke:none;" d="M590 58L591 59L590 58z"/>
<path style="fill:#8d6ead; stroke:none;" d="M373 59L374 60L373 59z"/>
<path style="fill:#b29fc1; stroke:none;" d="M558 59L559 60L558 59z"/>
<path style="fill:#9071ae; stroke:none;" d="M589 59L590 60L589 59z"/>
<path style="fill:#9b81b5; stroke:none;" d="M362 60L363 61L362 60z"/>
<path style="fill:#967bb2; stroke:none;" d="M372 60L373 61L372 60z"/>
<path style="fill:#b29fc1; stroke:none;" d="M559 60L560 61L559 60z"/>
<path style="fill:#9071ae; stroke:none;" d="M588 60L589 61L588 60z"/>
<path style="fill:#ae98be; stroke:none;" d="M361 61L362 62L361 61z"/>
<path style="fill:#9f86b7; stroke:none;" d="M371 61L372 62L371 61z"/>
<path style="fill:#b29fc1; stroke:none;" d="M560 61L561 62L560 61z"/>
<path style="fill:#9071ae; stroke:none;" d="M587 61L588 62L587 61z"/>
<path style="fill:#b29fc1; stroke:none;" d="M561 62L562 63L561 62z"/>
<path style="fill:#9071ae; stroke:none;" d="M586 62L587 63L586 62z"/>
<path style="fill:#967bb2; stroke:none;" d="M360 63L361 64L360 63z"/>
<path style="fill:#b29fc1; stroke:none;" d="M562 63L563 64L562 63z"/>
<path style="fill:#9071ae; stroke:none;" d="M585 63L586 64L585 63z"/>
<path style="fill:#b29fc1; stroke:none;" d="M563 64L564 65L563 64z"/>
<path style="fill:#9071ae; stroke:none;" d="M584 64L585 65L584 64z"/>
<path style="fill:#9b81b5; stroke:none;" d="M359 65L360 66L359 65z"/>
<path style="fill:#aa95bc; stroke:none;" d="M368 65L369 66L368 65z"/>
<path style="fill:#b29fc1; stroke:none;" d="M564 65L565 66L564 65z"/>
<path style="fill:#9071ae; stroke:none;" d="M583 65L584 66L583 65z"/>
<path style="fill:#878581; stroke:none;" d="M55 66C56.2483 66.6848 56.5484 66.7488 58 67C56.7516 66.3152 56.4516 66.2512 55 66z"/>
<path style="fill:#3f3e3c; stroke:none;" d="M58 66C59.2483 66.6848 59.5484 66.7488 61 67C59.7516 66.3152 59.4516 66.2512 58 66z"/>
<path style="fill:#878581; stroke:none;" d="M61.6667 66.3333C61.2222 66.7778 62.2778 66.7222 62.3333 66.6667C62.7777 66.2223 61.7222 66.2778 61.6667 66.3333z"/>
<path style="fill:#bbb9b3; stroke:none;" d="M63 66L64 67L63 66z"/>
<path style="fill:#9d9c97; stroke:none;" d="M86 66L87 67L86 66z"/>
<path style="fill:#595856; stroke:none;" d="M87.6667 66.3333C87.2222 66.7778 88.2778 66.7222 88.3333 66.6667C88.7778 66.2222 87.7222 66.2778 87.6667 66.3333z"/>
<path style="fill:#41403e; stroke:none;" d="M89 66C90.2484 66.6848 90.5484 66.7488 92 67C90.7517 66.3152 90.4516 66.2512 89 66z"/>
<path style="fill:#71706c; stroke:none;" d="M92.6667 66.3333C92.2222 66.7778 93.2778 66.7222 93.3333 66.6667C93.7778 66.2222 92.7222 66.2778 92.6667 66.3333z"/>
<path style="fill:#a7a6a1; stroke:none;" d="M94 66L95 67L94 66z"/>
<path style="fill:#71706c; stroke:none;" d="M129.667 66.3333C129.222 66.7777 130.278 66.7222 130.333 66.6667C130.778 66.2222 129.722 66.2778 129.667 66.3333z"/>
<path style="fill:#454542; stroke:none;" d="M131 66C132.769 66.7789 134.036 66.9124 136 67C134.231 66.2211 132.964 66.0876 131 66z"/>
<path style="fill:#61615e; stroke:none;" d="M136 66C137.248 66.6848 137.548 66.7488 139 67C137.752 66.3152 137.452 66.2512 136 66z"/>
<path style="fill:#a7a6a1; stroke:none;" d="M139 66L140 67L139 66z"/>
<path style="fill:#a6a5a0; stroke:none;" d="M177 66L178 67L177 66z"/>
<path style="fill:#757471; stroke:none;" d="M178 66L179 67L178 66z"/>
<path style="fill:#393937; stroke:none;" d="M179 66C180.506 66.683 181.315 66.8259 183 67C181.494 66.317 180.685 66.1741 179 66z"/>
<path style="fill:#706f6c; stroke:none;" d="M183 66C184.248 66.6848 184.548 66.7488 186 67C184.752 66.3152 184.452 66.2512 183 66z"/>
<path style="fill:#a5a39e; stroke:none;" d="M186 66L187 67L186 66z"/>
<path style="fill:#999893; stroke:none;" d="M254.667 66.3333C254.222 66.7778 255.278 66.7223 255.333 66.6667C255.778 66.2222 254.722 66.2778 254.667 66.3333z"/>
<path style="fill:#6a6a66; stroke:none;" d="M256.667 66.3333C256.222 66.7779 257.278 66.7222 257.333 66.6667C257.778 66.2223 256.722 66.2777 256.667 66.3333z"/>
<path style="fill:#3f3e3c; stroke:none;" d="M258 66C259.248 66.6848 259.548 66.7488 261 67C259.752 66.3152 259.452 66.2512 258 66z"/>
<path style="fill:#656461; stroke:none;" d="M261 66C262.248 66.6848 262.548 66.7488 264 67C262.752 66.3152 262.452 66.2512 261 66z"/>
<path style="fill:#8f8e89; stroke:none;" d="M302 66L303 67L302 66z"/>
<path style="fill:#393937; stroke:none;" d="M303 66C305.332 66.9845 307.457 66.9813 310 67C307.668 66.0154 305.543 66.0187 303 66z"/>
<path style="fill:#8f8e89; stroke:none;" d="M310 66L311 67L310 66z"/>
<path style="fill:#8664a8; stroke:none;" d="M367 66L368 67L367 66z"/>
<path style="fill:#b5a3c3; stroke:none;" d="M484 66C485.248 66.6848 485.548 66.7488 487 67C485.752 66.3152 485.452 66.2512 484 66z"/>
<path style="fill:#7b56a2; stroke:none;" d="M487.667 66.3333C487.222 66.7779 488.278 66.7222 488.333 66.6667C488.778 66.2224 487.722 66.2777 487.667 66.3333z"/>
<path style="fill:#5c2d91; stroke:none;" d="M472 76L472 68L465 68L465 139L472 139L472 109C475.482 111.973 478.357 115.338 483 116.467C485.562 117.09 488.382 117.117 491 116.907C515.976 114.898 517.217 67.8573 491 66.598C488.359 66.4711 485.519 66.813 483.001 67.6343C478.275 69.1755 475.56 72.8471 472 76z"/>
<path style="fill:#8360a7; stroke:none;" d="M491 66C492.506 66.683 493.315 66.8259 495 67C493.494 66.3169 492.685 66.1741 491 66z"/>
<path style="fill:#b29fc1; stroke:none;" d="M565 66L566 67L565 66z"/>
<path style="fill:#9071ae; stroke:none;" d="M582 66L583 67L582 66z"/>
<path style="fill:#4e4e4b; stroke:none;" d="M36 67L36 116C37.552 112.301 37 107.983 37 104L37 81C37 76.4645 37.7687 71.2151 36 67z"/>
<path style="fill:#393937; stroke:none;" d="M37 67C39.3316 67.9845 41.4567 67.9813 44 68C41.6684 67.0155 39.5433 67.0187 37 67z"/>
<path style="fill:#b1b0ab; stroke:none;" d="M44 67L44 74C45.0595 71.4657 45.0595 69.5343 44 67z"/>
<path style="fill:#9b9995; stroke:none;" d="M52 67L53 68L52 67z"/>
<path style="fill:#3d3c3b; stroke:none;" d="M53 67L54 68L53 67z"/>
<path style="fill:#000000; stroke:none;" d="M44 75L44 68L37 68L37 116L44 116L44 94C44.0003 89.6566 43.6387 85.0322 45.5725 81.0008C48.2423 75.4353 54.8431 70.9457 60.9568 74.179C64.9351 76.283 66.7394 80.805 67.5324 85C69.3918 94.8356 68 106.006 68 116L75 116C75 105.534 72.301 90.6298 76.9198 81.0039C79.6874 75.2359 86.8731 70.6958 92.9452 74.7423C96.7907 77.3049 97.8828 81.704 98.561 86C100.089 95.6831 99 106.209 99 116L106 116C106 103.362 108.732 86.9274 103.856 75.0039C100.4 66.5542 88.4184 64.6018 81 69.0093C77.9517 70.8203 75.4962 73.5262 73 76C67.5368 62.0245 52.1058 66.4856 44 75z"/>
<path style="fill:#5e5d5a; stroke:none;" d="M65 67L66 68L65 67z"/>
<path style="fill:#bbb9b3; stroke:none;" d="M66 67L67 68L66 67M82 67L83 68L82 67z"/>
<path style="fill:#676663; stroke:none;" d="M83 67L84 68L83 67z"/>
<path style="fill:#484745; stroke:none;" d="M96 67L97 68L96 67z"/>
<path style="fill:#a7a6a1; stroke:none;" d="M97 67L98 68L97 67z"/>
<path style="fill:#82817d; stroke:none;" d="M125 67L126 68L125 67z"/>
<path style="fill:#494846; stroke:none;" d="M126 67L127 68L126 67z"/>
<path style="fill:#000000; stroke:none;" d="M118 78C125.983 74.2904 138.566 68.0323 143.258 79.9961C144.01 81.9157 143.951 83.9798 144 86C136.911 86.1463 126.055 86.7233 120.015 90.7276C111.336 96.4824 110.739 111.34 121.015 115.91C129.799 119.817 138.178 115.356 144 109L144 116L151 116C151 107.351 150.702 98.6424 151.039 90C151.27 84.0609 152.258 77.1958 148.347 72.108C143.364 65.6262 124.096 63.8513 119.028 71.4174C117.77 73.2947 118.025 75.8592 118 78z"/>
<path style="fill:#424240; stroke:none;" d="M141 67L142 68L141 67z"/>
<path style="fill:#8c8b87; stroke:none;" d="M142 67L143 68L142 67z"/>
<path style="fill:#b6b4af; stroke:none;" d="M173 67L174 68L173 67z"/>
<path style="fill:#676663; stroke:none;" d="M174 67L175 68L174 67z"/>
<path style="fill:#000000; stroke:none;" d="M198 108C197.964 112.316 197.718 116.862 196.366 121C191.438 136.085 175.511 133.434 164 129C164.094 136.971 168.535 138.387 176 138.91C185.324 139.564 194.581 138.146 200.351 129.996C205.152 123.214 205 113.941 205 106L205 68L198 68L198 74C194.145 71.0959 191.024 67.8599 186 67.1883C181.822 66.6298 176.908 66.6783 173 68.3673C149.756 78.4135 158.534 125.124 187 116.196C191.605 114.752 194.481 111.032 198 108z"/>
<path style="fill:#464543; stroke:none;" d="M188 67L189 68L188 67z"/>
<path style="fill:#9e9d98; stroke:none;" d="M189 67L190 68L189 67z"/>
<path style="fill:#686764; stroke:none;" d="M197 67L198 68L197 67z"/>
<path style="fill:#393937; stroke:none;" d="M198 67C200.332 67.9845 202.457 67.9813 205 68C202.668 67.0155 200.543 67.0187 198 67z"/>
<path style="fill:#c4c2bc; stroke:none;" d="M205 67L205 116C206.769 111.785 206 106.536 206 102L206 79C206 75.0172 206.552 70.6987 205 67z"/>
<path style="fill:#4c4b49; stroke:none;" d="M216 67L216 116C217.552 112.301 217 107.983 217 104L217 81C217 76.4645 217.769 71.2151 216 67z"/>
<path style="fill:#393937; stroke:none;" d="M217 67C219.332 67.9845 221.457 67.9813 224 68C221.668 67.0155 219.543 67.0187 217 67z"/>
<path style="fill:#b4b3ad; stroke:none;" d="M224 67L224 116C225.552 112.301 225 107.983 225 104L225 81C225 76.4645 225.769 71.2151 224 67z"/>
<path style="fill:#5e5d5a; stroke:none;" d="M235 67L235 116C236.552 112.301 236 107.983 236 104L236 81C236 76.4645 236.769 71.2151 235 67z"/>
<path style="fill:#393937; stroke:none;" d="M236 67C238.332 67.9845 240.457 67.9813 243 68C240.668 67.0155 238.543 67.0187 236 67z"/>
<path style="fill:#a3a19d; stroke:none;" d="M243 67L243 75C244.572 72.2812 244.273 69.8618 243 67z"/>
<path style="fill:#6c6b68; stroke:none;" d="M252 67L253 68L252 67z"/>
<path style="fill:#000000; stroke:none;" d="M244 76C243.19 73.271 243.021 70.8495 243 68L236 68L236 116L243 116C243 105.963 239.974 89.9511 245.09 81.0008C248.849 74.4221 257.229 69.5874 263.786 75.419C268.112 79.266 268.931 85.5453 268.996 91C269.096 99.3308 269 107.669 269 116L276 116L276 92C276 85.9651 276.276 79.5395 273.316 74.0401C267.215 62.7074 249.01 65.3525 244 76z"/>
<path style="fill:#676663; stroke:none;" d="M266 67L267 68L266 67z"/>
<path style="fill:#a3a19d; stroke:none;" d="M298 67L299 68L298 67z"/>
<path style="fill:#4f4e4c; stroke:none;" d="M299 67L300 68L299 67z"/>
<path style="fill:#000000; stroke:none;" d="M323 107C318.384 108.548 313.967 111.129 309 111.387C298.848 111.914 292.425 103.278 292 94L326 94C326 86.3388 326.455 78.1161 320.786 72.108C314.553 65.5021 301.157 64.911 294.015 70.419C287.652 75.3256 284.464 83.1136 284.104 91C283.64 101.176 287.785 112.342 298 116.03C306.543 119.115 322.634 118.19 323 107z"/>
<path style="fill:#4c4c49; stroke:none;" d="M313 67L314 68L313 67z"/>
<path style="fill:#888682; stroke:none;" d="M314 67L315 68L314 67z"/>
<path style="fill:#9f86b7; stroke:none;" d="M358 67L359 68L358 67z"/>
<path style="fill:#bfaec8; stroke:none;" d="M367 67L368 68L367 67z"/>
<path style="fill:#7f5ca5; stroke:none;" d="M413 67C415.613 68.0977 418.165 67.9928 421 68C418.387 66.9023 415.836 67.0072 413 67z"/>
<path style="fill:#7750a0; stroke:none;" d="M446 67C448.331 67.9845 450.457 67.9813 453 68L453 94C456.109 86.5911 454 75.0246 454 67L446 67z"/>
<path style="fill:#7f5ca5; stroke:none;" d="M465 67C467.331 67.9845 469.457 67.9813 472 68C472.01 71.0941 471.591 73.896 474 76C473.276 72.9605 473.026 70.1217 473 67L465 67z"/>
<path style="fill:#b09dc0; stroke:none;" d="M482 67L483 68L482 67z"/>
<path style="fill:#c0b2c9; stroke:none;" d="M497.667 67.3333C497.222 67.7779 498.278 67.7222 498.333 67.6667C498.778 67.2224 497.722 67.2777 497.667 67.3333z"/>
<path style="fill:#b29fc1; stroke:none;" d="M566 67L567 68L566 67z"/>
<path style="fill:#9071ae; stroke:none;" d="M581 67L582 68L581 67z"/>
<path style="fill:#acaaa5; stroke:none;" d="M50 68L51 69L50 68z"/>
<path style="fill:#5b5a57; stroke:none;" d="M67 68L68 69L67 68z"/>
<path style="fill:#afada8; stroke:none;" d="M80 68L81 69L80 68z"/>
<path style="fill:#3b3b39; stroke:none;" d="M81 68L82 69L81 68z"/>
<path style="fill:#3d3c3b; stroke:none;" d="M98 68L99 69L98 68z"/>
<path style="fill:#bbbab4; stroke:none;" d="M99 68L100 69L99 68z"/>
<path style="fill:#71706c; stroke:none;" d="M122 68L123 69L122 68z"/>
<path style="fill:#2b2a29; stroke:none;" d="M123 68L124 69L123 68z"/>
<path style="fill:#666562; stroke:none;" d="M144 68L145 69L144 68z"/>
<path style="fill:#a09f9a; stroke:none;" d="M171 68L172 69L171 68z"/>
<path style="fill:#2c2b2a; stroke:none;" d="M172 68L173 69L172 68z"/>
<path style="fill:#969590; stroke:none;" d="M191 68L192 69L191 68z"/>
<path style="fill:#3d3c3b; stroke:none;" d="M197 68L197 74C197.951 71.7148 197.951 70.2852 197 68z"/>
<path style="fill:#000000; stroke:none;" d="M217 68L217 116L224 116L224 68L217 68z"/>
<path style="fill:#5b5a57; stroke:none;" d="M250 68L251 69L250 68z"/>
<path style="fill:#888783; stroke:none;" d="M268 68L269 69L268 68M296 68L297 69L296 68z"/>
<path style="fill:#7c7b77; stroke:none;" d="M316 68L317 69L316 68z"/>
<path style="fill:#8664a8; stroke:none;" d="M366 68L367 69L366 68z"/>
<path style="fill:#5c2d91; stroke:none;" d="M413 68C413 78.2355 412.194 88.8486 413.576 99C414.085 102.735 414.127 106.639 416.09 109.985C422.258 120.499 439.611 119.144 445 109C445.722 111.418 445.948 113.472 446 116L454 116L453 68L446 68L446 90C446 94.3365 446.527 99.0308 444.427 102.996C439.619 112.08 427.524 113.989 422.457 103.996C420.455 100.048 421 95.2836 421 91L421 68L413 68z"/>
<path style="fill:#967bb2; stroke:none;" d="M480 68L481 69L480 68z"/>
<path style="fill:#8f70ad; stroke:none;" d="M499 68L500 69L499 68z"/>
<path style="fill:#b29fc1; stroke:none;" d="M567 68L568 69L567 68z"/>
<path style="fill:#9071ae; stroke:none;" d="M580 68L581 69L580 68z"/>
<path style="fill:#62615e; stroke:none;" d="M49 69L50 70L49 69z"/>
<path style="fill:#6f6e6b; stroke:none;" d="M79 69L80 70L79 69z"/>
<path style="fill:#92918d; stroke:none;" d="M100 69L101 70L100 69z"/>
<path style="fill:#545350; stroke:none;" d="M120 69L121 70L120 69z"/>
<path style="fill:#b3b2ac; stroke:none;" d="M146 69L147 70L146 69z"/>
<path style="fill:#444442; stroke:none;" d="M170 69L171 70L170 69z"/>
<path style="fill:#51504e; stroke:none;" d="M192 69L193 70L192 69z"/>
<path style="fill:#999893; stroke:none;" d="M248 69L249 70L248 69z"/>
<path style="fill:#343332; stroke:none;" d="M269 69L270 70L269 69z"/>
<path style="fill:#b7b5b0; stroke:none;" d="M294 69L295 70L294 69z"/>
<path style="fill:#aaa9a4; stroke:none;" d="M318 69L319 70L318 69z"/>
<path style="fill:#967bb2; stroke:none;" d="M357.333 69.6667C357.278 69.7222 357.222 70.7778 357.667 70.3333C357.722 70.2778 357.778 69.2222 357.333 69.6667z"/>
<path style="fill:#bfaec8; stroke:none;" d="M366 69L367 70L366 69z"/>
<path style="fill:#bdadc7; stroke:none;" d="M478 69L479 70L478 69z"/>
<path style="fill:#9e84b6; stroke:none;" d="M501 69L502 70L501 69z"/>
<path style="fill:#b29fc1; stroke:none;" d="M568 69L569 70L568 69z"/>
<path style="fill:#9071ae; stroke:none;" d="M579 69L580 70L579 69z"/>
<path style="fill:#363534; stroke:none;" d="M48 70L49 71L48 70z"/>
<path style="fill:#b5b3ae; stroke:none;" d="M70 70L71 71L70 70z"/>
<path style="fill:#403f3d; stroke:none;" d="M78 70L79 71L78 70z"/>
<path style="fill:#8f8e89; stroke:none;" d="M101 70L102 71L101 70z"/>
<path style="fill:#62615e; stroke:none;" d="M118 70L119 71L118 70z"/>
<path style="fill:#92918d; stroke:none;" d="M147 70L148 71L147 70z"/>
<path style="fill:#84837f; stroke:none;" d="M247 70L248 71L247 70z"/>
<path style="fill:#bdbcb6; stroke:none;" d="M271 70L272 71L271 70z"/>
<path style="fill:#787773; stroke:none;" d="M293 70L294 71L293 70z"/>
<path style="fill:#7b7a76; stroke:none;" d="M319 70L320 71L319 70z"/>
<path style="fill:#8664a8; stroke:none;" d="M365 70L366 71L365 70z"/>
<path style="fill:#a086b7; stroke:none;" d="M477 70L478 71L477 70z"/>
<path style="fill:#9072ae; stroke:none;" d="M502 70L503 71L502 70z"/>
<path style="fill:#b29fc1; stroke:none;" d="M569 70L570 71L569 70z"/>
<path style="fill:#9071ae; stroke:none;" d="M578 70L579 71L578 70z"/>
<path style="fill:#393937; stroke:none;" d="M77 71L78 72L77 71z"/>
<path style="fill:#a6a5a0; stroke:none;" d="M102 71L103 72L102 71z"/>
<path style="fill:#d2d0ca; stroke:none;" d="M117 71L117 79C118.161 76.2301 118.161 73.7699 117 71z"/>
<path style="fill:#bab8b2; stroke:none;" d="M148 71L149 72L148 71z"/>
<path style="fill:#b3b2ac; stroke:none;" d="M167 71L168 72L167 71z"/>
<path style="fill:#83827e; stroke:none;" d="M246 71L247 72L246 71z"/>
<path style="fill:#545350; stroke:none;" d="M292 71L293 72L292 71z"/>
<path style="fill:#595856; stroke:none;" d="M320 71L321 72L320 71z"/>
<path style="fill:#cfc5d1; stroke:none;" d="M365.333 71.6667C365.278 71.7222 365.222 72.7778 365.667 72.3333C365.722 72.2777 365.778 71.2222 365.333 71.6667z"/>
<path style="fill:#997db3; stroke:none;" d="M503 71L504 72L503 71z"/>
<path style="fill:#b29fc1; stroke:none;" d="M570 71L571 72L570 71z"/>
<path style="fill:#9071ae; stroke:none;" d="M577 71L578 72L577 71z"/>
<path style="fill:#3b3b39; stroke:none;" d="M46 72L47 73L46 72z"/>
<path style="fill:#353433; stroke:none;" d="M71 72L72 73L71 72z"/>
<path style="fill:#434341; stroke:none;" d="M76 72L77 73L76 72z"/>
<path style="fill:#2b2a29; stroke:none;" d="M133.667 72.3333C133.222 72.7777 134.278 72.7223 134.333 72.6667C134.778 72.2222 133.722 72.2778 133.667 72.3333z"/>
<path style="fill:#a9a8a3; stroke:none;" d="M166 72L167 73L166 72z"/>
<path style="fill:#2b2a29; stroke:none;" d="M181 72C182.506 72.683 183.315 72.8259 185 73C183.494 72.317 182.685 72.1741 181 72z"/>
<path style="fill:#434341; stroke:none;" d="M195 72L196 73L195 72z"/>
<path style="fill:#918f8b; stroke:none;" d="M245 72L246 73L245 72z"/>
<path style="fill:#2e2e2d; stroke:none;" d="M255 72C256.506 72.683 257.315 72.8259 259 73C257.494 72.3169 256.685 72.1741 255 72z"/>
<path style="fill:#393937; stroke:none;" d="M272 72L273 73L272 72z"/>
<path style="fill:#504f4d; stroke:none;" d="M291 72L292 73L291 72z"/>
<path style="fill:#373634; stroke:none;" d="M305.667 72.3333C305.222 72.7779 306.278 72.7222 306.333 72.6667C306.778 72.2223 305.722 72.2777 305.667 72.3333z"/>
<path style="fill:#535250; stroke:none;" d="M321 72L322 73L321 72z"/>
<path style="fill:#a790bb; stroke:none;" d="M475 72L476 73L475 72z"/>
<path style="fill:#a087b6; stroke:none;" d="M504 72L505 73L504 72z"/>
<path style="fill:#b29fc1; stroke:none;" d="M571 72L572 73L571 72z"/>
<path style="fill:#9071ae; stroke:none;" d="M576 72L577 73L576 72z"/>
<path style="fill:#6b6a67; stroke:none;" d="M45 73L46 74L45 73z"/>
<path style="fill:#565653; stroke:none;" d="M52 73L53 74L52 73z"/>
<path style="fill:#c1bfb9; stroke:none;" d="M53.6667 73.3333C53.2222 73.7778 54.2778 73.7222 54.3333 73.6667C54.7778 73.2222 53.7222 73.2778 53.6667 73.3333z"/>
<path style="fill:#b3b2ac; stroke:none;" d="M57.6667 73.3333C57.2222 73.7778 58.2778 73.7222 58.3333 73.6667C58.7778 73.2222 57.7222 73.2778 57.6667 73.3333z"/>
<path style="fill:#757471; stroke:none;" d="M59 73L60 74L59 73z"/>
<path style="fill:#2c2b2a; stroke:none;" d="M60 73L61 74L60 73z"/>
<path style="fill:#9a9894; stroke:none;" d="M72 73L73 74L72 73z"/>
<path style="fill:#6e6d6a; stroke:none;" d="M75 73L76 74L75 73z"/>
<path style="fill:#8e8d88; stroke:none;" d="M84 73L85 74L84 73z"/>
<path style="fill:#b8b6b1; stroke:none;" d="M88.6667 73.3333C88.2222 73.7778 89.2778 73.7222 89.3333 73.6667C89.7778 73.2222 88.7222 73.2778 88.6667 73.3333z"/>
<path style="fill:#898884; stroke:none;" d="M90 73L91 74L90 73z"/>
<path style="fill:#3d3c3b; stroke:none;" d="M91 73L92 74L91 73z"/>
<path style="fill:#63625f; stroke:none;" d="M103 73L104 74L103 73z"/>
<path style="fill:#383836; stroke:none;" d="M127 73L128 74L127 73z"/>
<path style="fill:#71706c; stroke:none;" d="M128 73L129 74L128 73z"/>
<path style="fill:#c5c4be; stroke:none;" d="M129.667 73.3333C129.222 73.7777 130.278 73.7222 130.333 73.6667C130.778 73.2222 129.722 73.2778 129.667 73.3333z"/>
<path style="fill:#a4a29d; stroke:none;" d="M137 73L138 74L137 73z"/>
<path style="fill:#585755; stroke:none;" d="M138 73L139 74L138 73z"/>
<path style="fill:#6e6d6a; stroke:none;" d="M149 73L150 74L149 73z"/>
<path style="fill:#afada8; stroke:none;" d="M165 73L166 74L165 73z"/>
<path style="fill:#363534; stroke:none;" d="M177 73L178 74L177 73z"/>
<path style="fill:#81807c; stroke:none;" d="M178 73L179 74L178 73z"/>
<path style="fill:#e8e6df; stroke:none;" d="M179 73.6528C160.811 79.3358 166.051 116.578 187 109.652C203.985 104.037 199.359 67.2917 179 73.6528z"/>
<path style="fill:#8e8d88; stroke:none;" d="M187 73L188 74L187 73z"/>
<path style="fill:#464543; stroke:none;" d="M188 73L189 74L188 73z"/>
<path style="fill:#7b7a76; stroke:none;" d="M196 73L197 74L196 73z"/>
<path style="fill:#797874; stroke:none;" d="M252 73L253 74L252 73z"/>
<path style="fill:#bbbab4; stroke:none;" d="M253 73L254 74L253 73z"/>
<path style="fill:#a8a7a2; stroke:none;" d="M260 73L261 74L260 73z"/>
<path style="fill:#5d5c59; stroke:none;" d="M261 73L262 74L261 73z"/>
<path style="fill:#918f8b; stroke:none;" d="M273 73L274 74L273 73z"/>
<path style="fill:#656461; stroke:none;" d="M290 73L291 74L290 73z"/>
<path style="fill:#51504e; stroke:none;" d="M301 73L302 74L301 73z"/>
<path style="fill:#999893; stroke:none;" d="M302 73L303 74L302 73z"/>
<path style="fill:#e8e6df; stroke:none;" d="M293 87L318 87C317.926 83.8638 317.786 80.8187 315.991 78.1049C308.364 66.5773 294.101 76.3217 293 87z"/>
<path style="fill:#7d7c78; stroke:none;" d="M310 73L311 74L310 73z"/>
<path style="fill:#a2a19c; stroke:none;" d="M322 73L323 74L322 73z"/>
<path style="fill:#8360a6; stroke:none;" d="M356.333 73.6667C356.278 73.7221 356.222 74.7778 356.667 74.3333C356.722 74.2777 356.778 73.2222 356.333 73.6667z"/>
<path style="fill:#a891bc; stroke:none;" d="M483 73L484 74L483 73z"/>
<path style="fill:#e8e6df; stroke:none;" d="M484.001 73.5579C466.063 78.2568 469.874 116.326 490.999 110.056C508.458 104.875 504.809 68.1071 484.001 73.5579z"/>
<path style="fill:#7a55a2; stroke:none;" d="M492.667 73.3333C492.222 73.7779 493.278 73.7221 493.333 73.6667C493.778 73.2224 492.722 73.2777 492.667 73.3333z"/>
<path style="fill:#b8a7c5; stroke:none;" d="M505 73L506 74L505 73z"/>
<path style="fill:#b29fc1; stroke:none;" d="M572 73L573 74L572 73z"/>
<path style="fill:#9071ae; stroke:none;" d="M575 73L576 74L575 73z"/>
<path style="fill:#7d7c78; stroke:none;" d="M44 74L45 75L44 74z"/>
<path style="fill:#4f4e4c; stroke:none;" d="M50 74L51 75L50 74z"/>
<path style="fill:#b1afaa; stroke:none;" d="M61 74L62 75L61 74z"/>
<path style="fill:#323230; stroke:none;" d="M62 74L63 75L62 74z"/>
<path style="fill:#b0aea9; stroke:none;" d="M74 74L75 75L74 74z"/>
<path style="fill:#a2a19c; stroke:none;" d="M82 74L83 75L82 74z"/>
<path style="fill:#545350; stroke:none;" d="M93 74L94 75L93 74z"/>
<path style="fill:#3a3a38; stroke:none;" d="M124 74L125 75L124 74z"/>
<path style="fill:#a7a6a1; stroke:none;" d="M125 74L126 75L125 74z"/>
<path style="fill:#bcbbb5; stroke:none;" d="M176 74L177 75L176 74z"/>
<path style="fill:#4c4c49; stroke:none;" d="M190 74L191 75L190 74z"/>
<path style="fill:#81807c; stroke:none;" d="M250 74L251 75L250 74z"/>
<path style="fill:#41403e; stroke:none;" d="M263 74L264 75L263 74z"/>
<path style="fill:#969590; stroke:none;" d="M289 74L290 75L289 74z"/>
<path style="fill:#504f4d; stroke:none;" d="M299 74L300 75L299 74z"/>
<path style="fill:#8d8c88; stroke:none;" d="M312 74L313 75L312 74z"/>
<path style="fill:#a790bb; stroke:none;" d="M364.333 74.6667C364.278 74.7221 364.222 75.7778 364.667 75.3333C364.722 75.2777 364.778 74.2222 364.333 74.6667z"/>
<path style="fill:#8765a8; stroke:none;" d="M480 74L481 75L480 74z"/>
<path style="fill:#b3a0c1; stroke:none;" d="M494 74L495 75L494 74z"/>
<path style="fill:#9477b0; stroke:none;" d="M573.667 74.3333C573.222 74.7778 574.278 74.7223 574.333 74.6667C574.778 74.2222 573.722 74.2777 573.667 74.3333z"/>
<path style="fill:#878581; stroke:none;" d="M49 75L50 76L49 75z"/>
<path style="fill:#5b5a57; stroke:none;" d="M63 75L64 76L63 75z"/>
<path style="fill:#9a9894; stroke:none;" d="M73 75L74 76L73 75z"/>
<path style="fill:#63625f; stroke:none;" d="M80 75L81 76L80 75z"/>
<path style="fill:#9c9a96; stroke:none;" d="M94 75L95 76L94 75z"/>
<path style="fill:#858480; stroke:none;" d="M104 75L105 76L104 75z"/>
<path style="fill:#343332; stroke:none;" d="M122 75L123 76L122 75z"/>
<path style="fill:#abaaa4; stroke:none;" d="M123 75L124 76L123 75z"/>
<path style="fill:#7f7e7a; stroke:none;" d="M150 75L151 76L150 75z"/>
<path style="fill:#4e4e4b; stroke:none;" d="M164 75L165 76L164 75z"/>
<path style="fill:#787773; stroke:none;" d="M174 75L175 76L174 75z"/>
<path style="fill:#93928e; stroke:none;" d="M191 75L192 76L191 75z"/>
<path style="fill:#2b2a29; stroke:none;" d="M243 75L244 76L243 75z"/>
<path style="fill:#5e5d5a; stroke:none;" d="M264 75L265 76L264 75z"/>
<path style="fill:#9f9e99; stroke:none;" d="M274 75L275 76L274 75z"/>
<path style="fill:#9c9a96; stroke:none;" d="M298 75L299 76L298 75z"/>
<path style="fill:#2d2d2c; stroke:none;" d="M314 75L315 76L314 75z"/>
<path style="fill:#5c5b58; stroke:none;" d="M323 75L324 76L323 75z"/>
<path style="fill:#b29fc1; stroke:none;" d="M479 75L480 76L479 75z"/>
<path style="fill:#8d6dad; stroke:none;" d="M496 75L497 76L496 75z"/>
<path style="fill:#8c6cab; stroke:none;" d="M506 75L507 76L506 75z"/>
<path style="fill:#94938f; stroke:none;" d="M48 76L49 77L48 76z"/>
<path style="fill:#444442; stroke:none;" d="M64 76L65 77L64 76z"/>
<path style="fill:#5d5c59; stroke:none;" d="M79 76L80 77L79 76z"/>
<path style="fill:#8f8e89; stroke:none;" d="M95 76L96 77L95 76z"/>
<path style="fill:#31312f; stroke:none;" d="M104 76L105 77L104 76z"/>
<path style="fill:#9e9d98; stroke:none;" d="M121 76L122 77L121 76z"/>
<path style="fill:#b7b5b0; stroke:none;" d="M141 76L142 77L141 76z"/>
<path style="fill:#a6a5a0; stroke:none;" d="M163 76L164 77L163 76z"/>
<path style="fill:#999893; stroke:none;" d="M173 76L174 77L173 76z"/>
<path style="fill:#a1a09b; stroke:none;" d="M192 76L193 77L192 76z"/>
<path style="fill:#4c4c49; stroke:none;" d="M265 76L266 77L265 76z"/>
<path style="fill:#444442; stroke:none;" d="M274 76L275 77L274 76z"/>
<path style="fill:#353433; stroke:none;" d="M288 76L289 77L288 76z"/>
<path style="fill:#b7b5b0; stroke:none;" d="M297 76L298 77L297 76z"/>
<path style="fill:#3b3b39; stroke:none;" d="M315 76L316 77L315 76z"/>
<path style="fill:#d0c6d2; stroke:none;" d="M364 76L364 79C364.696 77.4464 364.696 77.5536 364 76z"/>
<path style="fill:#987cb2; stroke:none;" d="M497 76L498 77L497 76z"/>
<path style="fill:#b4a0c2; stroke:none;" d="M507 76L508 77L507 76z"/>
<path style="fill:#7e7d7a; stroke:none;" d="M47 77L48 78L47 77z"/>
<path style="fill:#41403e; stroke:none;" d="M78 77L79 78L78 77z"/>
<path style="fill:#323230; stroke:none;" d="M96 77L97 78L96 77z"/>
<path style="fill:#333331; stroke:none;" d="M119 77L120 78L119 77z"/>
<path style="fill:#60605d; stroke:none;" d="M142 77L143 78L142 77z"/>
<path style="fill:#999893; stroke:none;" d="M172 77L173 78L172 77z"/>
<path style="fill:#95948f; stroke:none;" d="M193 77L194 78L193 77z"/>
<path style="fill:#84837f; stroke:none;" d="M287 77L288 78L287 77z"/>
<path style="fill:#aaa9a4; stroke:none;" d="M296 77L297 78L296 77z"/>
<path style="fill:#757471; stroke:none;" d="M324 77L325 78L324 77z"/>
<path style="fill:#bbabc6; stroke:none;" d="M355 77L355 81C355.71 79.2405 355.71 78.7595 355 77z"/>
<path style="fill:#a289b7; stroke:none;" d="M498 77L499 78L498 77z"/>
<path style="fill:#30302e; stroke:none;" d="M46 78L47 79L46 78z"/>
<path style="fill:#81807c; stroke:none;" d="M65 78L66 79L65 78z"/>
<path style="fill:#aaa9a4; stroke:none;" d="M96 78L97 79L96 78z"/>
<path style="fill:#72716d; stroke:none;" d="M105.333 78.6667C105.278 78.7222 105.222 79.7778 105.667 79.3333C105.722 79.2778 105.778 78.2222 105.333 78.6667z"/>
<path style="fill:#696865; stroke:none;" d="M118 78L119 79L118 78z"/>
<path style="fill:#9b9995; stroke:none;" d="M151 78L152 79L151 78z"/>
<path style="fill:#92908c; stroke:none;" d="M162 78L163 79L162 78z"/>
<path style="fill:#696865; stroke:none;" d="M171 78L172 79L171 78z"/>
<path style="fill:#605f5c; stroke:none;" d="M194 78L195 79L194 78z"/>
<path style="fill:#aeaca7; stroke:none;" d="M246 78L247 79L246 78z"/>
<path style="fill:#95948f; stroke:none;" d="M266 78L267 79L266 78z"/>
<path style="fill:#9b9995; stroke:none;" d="M275 78L276 79L275 78z"/>
<path style="fill:#747370; stroke:none;" d="M295 78L296 79L295 78z"/>
<path style="fill:#9e9d98; stroke:none;" d="M316 78L317 79L316 78z"/>
<path style="fill:#b6a5c3; stroke:none;" d="M476 78L477 79L476 78z"/>
<path style="fill:#7b7a76; stroke:none;" d="M77 79L78 80L77 79z"/>
<path style="fill:#3c3c3a; stroke:none;" d="M143 79L144 80L143 79z"/>
<path style="fill:#3f3e3c; stroke:none;" d="M151.333 79.6667C151.278 79.7223 151.222 80.7777 151.667 80.3333C151.722 80.2778 151.778 79.2222 151.333 79.6667z"/>
<path style="fill:#73726e; stroke:none;" d="M245 79L246 80L245 79z"/>
<path style="fill:#6b6a67; stroke:none;" d="M275 79L276 80L275 79z"/>
<path style="fill:#686764; stroke:none;" d="M286 79L287 80L286 79z"/>
<path style="fill:#2d2d2c; stroke:none;" d="M294 79L295 80L294 79z"/>
<path style="fill:#a1a09b; stroke:none;" d="M325 79L326 80L325 79z"/>
<path style="fill:#987cb2; stroke:none;" d="M475 79L476 80L475 79z"/>
<path style="fill:#b8a7c4; stroke:none;" d="M499 79L500 80L499 79z"/>
<path style="fill:#987cb2; stroke:none;" d="M508 79L509 80L508 79z"/>
<path style="fill:#393937; stroke:none;" d="M45 80L46 81L45 80z"/>
<path style="fill:#494846; stroke:none;" d="M66 80L67 81L66 80z"/>
<path style="fill:#4d4d4a; stroke:none;" d="M97 80L98 81L97 80z"/>
<path style="fill:#1e1e1d; stroke:none;" d="M105.333 80.6667C105.278 80.7222 105.222 81.7778 105.667 81.3333C105.722 81.2778 105.778 80.2222 105.333 80.6667z"/>
<path style="fill:#747370; stroke:none;" d="M143 80L144 81L143 80z"/>
<path style="fill:#b8b6b1; stroke:none;" d="M161 80L162 81L161 80z"/>
<path style="fill:#9a9894; stroke:none;" d="M170 80L171 81L170 80z"/>
<path style="fill:#9e9d98; stroke:none;" d="M195 80L196 81L195 80z"/>
<path style="fill:#565653; stroke:none;" d="M267 80L268 81L267 80z"/>
<path style="fill:#3c3c3a; stroke:none;" d="M275 80L276 81L275 80z"/>
<path style="fill:#bab8b2; stroke:none;" d="M294 80L295 81L294 80z"/>
<path style="fill:#7c7b77; stroke:none;" d="M317 80L318 81L317 80z"/>
<path style="fill:#63625f; stroke:none;" d="M325 80L326 81L325 80z"/>
<path style="fill:#93928e; stroke:none;" d="M45 81L46 82L45 81z"/>
<path style="fill:#b7b5b0; stroke:none;" d="M66.3333 81.6667C66.2778 81.7222 66.2222 82.7778 66.6667 82.3333C66.7222 82.2778 66.7778 81.2222 66.3333 81.6667z"/>
<path style="fill:#72716d; stroke:none;" d="M76 81L77 82L76 81z"/>
<path style="fill:#a9a8a3; stroke:none;" d="M97.3333 81.6667C97.2778 81.7222 97.2222 82.7778 97.6667 82.3333C97.7222 82.2778 97.7778 81.2222 97.3333 81.6667z"/>
<path style="fill:#c5c3bd; stroke:none;" d="M143 81L143 84C143.696 82.4463 143.696 82.5537 143 81z"/>
<path style="fill:#191918; stroke:none;" d="M151.333 81.6667C151.278 81.7222 151.222 82.7778 151.667 82.3333C151.722 82.2777 151.778 81.2222 151.333 81.6667z"/>
<path style="fill:#696865; stroke:none;" d="M161 81L162 82L161 81z"/>
<path style="fill:#2f2f2d; stroke:none;" d="M196 81L197 82L196 81z"/>
<path style="fill:#61615e; stroke:none;" d="M244 81L245 82L244 81z"/>
<path style="fill:#9d9c97; stroke:none;" d="M267 81L268 82L267 81z"/>
<path style="fill:#8f8e89; stroke:none;" d="M285 81L286 82L285 81z"/>
<path style="fill:#51504e; stroke:none;" d="M293 81L294 82L293 81z"/>
<path style="fill:#333331; stroke:none;" d="M325 81L326 82L325 81z"/>
<path style="fill:#a992bb; stroke:none;" d="M355 81L355 85C355.71 83.2405 355.71 82.7595 355 81z"/>
<path style="fill:#7a54a1; stroke:none;" d="M363 81L363 84C363.696 82.4463 363.696 82.5537 363 81z"/>
<path style="fill:#9476af; stroke:none;" d="M474 81L475 82L474 81z"/>
<path style="fill:#b09dc0; stroke:none;" d="M500 81L501 82L500 81z"/>
<path style="fill:#a892bb; stroke:none;" d="M509 81L509 84C509.696 82.4463 509.696 82.5537 509 81z"/>
<path style="fill:#81807c; stroke:none;" d="M169 82L170 83L169 82z"/>
<path style="fill:#767572; stroke:none;" d="M196 82L197 83L196 82z"/>
<path style="fill:#bbbab4; stroke:none;" d="M244 82L245 83L244 82z"/>
<path style="fill:#434341; stroke:none;" d="M285 82L286 83L285 82z"/>
<path style="fill:#a6a5a0; stroke:none;" d="M293 82L294 83L293 82z"/>
<path style="fill:#2b2a29; stroke:none;" d="M44 83L45 84L44 83z"/>
<path style="fill:#b5b3ae; stroke:none;" d="M196 83L197 84L196 83z"/>
<path style="fill:#c5c4be; stroke:none;" d="M276.333 83.6667C276.278 83.7222 276.222 84.7778 276.667 84.3333C276.722 84.2778 276.778 83.2222 276.333 83.6667z"/>
<path style="fill:#565552; stroke:none;" d="M318.333 83.6667C318.278 83.7222 318.222 84.7778 318.667 84.3333C318.722 84.2777 318.778 83.2223 318.333 83.6667z"/>
<path style="fill:#bbb9b3; stroke:none;" d="M326 83L327 84L326 83z"/>
<path style="fill:#ae99be; stroke:none;" d="M501 83L501 86C501.696 84.4463 501.696 84.5537 501 83z"/>
<path style="fill:#868581; stroke:none;" d="M44.3333 84.6667C44.2778 84.7222 44.2222 85.7778 44.6667 85.3333C44.7222 85.2778 44.7778 84.2222 44.3333 84.6667z"/>
<path style="fill:#292927; stroke:none;" d="M67.3333 84.6667C67.2777 84.7223 67.2222 85.7778 67.6667 85.3333C67.7222 85.2778 67.7778 84.2222 67.3333 84.6667z"/>
<path style="fill:#555451; stroke:none;" d="M75 84L76 85L75 84z"/>
<path style="fill:#c6c5bf; stroke:none;" d="M106 84L106 117C107.328 113.834 107 110.419 107 107C107 100.049 108.701 90.4358 106 84z"/>
<path style="fill:#888783; stroke:none;" d="M160 84L161 85L160 84z"/>
<path style="fill:#464543; stroke:none;" d="M168 84L169 85L168 84M243 84L244 85L243 84z"/>
<path style="fill:#424240; stroke:none;" d="M268 84L268 87C268.696 85.4463 268.696 85.5537 268 84z"/>
<path style="fill:#acaaa5; stroke:none;" d="M284 84L285 85L284 84z"/>
<path style="fill:#585755; stroke:none;" d="M292 84L293 85L292 84z"/>
<path style="fill:#7c7b77; stroke:none;" d="M326.333 84.6667C326.278 84.7222 326.222 85.7778 326.667 85.3333C326.722 85.2777 326.778 84.2223 326.333 84.6667z"/>
<path style="fill:#b5a2c3; stroke:none;" d="M473.333 84.6667C473.278 84.7222 473.222 85.7779 473.667 85.3333C473.722 85.2778 473.778 84.2223 473.333 84.6667z"/>
<path style="fill:#b6a5c3; stroke:none;" d="M573.667 84.3333C573.222 84.7777 574.278 84.7222 574.333 84.6667C574.778 84.2221 573.722 84.2778 573.667 84.3333z"/>
<path style="fill:#999893; stroke:none;" d="M75.3333 85.6667C75.2778 85.7223 75.2222 86.7778 75.6667 86.3333C75.7222 86.2778 75.7778 85.2222 75.3333 85.6667z"/>
<path style="fill:#2d2d2c; stroke:none;" d="M98 85L98 117L106 117C103.668 116.015 101.543 116.019 99 116C99 106.924 101.511 93.3668 98 85z"/>
<path style="fill:#92918d; stroke:none;" d="M140 85C141.248 85.6848 141.548 85.7488 143 86C141.752 85.3152 141.452 85.2512 140 85z"/>
<path style="fill:#4c4b49; stroke:none;" d="M143 85L144 86L143 85z"/>
<path style="fill:#0e0e0d; stroke:none;" d="M151 85L151 116C152.328 112.834 152 109.419 152 106C152 99.58 153.497 90.9508 151 85z"/>
<path style="fill:#30302e; stroke:none;" d="M160.333 85.6667C160.278 85.7222 160.222 86.7778 160.667 86.3333C160.722 86.2778 160.778 85.2222 160.333 85.6667z"/>
<path style="fill:#757471; stroke:none;" d="M168 85L169 86L168 85z"/>
<path style="fill:#3c3c3a; stroke:none;" d="M197 85L197 95C198.346 91.793 198.346 88.207 197 85z"/>
<path style="fill:#84837f; stroke:none;" d="M243.333 85.6667C243.278 85.7222 243.222 86.7778 243.667 86.3333C243.722 86.2777 243.778 85.2222 243.333 85.6667z"/>
<path style="fill:#a2a19c; stroke:none;" d="M276 85L276 101C277.812 96.6811 277.812 89.3189 276 85z"/>
<path style="fill:#7b7a76; stroke:none;" d="M284 85L285 86L284 85z"/>
<path style="fill:#8a8985; stroke:none;" d="M292 85L293 86L292 85z"/>
<path style="fill:#787773; stroke:none;" d="M318.333 85.6667C318.278 85.7222 318.222 86.7778 318.667 86.3333C318.722 86.2777 318.778 85.2223 318.333 85.6667z"/>
<path style="fill:#c0b2c9; stroke:none;" d="M355 85L355 88C355.696 86.4464 355.696 86.5536 355 85z"/>
<path style="fill:#5c2d91; stroke:none;" d="M520 139C525.45 139 532.84 140.299 538 138.397C544.171 136.121 549.453 128.547 554 124C558.333 119.667 562.637 115.304 567 111.002C568.792 109.234 571.203 106.056 574 106.056C576.797 106.056 579.208 109.234 581 111.002C585.363 115.304 589.667 119.667 594 124C598.547 128.547 603.829 136.121 610 138.397C615.16 140.299 622.549 139 628 139C617.596 124.231 601.776 111.776 589 99C585.662 95.6617 579.125 86.2068 574 86.2068C568.875 86.2068 562.338 95.6616 559 99C546.224 111.776 530.404 124.231 520 139z"/>
<path style="fill:#b8a7c4; stroke:none;" d="M575 85L576 86L575 85z"/>
<path style="fill:#b1afaa; stroke:none;" d="M44 86L44 116C46.3948 110.293 45.0004 102.154 45 96C44.9998 92.5814 45.3283 89.1656 44 86z"/>
<path style="fill:#4b4a48; stroke:none;" d="M67 86L67 117C69.497 111.049 68.0004 102.42 68 96C67.9998 92.5814 68.3283 89.1656 67 86z"/>
<path style="fill:#a6a49f; stroke:none;" d="M133.667 86.3333C133.222 86.7778 134.278 86.7222 134.333 86.6667C134.778 86.2222 133.722 86.2778 133.667 86.3333z"/>
<path style="fill:#5b5a57; stroke:none;" d="M135 86C136.248 86.6848 136.548 86.7488 138 87C136.752 86.3152 136.452 86.2512 135 86z"/>
<path style="fill:#a2a19c; stroke:none;" d="M168 86L169 87L168 86z"/>
<path style="fill:#2b2a29; stroke:none;" d="M284.333 86.6667C284.278 86.7222 284.222 87.7778 284.667 87.3333C284.722 87.2777 284.778 86.2223 284.333 86.6667z"/>
<path style="fill:#bcbbb5; stroke:none;" d="M292 86L293 87L292 86z"/>
<path style="fill:#5a5957; stroke:none;" d="M326 86L326 89C326.696 87.4463 326.696 87.5537 326 86z"/>
<path style="fill:#b8a7c4; stroke:none;" d="M576 86L577 87L576 86z"/>
<path style="fill:#b5b3ae; stroke:none;" d="M75 87L75 117C76.3283 113.834 75.9998 110.419 76 107C76.0004 100.846 77.3948 92.707 75 87z"/>
<path style="fill:#6d6c69; stroke:none;" d="M128.667 87.3333C128.222 87.7778 129.278 87.7222 129.333 87.6667C129.778 87.2222 128.722 87.2778 128.667 87.3333z"/>
<path style="fill:#232322; stroke:none;" d="M130.667 87.3333C130.222 87.7778 131.278 87.7222 131.333 87.6667C131.778 87.2222 130.722 87.2778 130.667 87.3333z"/>
<path style="fill:#a2a19c; stroke:none;" d="M243 87L243 116C244.328 112.834 244 109.419 244 106C244 100.113 245.292 92.4623 243 87z"/>
<path style="fill:#73726e; stroke:none;" d="M268 87L268 116C269.328 112.834 269 109.419 269 106C269 100.113 270.292 92.4623 268 87z"/>
<path style="fill:#c8bccd; stroke:none;" d="M364 87L364 90C364.696 88.4464 364.696 88.5536 364 87z"/>
<path style="fill:#b8a7c4; stroke:none;" d="M577 87L578 88L577 87z"/>
<path style="fill:#7d7c78; stroke:none;" d="M124 88L125 89L124 88z"/>
<path style="fill:#393937; stroke:none;" d="M125 88L126 89L125 88z"/>
<path style="fill:#7852a1; stroke:none;" d="M502 88L502 92C502.71 90.2405 502.71 89.7595 502 88z"/>
<path style="fill:#b8a7c4; stroke:none;" d="M578 88L579 89L578 88z"/>
<path style="fill:#8a8985; stroke:none;" d="M121 89L122 90L121 89z"/>
<path style="fill:#aaa9a4; stroke:none;" d="M159 89L159 94C159.83 91.9695 159.83 91.0305 159 89z"/>
<path style="fill:#363534; stroke:none;" d="M167 89L167 94C167.83 91.9695 167.83 91.0305 167 89z"/>
<path style="fill:#282826; stroke:none;" d="M326 89L326 94C326.83 91.9695 326.83 91.0305 326 89z"/>
<path style="fill:#7f5ca5; stroke:none;" d="M472 89L472 98C473.256 95.0059 473.256 91.9941 472 89z"/>
<path style="fill:#c5b7cb; stroke:none;" d="M510 89L510 92C510.696 90.4463 510.696 90.5537 510 89z"/>
<path style="fill:#b8a7c4; stroke:none;" d="M579 89L580 90L579 89z"/>
<path style="fill:#9f9e99; stroke:none;" d="M119 90L120 91L119 90z"/>
<path style="fill:#d2d0ca; stroke:none;" d="M283 90L283 94C283.71 92.2405 283.71 91.7595 283 90z"/>
<path style="fill:#b8a7c4; stroke:none;" d="M580 90L581 91L580 90z"/>
<path style="fill:#706f6c; stroke:none;" d="M118 91L119 92L118 91z"/>
<path style="fill:#5d5c59; stroke:none;" d="M142.667 91.3333C142.222 91.7778 143.278 91.7222 143.333 91.6667C143.778 91.2222 142.722 91.2778 142.667 91.3333z"/>
<path style="fill:#b8a7c4; stroke:none;" d="M581 91L582 92L581 91z"/>
<path style="fill:#565552; stroke:none;" d="M117 92L118 93L117 92z"/>
<path style="fill:#565653; stroke:none;" d="M135.667 92.3333C135.222 92.7778 136.278 92.7222 136.333 92.6667C136.778 92.2222 135.722 92.2778 135.667 92.3333z"/>
<path style="fill:#9b9995; stroke:none;" d="M137 92C138.248 92.6848 138.548 92.7488 140 93C138.752 92.3152 138.452 92.2512 137 92z"/>
<path style="fill:#e8e6df; stroke:none;" d="M144 92C140.328 92.2898 136.635 92.8182 133 93.4352C130.7 93.8256 128.133 94.1813 126.059 95.314C121.183 97.9767 120.462 105.865 125.148 109.141C131.48 113.568 140.377 108.286 142.852 101.999C144.107 98.8107 143.991 95.3629 144 92z"/>
<path style="fill:#20201f; stroke:none;" d="M144 92L144 97C144.83 94.9695 144.83 94.0305 144 92z"/>
<path style="fill:#c0b1c9; stroke:none;" d="M356.333 92.6667C356.278 92.7222 356.222 93.7778 356.667 93.3333C356.722 93.2777 356.778 92.2223 356.333 92.6667z"/>
<path style="fill:#b8a7c4; stroke:none;" d="M582 92L583 93L582 92z"/>
<path style="fill:#5c5b58; stroke:none;" d="M116 93L117 94L116 93z"/>
<path style="fill:#2e2e2d; stroke:none;" d="M129 93L130 94L129 93z"/>
<path style="fill:#605f5c; stroke:none;" d="M130 93L131 94L130 93z"/>
<path style="fill:#b5b3ae; stroke:none;" d="M131.667 93.3333C131.222 93.7778 132.278 93.7222 132.333 93.6667C132.778 93.2222 131.722 93.2778 131.667 93.3333z"/>
<path style="fill:#9679b1; stroke:none;" d="M365.333 93.6667C365.278 93.7222 365.222 94.7778 365.667 94.3333C365.722 94.2778 365.778 93.2223 365.333 93.6667z"/>
<path style="fill:#b8a7c4; stroke:none;" d="M583 93L584 94L583 93z"/>
<path style="fill:#787773; stroke:none;" d="M115 94L116 95L115 94z"/>
<path style="fill:#535250; stroke:none;" d="M126 94L127 95L126 94z"/>
<path style="fill:#abaaa4; stroke:none;" d="M127 94L128 95L127 94z"/>
<path style="fill:#cccac4; stroke:none;" d="M159 94L159 97C159.696 95.4463 159.696 95.5537 159 94z"/>
<path style="fill:#b6b4af; stroke:none;" d="M292.333 94.6667C292.278 94.7222 292.222 95.7778 292.667 95.3333C292.722 95.2778 292.778 94.2222 292.333 94.6667z"/>
<path style="fill:#764f9f; stroke:none;" d="M509 94L509 97C509.696 95.4463 509.696 95.5537 509 94z"/>
<path style="fill:#b8a7c4; stroke:none;" d="M584 94L585 95L584 94z"/>
<path style="fill:#464543; stroke:none;" d="M124 95L125 96L124 95z"/>
<path style="fill:#a790ba; stroke:none;" d="M357.333 95.6667C357.278 95.7222 357.222 96.7778 357.667 96.3333C357.722 96.2777 357.778 95.2223 357.333 95.6667z"/>
<path style="fill:#b8a7c4; stroke:none;" d="M585 95L586 96L585 95z"/>
<path style="fill:#5c5b58; stroke:none;" d="M114 96L115 97L114 96z"/>
<path style="fill:#686764; stroke:none;" d="M123 96L124 97L123 96z"/>
<path style="fill:#2f2f2d; stroke:none;" d="M284 96L284 99C284.696 97.4463 284.696 97.5537 284 96z"/>
<path style="fill:#908f8a; stroke:none;" d="M292 96L292 99C292.696 97.4463 292.696 97.5537 292 96z"/>
<path style="fill:#a892bc; stroke:none;" d="M366 96L367 97L366 96z"/>
<path style="fill:#a891bc; stroke:none;" d="M501 96L501 99C501.696 97.4463 501.696 97.5537 501 96z"/>
<path style="fill:#b8a7c4; stroke:none;" d="M586 96L587 97L586 96z"/>
<path style="fill:#464543; stroke:none;" d="M122 97L123 98L122 97z"/>
<path style="fill:#cabfcf; stroke:none;" d="M445 97L445 100C445.696 98.4463 445.696 98.5537 445 97z"/>
<path style="fill:#b8a7c4; stroke:none;" d="M509.333 97.6667C509.278 97.7222 509.222 98.7778 509.667 98.3333C509.722 98.2777 509.778 97.2223 509.333 97.6667M587 97L588 98L587 97z"/>
<path style="fill:#a3a19d; stroke:none;" d="M113 98L114 99L113 98z"/>
<path style="fill:#9f9e99; stroke:none;" d="M168 98L169 99L168 98z"/>
<path style="fill:#bbbab4; stroke:none;" d="M196 98L197 99L196 98z"/>
<path style="fill:#9073ae; stroke:none;" d="M358 98L359 99L358 98z"/>
<path style="fill:#baaac5; stroke:none;" d="M367 98L368 99L367 98z"/>
<path style="fill:#7d59a4; stroke:none;" d="M413 98L413 103C413.83 100.97 413.83 100.03 413 98z"/>
<path style="fill:#b8a7c4; stroke:none;" d="M588 98L589 99L588 98z"/>
<path style="fill:#676663; stroke:none;" d="M113 99L114 100L113 99z"/>
<path style="fill:#3c3c3a; stroke:none;" d="M121 99L122 100L121 99z"/>
<path style="fill:#393937; stroke:none;" d="M160 99L161 100L160 99z"/>
<path style="fill:#6d6c69; stroke:none;" d="M168 99L169 100L168 99z"/>
<path style="fill:#82817d; stroke:none;" d="M196 99L197 100L196 99z"/>
<path style="fill:#7d7c78; stroke:none;" d="M284 99L285 100L284 99z"/>
<path style="fill:#2b2a29; stroke:none;" d="M292 99L293 100L292 99z"/>
<path style="fill:#b8a7c4; stroke:none;" d="M589 99L590 100L589 99z"/>
<path style="fill:#9c9b96; stroke:none;" d="M121 100L121 105C121.83 102.97 121.83 102.03 121 100z"/>
<path style="fill:#93928e; stroke:none;" d="M143 100L144 101L143 100z"/>
<path style="fill:#6d6c69; stroke:none;" d="M160 100L161 101L160 100z"/>
<path style="fill:#363534; stroke:none;" d="M168 100L169 101L168 100z"/>
<path style="fill:#4a4947; stroke:none;" d="M196 100L197 101L196 100z"/>
<path style="fill:#aaa9a4; stroke:none;" d="M284 100L285 101L284 100z"/>
<path style="fill:#8c6cab; stroke:none;" d="M359 100L360 101L359 100z"/>
<path style="fill:#8c6cac; stroke:none;" d="M368 100L369 101L368 100z"/>
<path style="fill:#b29fc1; stroke:none;" d="M421 100L421 103C421.696 101.446 421.696 101.554 421 100z"/>
<path style="fill:#744d9e; stroke:none;" d="M445.333 100.667C445.278 100.722 445.222 101.778 445.667 101.333C445.722 101.278 445.778 100.222 445.333 100.667z"/>
<path style="fill:#987cb2; stroke:none;" d="M473.333 100.667C473.278 100.722 473.222 101.778 473.667 101.333C473.722 101.278 473.778 100.222 473.333 100.667z"/>
<path style="fill:#bbabc6; stroke:none;" d="M500 100L501 101L500 100z"/>
<path style="fill:#b8a7c4; stroke:none;" d="M590 100L591 101L590 100z"/>
<path style="fill:#656461; stroke:none;" d="M143 101L144 102L143 101z"/>
<path style="fill:#9a9894; stroke:none;" d="M160 101L161 102L160 101z"/>
<path style="fill:#b0aea9; stroke:none;" d="M169 101L170 102L169 101z"/>
<path style="fill:#93928e; stroke:none;" d="M276 101L276 116C277.74 111.852 277.74 105.148 276 101z"/>
<path style="fill:#969590; stroke:none;" d="M293 101L294 102L293 101z"/>
<path style="fill:#a891bb; stroke:none;" d="M369 101L370 102L369 101z"/>
<path style="fill:#9173af; stroke:none;" d="M500 101L501 102L500 101z"/>
<path style="fill:#b8a7c4; stroke:none;" d="M591 101L592 102L591 101z"/>
<path style="fill:#555451; stroke:none;" d="M169 102L170 103L169 102z"/>
<path style="fill:#757471; stroke:none;" d="M195 102L196 103L195 102z"/>
<path style="fill:#393937; stroke:none;" d="M285 102L286 103L285 102z"/>
<path style="fill:#3c3c3a; stroke:none;" d="M293 102L294 103L293 102z"/>
<path style="fill:#8765a8; stroke:none;" d="M360 102L361 103L360 102z"/>
<path style="fill:#bfaec8; stroke:none;" d="M444 102L445 103L444 102z"/>
<path style="fill:#b6a4c3; stroke:none;" d="M508 102L509 103L508 102z"/>
<path style="fill:#b8a7c4; stroke:none;" d="M592 102L593 103L592 102z"/>
<path style="fill:#999893; stroke:none;" d="M142 103L143 104L142 103z"/>
<path style="fill:#7f7e7a; stroke:none;" d="M285 103L286 104L285 103z"/>
<path style="fill:#b8b6b1; stroke:none;" d="M294 103L295 104L294 103z"/>
<path style="fill:#8664a8; stroke:none;" d="M444 103L445 104L444 103z"/>
<path style="fill:#a289b7; stroke:none;" d="M474 103L475 104L474 103z"/>
<path style="fill:#9073af; stroke:none;" d="M499 103L500 104L499 103z"/>
<path style="fill:#b8a7c4; stroke:none;" d="M593 103L594 104L593 103z"/>
<path style="fill:#84837f; stroke:none;" d="M161 104L162 105L161 104z"/>
<path style="fill:#373735; stroke:none;" d="M170 104L171 105L170 104z"/>
<path style="fill:#63625f; stroke:none;" d="M194 104L195 105L194 104z"/>
<path style="fill:#2b2a29; stroke:none;" d="M294 104L295 105L294 104z"/>
<path style="fill:#b09dc0; stroke:none;" d="M361 104L362 105L361 104z"/>
<path style="fill:#baa8c5; stroke:none;" d="M422 104L423 105L422 104z"/>
<path style="fill:#bcacc6; stroke:none;" d="M443 104L444 105L443 104z"/>
<path style="fill:#b3a0c1; stroke:none;" d="M498 104L499 105L498 104z"/>
<path style="fill:#a38bb9; stroke:none;" d="M507 104L508 105L507 104z"/>
<path style="fill:#b4a1c2; stroke:none;" d="M573.667 104.333C573.222 104.778 574.278 104.722 574.333 104.667C574.778 104.222 573.722 104.278 573.667 104.333z"/>
<path style="fill:#b8a7c4; stroke:none;" d="M594 104L595 105L594 104z"/>
<path style="fill:#4d4d4a; stroke:none;" d="M113.333 105.667C113.278 105.722 113.222 106.778 113.667 106.333C113.722 106.278 113.778 105.222 113.333 105.667z"/>
<path style="fill:#3f3e3c; stroke:none;" d="M121 105L122 106L121 105z"/>
<path style="fill:#7b7a76; stroke:none;" d="M141 105L142 106L141 105z"/>
<path style="fill:#898884; stroke:none;" d="M171 105L172 106L171 105z"/>
<path style="fill:#a2a19c; stroke:none;" d="M193 105L194 106L193 105z"/>
<path style="fill:#595856; stroke:none;" d="M286 105L287 106L286 105z"/>
<path style="fill:#6f6e6b; stroke:none;" d="M295 105L296 106L295 105z"/>
<path style="fill:#9477b0; stroke:none;" d="M362 105L363 106L362 105z"/>
<path style="fill:#b19ec1; stroke:none;" d="M373 105L374 106L373 105z"/>
<path style="fill:#9476b0; stroke:none;" d="M572 105L573 106L572 105z"/>
<path style="fill:#b4a2c2; stroke:none;" d="M575 105L576 106L575 105z"/>
<path style="fill:#b8a7c4; stroke:none;" d="M595 105L596 106L595 105z"/>
<path style="fill:#a9a8a3; stroke:none;" d="M140 106L141 107L140 106z"/>
<path style="fill:#62615e; stroke:none;" d="M162 106L163 107L162 106z"/>
<path style="fill:#adaba6; stroke:none;" d="M172 106L173 107L172 106z"/>
<path style="fill:#a8a7a2; stroke:none;" d="M192 106L193 107L192 106z"/>
<path style="fill:#9d9c97; stroke:none;" d="M296 106L297 107L296 106z"/>
<path style="fill:#575754; stroke:none;" d="M322 106L323 107L322 106z"/>
<path style="fill:#8d8c88; stroke:none;" d="M323 106L323 113C324.059 110.466 324.059 108.534 323 106z"/>
<path style="fill:#9679b1; stroke:none;" d="M374 106L375 107L374 106z"/>
<path style="fill:#70479c; stroke:none;" d="M405 106L406 110C406.751 107.954 406.656 107.404 405 106z"/>
<path style="fill:#9a7eb3; stroke:none;" d="M414 106L415 107L414 106z"/>
<path style="fill:#b4a2c3; stroke:none;" d="M423 106L424 107L423 106z"/>
<path style="fill:#9a7eb4; stroke:none;" d="M442 106L443 107L442 106z"/>
<path style="fill:#9477b0; stroke:none;" d="M476 106L477 107L476 106z"/>
<path style="fill:#987cb2; stroke:none;" d="M506 106L507 107L506 106z"/>
<path style="fill:#9476b0; stroke:none;" d="M571 106L572 107L571 106z"/>
<path style="fill:#b4a2c2; stroke:none;" d="M576 106L577 107L576 106z"/>
<path style="fill:#b8a7c4; stroke:none;" d="M596 106L597 107L596 106z"/>
<path style="fill:#888682; stroke:none;" d="M113 107L114 108L113 107z"/>
<path style="fill:#403f3d; stroke:none;" d="M122 107L123 108L122 107z"/>
<path style="fill:#a6a5a0; stroke:none;" d="M139 107L140 108L139 107z"/>
<path style="fill:#b5b3ae; stroke:none;" d="M173 107L174 108L173 107z"/>
<path style="fill:#93928e; stroke:none;" d="M191 107L192 108L191 107z"/>
<path style="fill:#5b5a57; stroke:none;" d="M287 107L288 108L287 107z"/>
<path style="fill:#908f8a; stroke:none;" d="M297 107L298 108L297 107z"/>
<path style="fill:#b3b2ac; stroke:none;" d="M320 107L321 108L320 107z"/>
<path style="fill:#9c82b4; stroke:none;" d="M376 107L377 108L376 107z"/>
<path style="fill:#967ab2; stroke:none;" d="M403 107L404 108L403 107z"/>
<path style="fill:#a289b7; stroke:none;" d="M441 107L442 108L441 107M477 107L478 108L477 107z"/>
<path style="fill:#9679b1; stroke:none;" d="M496 107L497 108L496 107z"/>
<path style="fill:#9476b0; stroke:none;" d="M570 107L571 108L570 107z"/>
<path style="fill:#b4a2c2; stroke:none;" d="M577 107L578 108L577 107z"/>
<path style="fill:#b8a7c4; stroke:none;" d="M597 107L598 108L597 107z"/>
<path style="fill:#605f5c; stroke:none;" d="M123 108L124 109L123 108z"/>
<path style="fill:#83827e; stroke:none;" d="M138 108L139 109L138 108z"/>
<path style="fill:#6a6965; stroke:none;" d="M163 108L164 109L163 108z"/>
<path style="fill:#93928e; stroke:none;" d="M174 108L175 109L174 108z"/>
<path style="fill:#62615e; stroke:none;" d="M190 108L191 109L190 108z"/>
<path style="fill:#3c3c3a; stroke:none;" d="M196 108L197 114C198.039 111.471 198.093 109.824 196 108z"/>
<path style="fill:#706f6c; stroke:none;" d="M298 108L299 109L298 108z"/>
<path style="fill:#b5b3ae; stroke:none;" d="M318 108L319 109L318 108z"/>
<path style="fill:#545350; stroke:none;" d="M319 108L320 109L319 108z"/>
<path style="fill:#a68fba; stroke:none;" d="M364 108L365 109L364 108z"/>
<path style="fill:#c5b7cb; stroke:none;" d="M378.667 108.333C378.222 108.778 379.278 108.722 379.333 108.667C379.778 108.222 378.722 108.278 378.667 108.333z"/>
<path style="fill:#7a55a2; stroke:none;" d="M400.667 108.333C400.222 108.778 401.278 108.722 401.333 108.667C401.778 108.222 400.722 108.278 400.667 108.333z"/>
<path style="fill:#bbabc6; stroke:none;" d="M425 108L426 109L425 108z"/>
<path style="fill:#a289b7; stroke:none;" d="M440 108L441 109L440 108z"/>
<path style="fill:#9477b0; stroke:none;" d="M478 108L479 109L478 108z"/>
<path style="fill:#8f70ac; stroke:none;" d="M495 108L496 109L495 108z"/>
<path style="fill:#b3a0c1; stroke:none;" d="M505 108L506 109L505 108z"/>
<path style="fill:#9476b0; stroke:none;" d="M569 108L570 109L569 108z"/>
<path style="fill:#b4a2c2; stroke:none;" d="M578 108L579 109L578 108M598 108L599 109L598 108z"/>
<path style="fill:#30302e; stroke:none;" d="M114 109L115 110L114 109z"/>
<path style="fill:#3c3c3a; stroke:none;" d="M124 109L125 110L124 109z"/>
<path style="fill:#a8a7a2; stroke:none;" d="M136 109L137 110L136 109z"/>
<path style="fill:#2b2a29; stroke:none;" d="M137 109L138 110L137 109z"/>
<path style="fill:#a3a19d; stroke:none;" d="M143 109L144 110L143 109z"/>
<path style="fill:#2b2a29; stroke:none;" d="M164 109L165 110L164 109z"/>
<path style="fill:#333331; stroke:none;" d="M175 109L176 110L175 109z"/>
<path style="fill:#b6b4af; stroke:none;" d="M176 109L177 110L176 109z"/>
<path style="fill:#92908c; stroke:none;" d="M188 109L189 110L188 109z"/>
<path style="fill:#b7b5b0; stroke:none;" d="M196 109L197 110L196 109z"/>
<path style="fill:#9b9995; stroke:none;" d="M288 109L289 110L288 109z"/>
<path style="fill:#81807c; stroke:none;" d="M300 109L301 110L300 109z"/>
<path style="fill:#8d8c88; stroke:none;" d="M316 109L317 110L316 109z"/>
<path style="fill:#b5a3c3; stroke:none;" d="M365 109L366 110L365 109z"/>
<path style="fill:#9073af; stroke:none;" d="M381 109L382 110L381 109z"/>
<path style="fill:#bbabc6; stroke:none;" d="M382 109L383 110L382 109z"/>
<path style="fill:#ab96bd; stroke:none;" d="M395 109C396.248 109.685 396.548 109.749 398 110C396.752 109.315 396.452 109.251 395 109z"/>
<path style="fill:#a289b7; stroke:none;" d="M415 109L416 110L415 109z"/>
<path style="fill:#9578b0; stroke:none;" d="M426 109L427 110L426 109z"/>
<path style="fill:#baaac5; stroke:none;" d="M438 109L439 110L438 109z"/>
<path style="fill:#7f5ca5; stroke:none;" d="M472 109L472 139C475.714 130.149 471.746 118.467 474 109L472 109z"/>
<path style="fill:#a289b7; stroke:none;" d="M480 109L481 110L480 109z"/>
<path style="fill:#ac96bd; stroke:none;" d="M493 109L494 110L493 109z"/>
<path style="fill:#8a6bab; stroke:none;" d="M504 109L505 110L504 109z"/>
<path style="fill:#977bb2; stroke:none;" d="M568 109L569 110L568 109z"/>
<path style="fill:#b8a7c4; stroke:none;" d="M579 109L580 110L579 109z"/>
<path style="fill:#b4a2c2; stroke:none;" d="M599 109L600 110L599 109z"/>
<path style="fill:#a6a49f; stroke:none;" d="M114 110L115 111L114 110z"/>
<path style="fill:#565653; stroke:none;" d="M126 110L127 111L126 110z"/>
<path style="fill:#a5a39e; stroke:none;" d="M127 110L128 111L127 110z"/>
<path style="fill:#a6a49f; stroke:none;" d="M132.667 110.333C132.222 110.778 133.278 110.722 133.333 110.667C133.778 110.222 132.722 110.278 132.667 110.333z"/>
<path style="fill:#656461; stroke:none;" d="M134 110L135 111L134 110z"/>
<path style="fill:#5d5c59; stroke:none;" d="M142 110L143 111L142 110z"/>
<path style="fill:#757471; stroke:none;" d="M178 110L179 111L178 110z"/>
<path style="fill:#c6c5bf; stroke:none;" d="M179.667 110.333C179.222 110.778 180.278 110.722 180.333 110.667C180.778 110.222 179.722 110.278 179.667 110.333z"/>
<path style="fill:#bebdb7; stroke:none;" d="M183 110C184.248 110.685 184.548 110.749 186 111C184.752 110.315 184.452 110.251 183 110z"/>
<path style="fill:#575754; stroke:none;" d="M186 110L187 111L186 110z"/>
<path style="fill:#777673; stroke:none;" d="M195 110L196 111L195 110z"/>
<path style="fill:#6e6d6a; stroke:none;" d="M289 110L290 111L289 110z"/>
<path style="fill:#4c4b49; stroke:none;" d="M302 110L303 111L302 110z"/>
<path style="fill:#979691; stroke:none;" d="M303 110L304 111L303 110z"/>
<path style="fill:#878581; stroke:none;" d="M313 110L314 111L313 110z"/>
<path style="fill:#3b3b39; stroke:none;" d="M314 110L315 111L314 110z"/>
<path style="fill:#977bb1; stroke:none;" d="M385 110C387.052 110.874 388.747 110.953 391 111C388.948 110.126 387.253 110.047 385 110z"/>
<path style="fill:#ae99be; stroke:none;" d="M428.667 110.333C428.222 110.778 429.278 110.722 429.333 110.667C429.778 110.222 428.722 110.278 428.667 110.333z"/>
<path style="fill:#c5b7cb; stroke:none;" d="M434.667 110.333C434.222 110.778 435.278 110.722 435.333 110.667C435.778 110.222 434.722 110.278 434.667 110.333z"/>
<path style="fill:#754e9f; stroke:none;" d="M436.667 110.333C436.222 110.778 437.278 110.722 437.333 110.667C437.778 110.222 436.722 110.278 436.667 110.333z"/>
<path style="fill:#a68eba; stroke:none;" d="M444 110L445 111L444 110z"/>
<path style="fill:#ae99be; stroke:none;" d="M482.667 110.333C482.222 110.778 483.278 110.722 483.333 110.667C483.778 110.222 482.722 110.278 482.667 110.333z"/>
<path style="fill:#b8a7c4; stroke:none;" d="M489.667 110.333C489.222 110.778 490.278 110.722 490.333 110.667C490.778 110.222 489.722 110.278 489.667 110.333z"/>
<path style="fill:#977bb2; stroke:none;" d="M567 110L568 111L567 110z"/>
<path style="fill:#b8a7c4; stroke:none;" d="M580 110L581 111L580 110z"/>
<path style="fill:#b4a2c2; stroke:none;" d="M600 110L601 111L600 110z"/>
<path style="fill:#373634; stroke:none;" d="M115 111L116 112L115 111z"/>
<path style="fill:#3a3a38; stroke:none;" d="M141 111L142 112L141 111z"/>
<path style="fill:#b5b3ae; stroke:none;" d="M165 111L166 112L165 111z"/>
<path style="fill:#676663; stroke:none;" d="M194 111L195 112L194 111z"/>
<path style="fill:#5e5d5a; stroke:none;" d="M290 111L291 112L290 111z"/>
<path style="fill:#2f2f2d; stroke:none;" d="M306 111C307.506 111.683 308.315 111.826 310 112C308.494 111.317 307.685 111.174 306 111z"/>
<path style="fill:#977bb2; stroke:none;" d="M566 111L567 112L566 111z"/>
<path style="fill:#b8a7c4; stroke:none;" d="M581 111L582 112L581 111z"/>
<path style="fill:#b4a2c2; stroke:none;" d="M601 111L602 112L601 111z"/>
<path style="fill:#b1afaa; stroke:none;" d="M166 112L167 113L166 112z"/>
<path style="fill:#686764; stroke:none;" d="M193 112L194 113L193 112z"/>
<path style="fill:#6d6c69; stroke:none;" d="M291 112L292 113L291 112z"/>
<path style="fill:#a086b7; stroke:none;" d="M369 112L370 113L369 112z"/>
<path style="fill:#a289b7; stroke:none;" d="M417 112L418 113L417 112z"/>
<path style="fill:#b6a4c3; stroke:none;" d="M475 112L476 113L475 112z"/>
<path style="fill:#977bb2; stroke:none;" d="M565 112L566 113L565 112z"/>
<path style="fill:#b8a7c4; stroke:none;" d="M582 112L583 113L582 112z"/>
<path style="fill:#b4a2c2; stroke:none;" d="M602 112L603 113L602 112z"/>
<path style="fill:#b4b3ad; stroke:none;" d="M167 113L168 114L167 113z"/>
<path style="fill:#767572; stroke:none;" d="M192 113L193 114L192 113z"/>
<path style="fill:#868581; stroke:none;" d="M292 113L293 114L292 113z"/>
<path style="fill:#71706c; stroke:none;" d="M322 113L323 114L322 113z"/>
<path style="fill:#967ab1; stroke:none;" d="M371 113L372 114L371 113z"/>
<path style="fill:#ab96bd; stroke:none;" d="M418 113L419 114L418 113z"/>
<path style="fill:#ae99be; stroke:none;" d="M476 113L477 114L476 113z"/>
<path style="fill:#977bb2; stroke:none;" d="M564 113L565 114L564 113z"/>
<path style="fill:#b8a7c4; stroke:none;" d="M583 113L584 114L583 113z"/>
<path style="fill:#b4a2c2; stroke:none;" d="M603 113L604 114L603 113z"/>
<path style="fill:#363534; stroke:none;" d="M118 114L119 115L118 114z"/>
<path style="fill:#3d3c3b; stroke:none;" d="M138 114L139 115L138 114z"/>
<path style="fill:#4c4b49; stroke:none;" d="M169 114L170 115L169 114z"/>
<path style="fill:#a9a8a3; stroke:none;" d="M191 114L192 115L191 114z"/>
<path style="fill:#1e1e1d; stroke:none;" d="M197.333 114.667C197.278 114.722 197.222 115.778 197.667 115.333C197.722 115.278 197.778 114.222 197.333 114.667z"/>
<path style="fill:#bcbbb5; stroke:none;" d="M293 114L294 115L293 114z"/>
<path style="fill:#3c3c3a; stroke:none;" d="M294 114L295 115L294 114z"/>
<path style="fill:#52514f; stroke:none;" d="M320 114L321 115L320 114z"/>
<path style="fill:#8c6cac; stroke:none;" d="M373 114L374 115L373 114z"/>
<path style="fill:#ae9abf; stroke:none;" d="M405 114L406 115L405 114z"/>
<path style="fill:#b5a2c3; stroke:none;" d="M419 114L420 115L419 114z"/>
<path style="fill:#b4a0c2; stroke:none;" d="M499 114L500 115L499 114z"/>
<path style="fill:#9c82b4; stroke:none;" d="M563 114L564 115L563 114z"/>
<path style="fill:#bbabc6; stroke:none;" d="M584 114L585 115L584 114z"/>
<path style="fill:#b4a2c2; stroke:none;" d="M604 114L605 115L604 114z"/>
<path style="fill:#73726e; stroke:none;" d="M119 115L120 116L119 115z"/>
<path style="fill:#8b8a86; stroke:none;" d="M137 115L138 116L137 115z"/>
<path style="fill:#abaaa4; stroke:none;" d="M170 115L171 116L170 115z"/>
<path style="fill:#858480; stroke:none;" d="M189 115L190 116L189 115z"/>
<path style="fill:#a8a7a2; stroke:none;" d="M295 115L296 116L295 115z"/>
<path style="fill:#333331; stroke:none;" d="M296 115L297 116L296 115z"/>
<path style="fill:#72716d; stroke:none;" d="M318 115L319 116L318 115z"/>
<path style="fill:#a086b7; stroke:none;" d="M374.667 115.333C374.222 115.778 375.278 115.722 375.333 115.667C375.778 115.222 374.722 115.278 374.667 115.333z"/>
<path style="fill:#c3b6ca; stroke:none;" d="M402.667 115.333C402.222 115.778 403.278 115.722 403.333 115.667C403.778 115.222 402.722 115.278 402.667 115.333z"/>
<path style="fill:#a289b7; stroke:none;" d="M421 115L422 116L421 115M439 115L440 116L439 115z"/>
<path style="fill:#977bb1; stroke:none;" d="M479 115L480 116L479 115z"/>
<path style="fill:#a68eba; stroke:none;" d="M497 115L498 116L497 115z"/>
<path style="fill:#9c82b4; stroke:none;" d="M562 115L563 116L562 115z"/>
<path style="fill:#bbabc6; stroke:none;" d="M585 115L586 116L585 115z"/>
<path style="fill:#b4a2c2; stroke:none;" d="M605 115L606 116L605 115z"/>
<path style="fill:#74736f; stroke:none;" d="M16 116C18.6127 117.098 21.1645 116.993 24 117C21.3873 115.902 18.8355 116.007 16 116M36 116C38.6127 117.098 41.1645 116.993 44 117C41.3873 115.902 38.8355 116.007 36 116z"/>
<path style="fill:#393937; stroke:none;" d="M68 116C70.3315 116.985 72.4567 116.981 75 117C72.6684 116.015 70.5434 116.019 68 116z"/>
<path style="fill:#7e7c79; stroke:none;" d="M121 116L122 117L121 116z"/>
<path style="fill:#646360; stroke:none;" d="M134 116L135 117L134 116z"/>
<path style="fill:#b7b5b0; stroke:none;" d="M135 116L136 117L135 116z"/>
<path style="fill:#74736f; stroke:none;" d="M144 116C146.613 117.098 149.164 116.993 152 117C149.387 115.902 146.836 116.007 144 116z"/>
<path style="fill:#aaa9a4; stroke:none;" d="M172 116L173 117L172 116z"/>
<path style="fill:#4e4e4b; stroke:none;" d="M173 116L174 117L173 116z"/>
<path style="fill:#575754; stroke:none;" d="M186 116L187 117L186 116z"/>
<path style="fill:#a3a19d; stroke:none;" d="M187 116L188 117L187 116z"/>
<path style="fill:#74736f; stroke:none;" d="M216 116C218.613 117.098 221.164 116.993 224 117C221.387 115.902 218.835 116.007 216 116z"/>
<path style="fill:#a3a19d; stroke:none;" d="M235 116L236 117L235 116z"/>
<path style="fill:#74736f; stroke:none;" d="M236 116C238.332 116.985 240.457 116.981 243 117C240.668 116.015 238.543 116.019 236 116z"/>
<path style="fill:#aeaca7; stroke:none;" d="M268 116L269 117L268 116z"/>
<path style="fill:#74736f; stroke:none;" d="M269 116C271.332 116.985 273.457 116.981 276 117C273.668 116.015 271.543 116.019 269 116z"/>
<path style="fill:#bcbbb5; stroke:none;" d="M276 116L277 117L276 116z"/>
<path style="fill:#b9b7b2; stroke:none;" d="M297 116L298 117L297 116z"/>
<path style="fill:#696865; stroke:none;" d="M298 116L299 117L298 116z"/>
<path style="fill:#30302e; stroke:none;" d="M314 116L315 117L314 116z"/>
<path style="fill:#646360; stroke:none;" d="M315 116L316 117L315 116z"/>
<path style="fill:#b0aea9; stroke:none;" d="M316 116L317 117L316 116z"/>
<path style="fill:#8f71ad; stroke:none;" d="M378.667 116.333C378.222 116.778 379.278 116.722 379.333 116.667C379.778 116.222 378.722 116.278 378.667 116.333z"/>
<path style="fill:#b3a0c1; stroke:none;" d="M398.667 116.333C398.222 116.778 399.278 116.722 399.333 116.667C399.778 116.222 398.722 116.278 398.667 116.333z"/>
<path style="fill:#8f71ad; stroke:none;" d="M423.667 116.333C423.222 116.778 424.278 116.722 424.333 116.667C424.778 116.222 423.722 116.278 423.667 116.333z"/>
<path style="fill:#b19dc1; stroke:none;" d="M437 116L438 117L437 116z"/>
<path style="fill:#a289b7; stroke:none;" d="M446 116C448.613 117.098 451.165 116.993 454 117C451.387 115.902 448.836 116.007 446 116z"/>
<path style="fill:#baaac5; stroke:none;" d="M481 116L482 117L481 116z"/>
<path style="fill:#8664a8; stroke:none;" d="M482 116L483 117L482 116z"/>
<path style="fill:#cbbfcf; stroke:none;" d="M494.667 116.333C494.222 116.778 495.278 116.722 495.333 116.667C495.778 116.222 494.722 116.278 494.667 116.333z"/>
<path style="fill:#9c82b4; stroke:none;" d="M561 116L562 117L561 116z"/>
<path style="fill:#bbabc6; stroke:none;" d="M586 116L587 117L586 116z"/>
<path style="fill:#b4a2c2; stroke:none;" d="M606 116L607 117L606 116z"/>
<path style="fill:#9c9b96; stroke:none;" d="M124 117L125 118L124 117z"/>
<path style="fill:#5d5c59; stroke:none;" d="M125.667 117.333C125.222 117.778 126.278 117.722 126.333 117.667C126.778 117.222 125.722 117.278 125.667 117.333z"/>
<path style="fill:#3d3c3b; stroke:none;" d="M127 117C128.248 117.685 128.548 117.749 130 118C128.752 117.315 128.452 117.251 127 117z"/>
<path style="fill:#8d8c88; stroke:none;" d="M130.667 117.333C130.222 117.778 131.278 117.722 131.333 117.667C131.778 117.222 130.722 117.278 130.667 117.333z"/>
<path style="fill:#979691; stroke:none;" d="M175.667 117.333C175.222 117.778 176.278 117.722 176.333 117.667C176.778 117.222 175.722 117.278 175.667 117.333z"/>
<path style="fill:#74736f; stroke:none;" d="M177 117C179.332 117.985 181.457 117.981 184 118C181.668 117.015 179.543 117.019 177 117z"/>
<path style="fill:#383836; stroke:none;" d="M204 117L204 120C204.696 118.446 204.696 118.554 204 117z"/>
<path style="fill:#a6a49f; stroke:none;" d="M301 117L302 118L301 117z"/>
<path style="fill:#72716d; stroke:none;" d="M302 117L303 118L302 117z"/>
<path style="fill:#393937; stroke:none;" d="M303 117C304.506 117.683 305.315 117.826 307 118C305.494 117.317 304.685 117.174 303 117z"/>
<path style="fill:#545350; stroke:none;" d="M307 117C308.248 117.685 308.548 117.749 310 118C308.752 117.315 308.452 117.251 307 117z"/>
<path style="fill:#807f7b; stroke:none;" d="M310.667 117.333C310.222 117.778 311.278 117.722 311.333 117.667C311.778 117.222 310.722 117.278 310.667 117.333z"/>
<path style="fill:#b3b2ac; stroke:none;" d="M312 117L313 118L312 117z"/>
<path style="fill:#c0b1c8; stroke:none;" d="M382 117C383.248 117.685 383.548 117.749 385 118C383.752 117.315 383.452 117.251 382 117z"/>
<path style="fill:#8360a6; stroke:none;" d="M385 117C386.506 117.683 387.315 117.826 389 118C387.494 117.317 386.685 117.174 385 117z"/>
<path style="fill:#9c82b5; stroke:none;" d="M389 117C390.769 117.779 392.036 117.912 394 118C392.231 117.221 390.964 117.088 389 117z"/>
<path style="fill:#b4a2c2; stroke:none;" d="M426 117C427.248 117.685 427.548 117.749 429 118C427.752 117.315 427.452 117.251 426 117z"/>
<path style="fill:#8360a6; stroke:none;" d="M429 117C430.248 117.685 430.548 117.749 432 118C430.752 117.315 430.452 117.251 429 117z"/>
<path style="fill:#a992bc; stroke:none;" d="M432 117C433.506 117.683 434.315 117.826 436 118C434.494 117.317 433.685 117.174 432 117z"/>
<path style="fill:#c5b7cb; stroke:none;" d="M484.667 117.333C484.222 117.778 485.278 117.722 485.333 117.667C485.778 117.222 484.722 117.278 484.667 117.333z"/>
<path style="fill:#a68fba; stroke:none;" d="M486 117C487.248 117.685 487.548 117.749 489 118C487.752 117.315 487.451 117.251 486 117z"/>
<path style="fill:#c9bdce; stroke:none;" d="M489 117C490.248 117.685 490.548 117.749 492 118C490.752 117.315 490.452 117.251 489 117z"/>
<path style="fill:#9c82b4; stroke:none;" d="M560 117L561 118L560 117z"/>
<path style="fill:#bbabc6; stroke:none;" d="M587 117L588 118L587 117z"/>
<path style="fill:#b4a2c2; stroke:none;" d="M607 117L608 118L607 117z"/>
<path style="fill:#a28ab8; stroke:none;" d="M559 118L560 119L559 118z"/>
<path style="fill:#bbabc6; stroke:none;" d="M588 118L589 119L588 118z"/>
<path style="fill:#b4a2c2; stroke:none;" d="M608 118L609 119L608 118z"/>
<path style="fill:#93928e; stroke:none;" d="M196 119L197 120L196 119z"/>
<path style="fill:#a891bc; stroke:none;" d="M558 119L559 120L558 119z"/>
<path style="fill:#b4a2c2; stroke:none;" d="M609 119L610 120L609 119z"/>
<path style="fill:#61615e; stroke:none;" d="M196 120L197 121L196 120z"/>
<path style="fill:#aeaca7; stroke:none;" d="M204.333 120.667C204.278 120.722 204.222 121.778 204.667 121.333C204.722 121.278 204.778 120.222 204.333 120.667z"/>
<path style="fill:#a891bc; stroke:none;" d="M557 120L558 121L557 120z"/>
<path style="fill:#b4a2c2; stroke:none;" d="M610 120L611 121L610 120z"/>
<path style="fill:#30302e; stroke:none;" d="M196 121L197 122L196 121z"/>
<path style="fill:#a891bc; stroke:none;" d="M556 121L557 122L556 121z"/>
<path style="fill:#b4a2c2; stroke:none;" d="M611 121L612 122L611 121z"/>
<path style="fill:#a891bc; stroke:none;" d="M555 122L556 123L555 122z"/>
<path style="fill:#b4a2c2; stroke:none;" d="M612 122L613 123L612 122z"/>
<path style="fill:#666562; stroke:none;" d="M195 123L196 124L195 123z"/>
<path style="fill:#42413f; stroke:none;" d="M203 123L204 124L203 123z"/>
<path style="fill:#a891bc; stroke:none;" d="M554 123L555 124L554 123z"/>
<path style="fill:#b4a2c2; stroke:none;" d="M613 123L614 124L613 123z"/>
<path style="fill:#8a8985; stroke:none;" d="M203 124L204 125L203 124z"/>
<path style="fill:#ad98be; stroke:none;" d="M553 124L554 125L553 124z"/>
<path style="fill:#b4a2c2; stroke:none;" d="M614 124L615 125L614 124z"/>
<path style="fill:#72716d; stroke:none;" d="M194 125L195 126L194 125z"/>
<path style="fill:#ad98be; stroke:none;" d="M552 125L553 126L552 125z"/>
<path style="fill:#b4a2c2; stroke:none;" d="M615 125L616 126L615 125z"/>
<path style="fill:#b2b1ab; stroke:none;" d="M193 126L194 127L193 126z"/>
<path style="fill:#4f4e4c; stroke:none;" d="M202 126L203 127L202 126z"/>
<path style="fill:#ad98be; stroke:none;" d="M551 126L552 127L551 126z"/>
<path style="fill:#b4a2c2; stroke:none;" d="M616 126L617 127L616 126z"/>
<path style="fill:#bbbab4; stroke:none;" d="M202 127L203 128L202 127z"/>
<path style="fill:#ad98be; stroke:none;" d="M550 127L551 128L550 127z"/>
<path style="fill:#b4a2c2; stroke:none;" d="M617 127L618 128L617 127z"/>
<path style="fill:#8b8a86; stroke:none;" d="M163 128L164 129L163 128z"/>
<path style="fill:#2c2b2a; stroke:none;" d="M192 128L193 129L192 128z"/>
<path style="fill:#474644; stroke:none;" d="M201 128L202 129L201 128z"/>
<path style="fill:#ad98be; stroke:none;" d="M549 128L550 129L549 128z"/>
<path style="fill:#b4a2c2; stroke:none;" d="M618 128L619 129L618 128z"/>
<path style="fill:#4b4a48; stroke:none;" d="M163 129L163 136C164.059 133.466 164.059 131.534 163 129M165 129L166 130L165 129z"/>
<path style="fill:#aaa9a4; stroke:none;" d="M190 129L191 130L190 129z"/>
<path style="fill:#b09dc0; stroke:none;" d="M548 129L549 130L548 129z"/>
<path style="fill:#b4a2c2; stroke:none;" d="M619 129L620 130L619 129z"/>
<path style="fill:#41403e; stroke:none;" d="M167 130L168 131L167 130z"/>
<path style="fill:#9a9894; stroke:none;" d="M168 130L169 131L168 130z"/>
<path style="fill:#b9b7b2; stroke:none;" d="M188 130L189 131L188 130z"/>
<path style="fill:#484745; stroke:none;" d="M189 130L190 131L189 130z"/>
<path style="fill:#7e7d7a; stroke:none;" d="M200 130L201 131L200 130z"/>
<path style="fill:#b09dc0; stroke:none;" d="M547 130L548 131L547 130z"/>
<path style="fill:#b4a2c2; stroke:none;" d="M620 130L621 131L620 130z"/>
<path style="fill:#62615e; stroke:none;" d="M170 131L171 132L170 131z"/>
<path style="fill:#b1b0ab; stroke:none;" d="M171 131L172 132L171 131z"/>
<path style="fill:#989792; stroke:none;" d="M186 131L187 132L186 131z"/>
<path style="fill:#41403e; stroke:none;" d="M187 131L188 132L187 131z"/>
<path style="fill:#4c4b49; stroke:none;" d="M199 131L200 132L199 131z"/>
<path style="fill:#b09dc0; stroke:none;" d="M546 131L547 132L546 131z"/>
<path style="fill:#b4a2c2; stroke:none;" d="M621 131L622 132L621 131z"/>
<path style="fill:#767572; stroke:none;" d="M174.667 132.333C174.222 132.778 175.278 132.722 175.333 132.667C175.778 132.222 174.722 132.278 174.667 132.333z"/>
<path style="fill:#acaaa5; stroke:none;" d="M176 132C177.506 132.683 178.315 132.826 180 133C178.494 132.317 177.685 132.174 176 132z"/>
<path style="fill:#8c8b87; stroke:none;" d="M180 132C181.506 132.683 182.315 132.826 184 133C182.494 132.317 181.685 132.174 180 132z"/>
<path style="fill:#353433; stroke:none;" d="M198 132L199 133L198 132z"/>
<path style="fill:#b09dc0; stroke:none;" d="M545 132L546 133L545 132z"/>
<path style="fill:#b4a2c2; stroke:none;" d="M622 132L623 133L622 132z"/>
<path style="fill:#2d2d2c; stroke:none;" d="M197 133L198 134L197 133z"/>
<path style="fill:#b09dc0; stroke:none;" d="M544 133L545 134L544 133z"/>
<path style="fill:#b4a2c2; stroke:none;" d="M623 133L624 134L623 133z"/>
<path style="fill:#3f3e3c; stroke:none;" d="M196 134L197 135L196 134z"/>
<path style="fill:#b4a2c2; stroke:none;" d="M543 134L544 135L543 134M624 134L625 135L624 134z"/>
<path style="fill:#92908c; stroke:none;" d="M195 135L196 136L195 135z"/>
<path style="fill:#b4a2c2; stroke:none;" d="M542 135L543 136L542 135M625 135L626 136L625 135z"/>
<path style="fill:#747370; stroke:none;" d="M164 136L165 137L164 136z"/>
<path style="fill:#61615e; stroke:none;" d="M193 136L194 137L193 136z"/>
<path style="fill:#b4a2c2; stroke:none;" d="M541 136L542 137L541 136z"/>
<path style="fill:#b09dc0; stroke:none;" d="M626 136L627 137L626 136z"/>
<path style="fill:#95948f; stroke:none;" d="M166 137L167 138L166 137z"/>
<path style="fill:#4c4c49; stroke:none;" d="M167 137L168 138L167 137z"/>
<path style="fill:#6a6965; stroke:none;" d="M191 137L192 138L191 137z"/>
<path style="fill:#b4a2c2; stroke:none;" d="M540 137L541 138L540 137z"/>
<path style="fill:#b09dc0; stroke:none;" d="M627 137L628 138L627 137z"/>
<path style="fill:#bcbbb5; stroke:none;" d="M169 138L170 139L169 138z"/>
<path style="fill:#81807c; stroke:none;" d="M170 138L171 139L170 138z"/>
<path style="fill:#2b2a29; stroke:none;" d="M171.667 138.333C171.222 138.778 172.278 138.722 172.333 138.667C172.778 138.222 171.722 138.278 171.667 138.333z"/>
<path style="fill:#2c2b2a; stroke:none;" d="M187 138L188 139L187 138z"/>
<path style="fill:#656461; stroke:none;" d="M188 138L189 139L188 138z"/>
<path style="fill:#a7a6a1; stroke:none;" d="M189 138L190 139L189 138z"/>
<path style="fill:#b8a7c4; stroke:none;" d="M539 138L540 139L539 138z"/>
<path style="fill:#a28ab8; stroke:none;" d="M628 138C622.274 139.693 615.943 139 610 139C613.601 141.075 619.781 140.049 624 140C625.998 139.977 628.953 140.309 628 138z"/>
<path style="fill:#a5a39e; stroke:none;" d="M174.667 139.333C174.222 139.778 175.278 139.722 175.333 139.667C175.778 139.222 174.722 139.278 174.667 139.333z"/>
<path style="fill:#74736f; stroke:none;" d="M176 139C178.332 139.985 180.457 139.981 183 140C180.668 139.015 178.543 139.019 176 139z"/>
<path style="fill:#a09f9a; stroke:none;" d="M183 139C184.248 139.685 184.548 139.749 186 140C184.752 139.315 184.452 139.251 183 139z"/>
<path style="fill:#a28ab8; stroke:none;" d="M519 139C524.715 141.398 532.831 140 539 140C533.285 137.602 525.169 139 519 139z"/>
</svg>
