<?xml version="1.0" encoding="UTF-8"?>
<svg version="1.1" xmlns="http://www.w3.org/2000/svg" width="287" height="300">
<path d="M0 0 C0.8755957 0.23025879 1.75119141 0.46051758 2.65332031 0.69775391 C10.74259467 2.88036485 18.56911325 5.35539293 26.29833984 8.60375977 C27.90435562 9.27738304 27.90435562 9.27738304 29.54281616 9.96461487 C30.35368683 10.30629196 31.1645575 10.64796906 32 11 C32.16350053 30.07992866 32.28695043 49.15971524 32.3626852 68.24019909 C32.39878453 77.09957988 32.44800241 85.95852549 32.52807617 94.81762695 C32.59783315 102.53899194 32.64300422 110.26004179 32.65861946 117.98171312 C32.66774808 122.07072192 32.68920828 126.15882916 32.7401104 130.24754906 C32.78763937 134.09651811 32.80227876 137.94421477 32.79175377 141.7934494 C32.79367899 143.20563232 32.80759746 144.61785793 32.83443832 146.02978706 C33.02685776 156.67423764 33.02685776 156.67423764 30.5200367 159.91076088 C28.71406847 161.2439054 27.06843435 162.14100133 25 163 C24.37228415 163.31034274 23.74456831 163.62068548 23.09783077 163.94043255 C20.25689129 165.2811889 18.16344366 166 15 166 C14.67 166.66 14.34 167.32 14 168 C12.06079102 168.73022461 12.06079102 168.73022461 9.50390625 169.40234375 C8.56168213 169.65161621 7.61945801 169.90088867 6.64868164 170.15771484 C5.12102173 170.5437085 5.12102173 170.5437085 3.5625 170.9375 C2.52150146 171.20256348 1.48050293 171.46762695 0.40795898 171.74072266 C-29.05077708 179.07890892 -54.63282271 176.8725007 -84 170 C-84 169.34 -84 168.68 -84 168 C-85.175625 167.8453125 -85.175625 167.8453125 -86.375 167.6875 C-91.0323976 166.80420046 -95.48192149 165.41971242 -100 164 C-100 163.34 -100 162.68 -100 162 C-102.97 161.34 -105.94 160.68 -109 160 C-109 110.83 -109 61.66 -109 11 C-74.87607527 -4.51087488 -36.67350913 -9.70769359 0 0 Z " fill="#0390BA" transform="translate(181,4)"/>
<path d="M0 0 C0 0.66 0 1.32 0 2 C-1.39412109 2.05607422 -1.39412109 2.05607422 -2.81640625 2.11328125 C-12.34908785 2.48529058 -12.34908785 2.48529058 -21 6 C-21.9590625 7.3303125 -21.9590625 7.3303125 -22.9375 8.6875 C-25 11 -25 11 -26.9140625 11.1796875 C-27.97753906 11.12167969 -27.97753906 11.12167969 -29.0625 11.0625 C-30.361875 11.041875 -31.66125 11.02125 -33 11 C-35.05270463 12.84188612 -35.05270463 12.84188612 -36 15 C-34.02 14.67 -32.04 14.34 -30 14 C-30.33 15.32 -30.66 16.64 -31 18 C-32.98 18 -34.96 18 -37 18 C-37 18.66 -37 19.32 -37 20 C-38.65 20.33 -40.3 20.66 -42 21 C-41.505 22.36125 -41.505 22.36125 -41 23.75 C-40 27 -40 27 -40 31 C-36.01618925 28.83735988 -33.11016455 26.28788824 -30 23 C-30.44201686 28.06109299 -31.75898277 30.41542737 -35.25 34.0625 C-36.01828125 34.87847656 -36.7865625 35.69445312 -37.578125 36.53515625 C-40 39 -40 39 -42.76953125 41.30078125 C-45.69794563 44.84462422 -45.64130162 47.73727106 -45.4375 52.125 C-45.43169922 52.84042969 -45.42589844 53.55585937 -45.41992188 54.29296875 C-45.33274689 58.02405802 -45.11114746 59.83327881 -43 63 C-42.505 62.835 -42.01 62.67 -41.5 62.5 C-37.96555911 61.79311182 -34.60309299 61.93994845 -31 62 C-30.67 62.99 -30.34 63.98 -30 65 C-30.93972656 65.07347656 -30.93972656 65.07347656 -31.8984375 65.1484375 C-32.71570313 65.22320312 -33.53296875 65.29796875 -34.375 65.375 C-35.59316406 65.47941406 -35.59316406 65.47941406 -36.8359375 65.5859375 C-39.20334191 65.82892588 -39.20334191 65.82892588 -41 68 C-41.09062446 70.20740716 -41.09062446 70.20740716 -40.875 72.6875 C-40.77334298 76.41135704 -40.99096915 78.57666869 -43.0625 81.6875 C-45.31555207 84.89990553 -45.31555207 84.89990553 -45 88.75 C-44.22683653 91.94219693 -44.22683653 91.94219693 -42.5 93.9375 C-39.809845 95.08081587 -38.60576321 94.99960173 -35.75 94.8125 C-30.70381421 94.58655138 -28.19915148 96.51650401 -24.43359375 99.6875 C-23.96050781 100.120625 -23.48742187 100.55375 -23 101 C-24.56914375 107.01505106 -26.10234082 112.09649328 -30 117 C-30.99 117.495 -30.99 117.495 -32 118 C-31.67 115.03 -31.34 112.06 -31 109 C-31.66 109 -32.32 109 -33 109 C-33.0825 109.86625 -33.165 110.7325 -33.25 111.625 C-34.78310536 118.52397412 -39.39649535 123.02938245 -45 127 C-48.80083561 129.09086479 -52.70755114 130.34962896 -57 131 C-45.96349658 130.01897747 -35.31593614 125.59572226 -27.625 117.5 C-24.53163367 112.74097487 -22.67501572 108.67013207 -22 103 C-19.5625 103.6875 -19.5625 103.6875 -17 105 C-16.1875 107.625 -16.1875 107.625 -16 110 C-9.270883 109.01332595 -4.01388059 107.83001473 1 103 C6.46746331 93.48148223 10.76843303 82.14834953 8.07421875 71.2578125 C7.62654843 69.8754052 7.16332282 68.49797171 6.6875 67.125 C6.43186279 66.37049561 6.17622559 65.61599121 5.9128418 64.83862305 C1.70769079 52.86201801 -3.73125387 41.32723611 -9.00952148 29.79418945 C-11.03486627 25.27195687 -11.03486627 25.27195687 -10.6875 22.5625 C-10.460625 22.046875 -10.23375 21.53125 -10 21 C-9.01 22.98 -8.02 24.96 -7 27 C-2.80617474 27.19506164 0.30129902 27.07592655 4 25 C4.89335577 22.53737071 4.89335577 22.53737071 5.0625 19.6875 C6.1906503 11.88275113 6.1906503 11.88275113 10 9 C13.75 9.1875 13.75 9.1875 17 10 C16.48829223 18.50105633 14.96223603 26.58358616 13.0625 34.875 C12.79759766 36.07125 12.53269531 37.2675 12.25976562 38.5 C11.12669616 43.52711714 9.93221779 48.22086595 8 53 C7.29466245 59.29307662 7.46844815 64.55552423 11 70 C11.96239452 68.75312408 12.91974009 67.50235031 13.875 66.25 C14.40867187 65.55390625 14.94234375 64.8578125 15.4921875 64.140625 C16.89238914 62.15277397 17.97855265 60.20156614 19 58 C20.12190352 61.36571056 19.87542696 62.20752778 18.890625 65.5 C18.63168457 66.38276611 18.37274414 67.26553223 18.10595703 68.17504883 C17.82349121 69.10728271 17.54102539 70.0395166 17.25 71 C16.68966151 72.89960907 16.1297617 74.79934759 15.5703125 76.69921875 C15.29864258 77.6123584 15.02697266 78.52549805 14.74707031 79.46630859 C13.42297415 83.95698505 12.20758026 88.47687042 11 93 C17.44971695 86.94334059 18.73239008 77.22582385 21 69 C21.66192276 66.6652802 22.33057211 64.33258431 23 62 C23.33 62 23.66 62 24 62 C24.495 66.455 24.495 66.455 25 71 C26.34192685 68.3161463 26.144365 66.2031998 26.17578125 63.19921875 C26.81297344 27.37405311 26.81297344 27.37405311 32 17 C32.66 17 33.32 17 34 17 C34 18.65 34 20.3 34 22 C34.99 21.505 34.99 21.505 36 21 C36.11675336 34.8991509 36.20461632 48.79822587 36.25906086 62.6977663 C36.28518766 69.15146672 36.32064294 75.60483841 36.37719727 82.05834961 C36.43140559 88.28289725 36.46139728 94.50712813 36.47438622 100.73189354 C36.48364611 103.11026181 36.50172789 105.48861217 36.52865028 107.86684608 C36.56479069 111.19066868 36.56995146 114.5131717 36.56762695 117.8371582 C36.59459152 119.32177299 36.59459152 119.32177299 36.62210083 120.83638 C36.6031554 123.32934922 36.56388909 125.57165417 36 128 C33.46452332 130.13517761 33.46452332 130.13517761 31 131 C31.33 131.66 31.66 132.32 32 133 C25.375 136 25.375 136 22 136 C21.67 136.66 21.34 137.32 21 138 C19.06079102 138.73022461 19.06079102 138.73022461 16.50390625 139.40234375 C15.56168213 139.65161621 14.61945801 139.90088867 13.64868164 140.15771484 C12.12102173 140.5437085 12.12102173 140.5437085 10.5625 140.9375 C9.52150146 141.20256348 8.48050293 141.46762695 7.40795898 141.74072266 C-22.05077708 149.07890892 -47.63282271 146.8725007 -77 140 C-77 139.34 -77 138.68 -77 138 C-78.175625 137.8453125 -78.175625 137.8453125 -79.375 137.6875 C-84.0323976 136.80420046 -88.48192149 135.41971242 -93 134 C-93 133.34 -93 132.68 -93 132 C-95.97 131.34 -98.94 130.68 -102 130 C-101.67 126.7 -101.34 123.4 -101 120 C-80.87 120 -60.74 120 -40 120 C-40.99 117.03 -41.98 114.06 -43 111 C-59.18387261 56.10673929 -59.18387261 56.10673929 -50.68359375 35.0390625 C-49.13108534 30.40815169 -49.04172097 25.33554585 -50.90234375 20.80078125 C-51.61821228 19.46330446 -52.35063724 18.13451974 -53.1015625 16.81640625 C-54.43568075 14.11916718 -54.41022886 11.93997349 -54 9 C-51.53878903 5.30818355 -50.52870218 5.38873522 -46.3125 4.5 C-38.59500992 2.9809022 -38.59500992 2.9809022 -32 -1 C-8.38862157 -3.72827625 -8.38862157 -3.72827625 0 0 Z " fill="#668DBC" transform="translate(174,34)"/>
<path d="M0 0 C8.84514323 0.60628806 17.4487468 2.3338253 26.125 4.0625 C27.57283339 4.34742868 29.02074957 4.63193702 30.46875 4.91601562 C33.98013338 5.60583869 37.49036568 6.30132575 41 7 C41.11673387 22.98533469 41.20493904 38.97053141 41.25906086 54.95618916 C41.28485709 62.37840829 41.32003414 69.80036281 41.37719727 77.22241211 C41.42698951 83.69050351 41.45928071 90.15840331 41.47044247 96.62668103 C41.47696855 100.05259903 41.49233444 103.47796882 41.52865028 106.90371132 C41.56883576 110.72538249 41.56995212 114.54651438 41.56762695 118.3684082 C41.58560333 119.50776321 41.60357971 120.64711823 41.62210083 121.82099915 C41.60346349 124.63847367 41.55672294 127.23839879 41 130 C38.60905457 132.24650574 38.60905457 132.24650574 36 133 C33.6875 132.6875 33.6875 132.6875 32 132 C33.98 131.01 35.96 130.02 38 129 C38 94.02 38 59.04 38 23 C37.67 24.98 37.34 26.96 37 29 C36.67 29 36.34 29 36 29 C35.85714286 21.57142857 35.85714286 21.57142857 37 18 C36.34 18 35.68 18 35 18 C34.91435791 18.59014893 34.82871582 19.18029785 34.74047852 19.78833008 C34.35064401 22.46347393 33.95661986 25.13798429 33.5625 27.8125 C33.36043945 29.2056543 33.36043945 29.2056543 33.15429688 30.62695312 C32.95610352 31.9659668 32.95610352 31.9659668 32.75390625 33.33203125 C32.63345947 34.15421143 32.5130127 34.9763916 32.38891602 35.82348633 C32 38 32 38 31 41 C30.88391198 43.17512282 30.82147642 45.35327272 30.7890625 47.53125 C30.76070313 48.81644531 30.73234375 50.10164063 30.703125 51.42578125 C30.66180626 53.466632 30.62490685 55.50723668 30.59863281 57.54833984 C30.57104197 59.5220365 30.52406463 61.49543216 30.4765625 63.46875 C30.45674316 64.64888672 30.43692383 65.82902344 30.41650391 67.04492188 C30 70 30 70 27 73 C26.505 68.545 26.505 68.545 26 64 C25.76216797 65.16402344 25.76216797 65.16402344 25.51953125 66.3515625 C21.24801412 86.12797882 21.24801412 86.12797882 16 94 C15.34 94 14.68 94 14 94 C15.95541517 83.0782909 18.71965081 72.59306439 22 62 C18.99672401 65.00327599 16.52427405 68.59223004 14 72 C11.38368424 67.67739135 9.8365477 65.07746519 9.75 60 C9.72421875 59.113125 9.6984375 58.22625 9.671875 57.3125 C10.04442748 53.55149397 11.04490205 50.2914114 12.18017578 46.69873047 C13.5442119 42.20854129 14.54120636 37.64060176 15.5625 33.0625 C15.77068359 32.15048828 15.97886719 31.23847656 16.19335938 30.29882812 C17.63713017 23.89464108 18.8722096 17.46698966 20 11 C16.62563814 10.66619186 16.62563814 10.66619186 13 11 C10.1599491 13.88052668 9.44024002 16.6715817 8.625 20.5625 C7.29838354 25.7177453 7.29838354 25.7177453 4.6875 28.1875 C1.55556668 29.13436356 -0.74829209 29.42413581 -4 29 C-5.6796875 27.4765625 -5.6796875 27.4765625 -7 26 C-6.50971313 27.07761597 -6.50971313 27.07761597 -6.00952148 28.17700195 C15.91847878 76.52502294 15.91847878 76.52502294 9.5 93.625 C9.18546875 94.553125 8.8709375 95.48125 8.546875 96.4375 C6.07752421 103.06675713 3.33639469 105.96308267 -3 109 C-4.051875 109.61875 -5.10375 110.2375 -6.1875 110.875 C-9.34025633 112.13610253 -10.81318269 112.03102913 -14 111 C-14.0825 110.21625 -14.165 109.4325 -14.25 108.625 C-14.72806339 105.85250896 -14.72806339 105.85250896 -17.0625 104.6875 C-17.701875 104.460625 -18.34125 104.23375 -19 104 C-18.8453125 105.2065625 -18.8453125 105.2065625 -18.6875 106.4375 C-19.27223041 113.10342663 -22.8243491 118.21605193 -27.625 122.75 C-37.75716727 131.00513061 -49.26545924 133.37639037 -62 133 C-62 132.67 -62 132.34 -62 132 C-60.9378125 131.84144531 -59.875625 131.68289062 -58.78125 131.51953125 C-49.10700578 129.96758073 -42.28530217 128.28530217 -35.1875 121.1875 C-32.66430703 117.51084738 -31.38406292 114.22503417 -30 110 C-29.34 110 -28.68 110 -28 110 C-28 112.64 -28 115.28 -28 118 C-24.19175707 113.00988858 -22.57665186 108.04383212 -21 102 C-24.98016428 98.61262615 -27.30167482 96.64324584 -32.625 96.9375 C-35.97001614 97.120163 -36.88870698 97.05796511 -40 95.4375 C-42.68711133 92.16258307 -43.07169413 90.22995354 -43 86 C-42.00612468 84.3007938 -41.00600359 82.60275538 -39.9140625 80.96484375 C-38.42829501 77.7710786 -38.85807767 74.67996333 -39.15234375 71.234375 C-39 69 -39 69 -37.796875 67.21484375 C-35.48365285 65.65090443 -34.07904468 65.69221545 -31.3125 65.8125 C-30.10013672 65.85310547 -30.10013672 65.85310547 -28.86328125 65.89453125 C-28.24839844 65.92933594 -27.63351563 65.96414062 -27 66 C-27.33 65.34 -27.66 64.68 -28 64 C-34.08408472 63.80185739 -34.08408472 63.80185739 -40 65 C-43.49902445 61.4172223 -43.51735096 57.82100122 -43.5 53.0625 C-43.52835938 52.35931641 -43.55671875 51.65613281 -43.5859375 50.93164062 C-43.600297 47.10124456 -43.23931516 45.28793261 -40.76953125 42.31640625 C-39.85558594 41.55199219 -38.94164062 40.78757813 -38 40 C-36.38068109 38.30602251 -34.77602987 36.59788314 -33.1875 34.875 C-32.39730469 34.02679688 -31.60710937 33.17859375 -30.79296875 32.3046875 C-28.69298339 30.09202433 -28.69298339 30.09202433 -29 27 C-29.763125 27.825 -30.52625 28.65 -31.3125 29.5 C-34 32 -34 32 -37 32 C-38.60355101 28.49223216 -39.22036864 25.85645121 -39 22 C-37.35 21.67 -35.7 21.34 -34 21 C-34 20.34 -34 19.68 -34 19 C-32.02 19 -30.04 19 -28 19 C-27.67 17.68 -27.34 16.36 -27 15 C-29.31 15.66 -31.62 16.32 -34 17 C-32.84826645 14.53199953 -31.95216435 12.95216435 -30 11 C-28.741875 11.0825 -27.48375 11.165 -26.1875 11.25 C-24.03596935 11.38799107 -24.03596935 11.38799107 -22 11 C-19.32651508 8.15848783 -19.32651508 8.15848783 -17 5 C-12.4701415 2.99843462 -8.53809383 2.78230012 -3.625 2.875 C-2.37976563 2.89304688 -1.13453125 2.91109375 0.1484375 2.9296875 C1.55996094 2.96449219 1.55996094 2.96449219 3 3 C3 2.34 3 1.68 3 1 C2.01 0.67 1.02 0.34 0 0 Z " fill="#678DBD" transform="translate(171,33)"/>
<path d="M0 0 C0.75 1.625 0.75 1.625 1 4 C-0.875 7.125 -0.875 7.125 -3 10 C-3.33 10.66 -3.66 11.32 -4 12 C-2.35 12 -0.7 12 1 12 C1.33 10.35 1.66 8.7 2 7 C3.875 7.25 3.875 7.25 6 8 C7.95954907 10.57835404 8.0941707 12.93694364 8.3125 16.0625 C8.6528125 18.0115625 8.6528125 18.0115625 9 20 C9.845625 20.474375 10.69125 20.94875 11.5625 21.4375 C12.366875 21.953125 13.17125 22.46875 14 23 C14.45874096 26.03642826 14.287624 28.95118564 14 32 C14.66 32 15.32 32 16 32 C15.91878906 31.28457031 15.83757812 30.56914063 15.75390625 29.83203125 C15.15259948 20.34611023 18.04842658 14.8315702 23 7 C24.32 7 25.64 7 27 7 C31.23260174 16.08827684 35.26752323 25.1894822 38.5 34.6875 C38.75475098 35.41630371 39.00950195 36.14510742 39.27197266 36.89599609 C42.16213086 45.6717883 40.67814995 52.15783932 37.5 60.625 C37.02820313 62.0171875 37.02820313 62.0171875 36.546875 63.4375 C34.07752421 70.06675713 31.33639469 72.96308267 25 76 C23.948125 76.61875 22.89625 77.2375 21.8125 77.875 C18.65974367 79.13610253 17.18681731 79.03102913 14 78 C13.9175 77.21625 13.835 76.4325 13.75 75.625 C13.27193661 72.85250896 13.27193661 72.85250896 10.9375 71.6875 C10.298125 71.460625 9.65875 71.23375 9 71 C9.1546875 72.2065625 9.1546875 72.2065625 9.3125 73.4375 C8.72776959 80.10342663 5.1756509 85.21605193 0.375 89.75 C-9.75716727 98.00513061 -21.26545924 100.37639037 -34 100 C-34 99.67 -34 99.34 -34 99 C-32.9378125 98.84144531 -31.875625 98.68289062 -30.78125 98.51953125 C-21.10700578 96.96758073 -14.28530217 95.28530217 -7.1875 88.1875 C-4.66430703 84.51084738 -3.38406292 81.22503417 -2 77 C-1.34 77 -0.68 77 0 77 C0 79.64 0 82.28 0 85 C3.80824293 80.00988858 5.42334814 75.04383212 7 69 C3.01983572 65.61262615 0.69832518 63.64324584 -4.625 63.9375 C-7.97001614 64.120163 -8.88870698 64.05796511 -12 62.4375 C-14.68711133 59.16258307 -15.07169413 57.22995354 -15 53 C-14.00612468 51.3007938 -13.00600359 49.60275538 -11.9140625 47.96484375 C-10.42829501 44.7710786 -10.85807767 41.67996333 -11.15234375 38.234375 C-11 36 -11 36 -9.796875 34.21484375 C-7.48365285 32.65090443 -6.07904468 32.69221545 -3.3125 32.8125 C-2.10013672 32.85310547 -2.10013672 32.85310547 -0.86328125 32.89453125 C-0.24839844 32.92933594 0.36648437 32.96414062 1 33 C0.67 32.34 0.34 31.68 0 31 C-1.85625 30.9690625 -1.85625 30.9690625 -3.75 30.9375 C-4.79414063 30.92009766 -4.79414063 30.92009766 -5.859375 30.90234375 C-8.03292403 31.00150201 -9.91306537 31.40306149 -12 32 C-12.70209697 27.04211521 -13.12572183 22.92503299 -12 18 C-12.22171875 17.36964844 -12.4434375 16.73929688 -12.671875 16.08984375 C-13 14 -13 14 -11.671875 12.1484375 C-11.03765625 11.56320313 -10.4034375 10.97796875 -9.75 10.375 C-9.12609375 9.78460938 -8.5021875 9.19421875 -7.859375 8.5859375 C-6 7 -6 7 -3 5 C-2.63837971 3.67405895 -2.30271961 2.34061543 -2 1 C-1.34 0.67 -0.68 0.34 0 0 Z " fill="#11436F" transform="translate(143,66)"/>
<path d="M0 0 C1.0725 0.268125 2.145 0.53625 3.25 0.8125 C2.73829223 9.31355633 1.21223603 17.39608616 -0.6875 25.6875 C-0.95240234 26.88375 -1.21730469 28.08 -1.49023438 29.3125 C-2.62330384 34.33961714 -3.81778221 39.03336595 -5.75 43.8125 C-6.45533755 50.10557662 -6.28155185 55.36802423 -2.75 60.8125 C-1.78760548 59.56562408 -0.83025991 58.31485031 0.125 57.0625 C0.65867188 56.36640625 1.19234375 55.6703125 1.7421875 54.953125 C3.14238914 52.96527397 4.22855265 51.01406614 5.25 48.8125 C6.37190352 52.17821056 6.12542696 53.02002778 5.140625 56.3125 C4.88168457 57.19526611 4.62274414 58.07803223 4.35595703 58.98754883 C4.07349121 59.91978271 3.79102539 60.8520166 3.5 61.8125 C2.93966151 63.71210907 2.3797617 65.61184759 1.8203125 67.51171875 C1.54864258 68.4248584 1.27697266 69.33799805 0.99707031 70.27880859 C-0.32702585 74.76948505 -1.54241974 79.28937042 -2.75 83.8125 C3.69971695 77.75584059 4.98239008 68.03832385 7.25 59.8125 C7.91192276 57.4777802 8.58057211 55.14508431 9.25 52.8125 C9.58 52.8125 9.91 52.8125 10.25 52.8125 C10.745 57.2675 10.745 57.2675 11.25 61.8125 C12.59192685 59.1286463 12.394365 57.0156998 12.42578125 54.01171875 C13.06297344 18.18655311 13.06297344 18.18655311 18.25 7.8125 C18.91 7.8125 19.57 7.8125 20.25 7.8125 C19.9393306 10.52105454 19.62652255 13.22933388 19.3125 15.9375 C19.22548828 16.69804688 19.13847656 17.45859375 19.04882812 18.2421875 C18.67639647 21.44234102 18.28645276 24.60879338 17.71875 27.78125 C17.08085096 31.90633044 16.89015695 36.02140466 16.6875 40.1875 C16.62272461 41.43466797 16.62272461 41.43466797 16.55664062 42.70703125 C16.45138195 44.74203228 16.35026928 46.77724703 16.25 48.8125 C17.735 49.3075 17.735 49.3075 19.25 49.8125 C18.68399998 55.49157887 17.58966304 60.58561113 15.8125 66 C15.59529297 66.68513672 15.37808594 67.37027344 15.15429688 68.07617188 C14.26553676 70.84921019 13.35640481 73.56956844 12.1875 76.23828125 C10.81431473 80.00881913 10.29445299 83.85606571 9.6875 87.8125 C9.43687427 89.39594053 9.18559008 90.97927701 8.93359375 92.5625 C8.81870605 93.29984375 8.70381836 94.0371875 8.58544922 94.796875 C8.30571122 96.4777461 7.95972419 98.14742108 7.59765625 99.8125 C7.48292969 100.4725 7.36820313 101.1325 7.25 101.8125 C7.58 102.1425 7.91 102.4725 8.25 102.8125 C8.29092937 105.14547433 8.29241723 107.47955225 8.25 109.8125 C14.40010524 102.81410438 15.87021475 95.7892205 17.25 86.8125 C19.25 88.8125 19.25 88.8125 19.6875 92.6875 C19.49447542 99.7272199 16.9633352 106.50957089 12.48828125 111.95703125 C-3.99246293 127.30117238 -26.70918039 127.18079225 -47.75 126.8125 C-47.75 126.4825 -47.75 126.1525 -47.75 125.8125 C-46.91597656 125.65394531 -46.08195313 125.49539062 -45.22265625 125.33203125 C-35.06833848 123.22672596 -27.02772138 120.4574928 -20.3125 112.25 C-17.24969376 107.47202227 -15.57227679 102.1545169 -13.75 96.8125 C-12.27741547 92.77570325 -10.73852545 88.76765225 -9.14453125 84.77734375 C-8.75297852 83.78057617 -8.75297852 83.78057617 -8.35351562 82.76367188 C-7.82326464 81.41382306 -7.28408302 80.06745058 -6.73632812 78.72460938 C-3.8705718 71.33397464 -4.4805503 65.38763425 -7.0625 57.9375 C-7.31813721 57.18299561 -7.57377441 56.42849121 -7.8371582 55.65112305 C-12.04230921 43.67451801 -17.48125387 32.13973611 -22.75952148 20.60668945 C-24.78486627 16.08445687 -24.78486627 16.08445687 -24.4375 13.375 C-24.210625 12.859375 -23.98375 12.34375 -23.75 11.8125 C-22.76 13.7925 -21.77 15.7725 -20.75 17.8125 C-16.55617474 18.00756164 -13.44870098 17.88842655 -9.75 15.8125 C-8.85664423 13.34987071 -8.85664423 13.34987071 -8.6875 10.5 C-7.11831376 -0.35591569 -7.11831376 -0.35591569 0 0 Z " fill="#F8F1D2" transform="translate(187.75,43.1875)"/>
<path d="M0 0 C0 0.66 0 1.32 0 2 C-1.39412109 2.05607422 -1.39412109 2.05607422 -2.81640625 2.11328125 C-12.34908785 2.48529058 -12.34908785 2.48529058 -21 6 C-21.9590625 7.3303125 -21.9590625 7.3303125 -22.9375 8.6875 C-25 11 -25 11 -26.9140625 11.1796875 C-27.97753906 11.12167969 -27.97753906 11.12167969 -29.0625 11.0625 C-30.361875 11.041875 -31.66125 11.02125 -33 11 C-35.05270463 12.84188612 -35.05270463 12.84188612 -36 15 C-34.02 14.67 -32.04 14.34 -30 14 C-30.33 15.32 -30.66 16.64 -31 18 C-32.98 18 -34.96 18 -37 18 C-37 18.66 -37 19.32 -37 20 C-38.65 20.33 -40.3 20.66 -42 21 C-41.505 22.36125 -41.505 22.36125 -41 23.75 C-40 27 -40 27 -40 31 C-36.01618925 28.83735988 -33.11016455 26.28788824 -30 23 C-30.44201686 28.06109299 -31.75898277 30.41542737 -35.25 34.0625 C-36.01828125 34.87847656 -36.7865625 35.69445312 -37.578125 36.53515625 C-40 39 -40 39 -42.76953125 41.30078125 C-45.69794563 44.84462422 -45.64130162 47.73727106 -45.4375 52.125 C-45.43169922 52.84042969 -45.42589844 53.55585937 -45.41992188 54.29296875 C-45.33274689 58.02405802 -45.11114746 59.83327881 -43 63 C-42.505 62.835 -42.01 62.67 -41.5 62.5 C-37.96555911 61.79311182 -34.60309299 61.93994845 -31 62 C-30.67 62.99 -30.34 63.98 -30 65 C-30.93972656 65.07347656 -30.93972656 65.07347656 -31.8984375 65.1484375 C-32.71570313 65.22320312 -33.53296875 65.29796875 -34.375 65.375 C-35.59316406 65.47941406 -35.59316406 65.47941406 -36.8359375 65.5859375 C-39.20334191 65.82892588 -39.20334191 65.82892588 -41 68 C-41.09062446 70.20740716 -41.09062446 70.20740716 -40.875 72.6875 C-40.77334298 76.41135704 -40.99096915 78.57666869 -43.0625 81.6875 C-45.31555207 84.89990553 -45.31555207 84.89990553 -45 88.75 C-44.22683653 91.94219693 -44.22683653 91.94219693 -42.5 93.9375 C-39.809845 95.08081587 -38.60576321 94.99960173 -35.75 94.8125 C-30.70381421 94.58655138 -28.19915148 96.51650401 -24.43359375 99.6875 C-23.96050781 100.120625 -23.48742187 100.55375 -23 101 C-24.56914375 107.01505106 -26.10234082 112.09649328 -30 117 C-30.99 117.495 -30.99 117.495 -32 118 C-31.67 115.03 -31.34 112.06 -31 109 C-31.66 109 -32.32 109 -33 109 C-33.0825 109.86625 -33.165 110.7325 -33.25 111.625 C-34.80355483 118.61599672 -39.48679804 122.83115025 -45 127 C-47.52057903 128.26028952 -49.25558581 128.12699192 -52.07641602 128.12939453 C-53.13413712 128.13254669 -54.19185822 128.13569885 -55.28163147 128.13894653 C-57.00040749 128.13591019 -57.00040749 128.13591019 -58.75390625 128.1328125 C-60.51068947 128.13424759 -60.51068947 128.13424759 -62.30296326 128.13571167 C-64.78197279 128.13639308 -67.26098411 128.13454153 -69.73999023 128.13037109 C-73.55000788 128.12501755 -77.35990789 128.13031992 -81.16992188 128.13671875 C-83.57291693 128.13605806 -85.97591191 128.13477707 -88.37890625 128.1328125 C-90.10071861 128.13584885 -90.10071861 128.13584885 -91.85731506 128.13894653 C-92.911884 128.13579437 -93.96645294 128.13264221 -95.05297852 128.12939453 C-95.9862648 128.12859894 -96.91955109 128.12780334 -97.88111877 128.12698364 C-100 128 -100 128 -101 127 C-101 124.69 -101 122.38 -101 120 C-80.87 120 -60.74 120 -40 120 C-40.99 117.03 -41.98 114.06 -43 111 C-59.18387261 56.10673929 -59.18387261 56.10673929 -50.68359375 35.0390625 C-49.13108534 30.40815169 -49.04172097 25.33554585 -50.90234375 20.80078125 C-51.61821228 19.46330446 -52.35063724 18.13451974 -53.1015625 16.81640625 C-54.43568075 14.11916718 -54.41022886 11.93997349 -54 9 C-51.53878903 5.30818355 -50.52870218 5.38873522 -46.3125 4.5 C-38.59500992 2.9809022 -38.59500992 2.9809022 -32 -1 C-8.38862157 -3.72827625 -8.38862157 -3.72827625 0 0 Z " fill="#6A94BD" transform="translate(174,34)"/>
<path d="M0 0 C24.16887609 -0.33912077 47.92007447 0.81091586 72 3 C72 50.19 72 97.38 72 146 C71.67 146 71.34 146 71 146 C71 105.74 71 65.48 71 24 C67.37 23.67 63.74 23.34 60 23 C57.90509319 22.65870757 55.81517987 22.2814796 53.73828125 21.84375 C52.68189453 21.62589844 51.62550781 21.40804687 50.53710938 21.18359375 C49.47298828 20.95800781 48.40886719 20.73242188 47.3125 20.5 C31.84511358 17.25638991 16.79430986 15.69394374 1 18 C0.34 18.66 -0.32 19.32 -1 20 C-3.31765729 20.71927295 -5.65095874 21.3909893 -8 22 C-10 19 -10 19 -9.94140625 16.921875 C-9 15 -9 15 -6.71484375 13.953125 C-4.14322917 13.30208333 -1.57161458 12.65104167 1 12 C-2.63 12.66 -6.26 13.32 -10 14 C-8 10 -8 10 -6 9 C-4.12943209 8.7724985 -2.25314042 8.59037189 -0.375 8.4375 C0.62789062 8.35371094 1.63078125 8.26992188 2.6640625 8.18359375 C3.43492187 8.12300781 4.20578125 8.06242187 5 8 C2.36 7.34 -0.28 6.68 -3 6 C-3 5.34 -3 4.68 -3 4 C7.89 4 18.78 4 30 4 C19.77 3.34 9.54 2.68 -1 2 C-0.67 1.34 -0.34 0.68 0 0 Z " fill="#164772" transform="translate(141,16)"/>
<path d="M0 0 C2.74493423 0.35672053 3.84411597 0.83764917 5.7890625 2.86328125 C6.39492188 3.67152344 7.00078125 4.47976562 7.625 5.3125 C10.83330736 9.49540639 14.11221925 13.58777424 17.5 17.625 C18.985 19.39875 20.47 21.1725 22 23 C22 16.73 22 10.46 22 4 C21.01 3.67 20.02 3.34 19 3 C19 2.01 19 1.02 19 0 C22.63 0 26.26 0 30 0 C30 0.99 30 1.98 30 3 C29.01 3 28.02 3 27 3 C27 13.89 27 24.78 27 36 C24 36 24 36 21.58203125 33.7265625 C20.6496036 32.70104359 19.72695307 31.66657859 18.8125 30.625 C18.08873169 29.81820801 18.08873169 29.81820801 17.3503418 28.99511719 C13.04024659 24.14795402 8.98729753 19.11577797 5 14 C5 20.6 5 27.2 5 34 C6.32 34 7.64 34 9 34 C9 34.66 9 35.32 9 36 C2.4 36 -4.2 36 -11 36 C-11.33 32.7 -11.66 29.4 -12 26 C-14.64 26 -17.28 26 -20 26 C-20.66 28.64 -21.32 31.28 -22 34 C-21.34 34 -20.68 34 -20 34 C-20 34.66 -20 35.32 -20 36 C-26.93 36 -33.86 36 -41 36 C-41 35.34 -41 34.68 -41 34 C-40.01 34 -39.02 34 -38 34 C-38 25.75 -38 17.5 -38 9 C-43.02234339 10.42777633 -43.02234339 10.42777633 -48 12 C-47.67 9.69 -47.34 7.38 -47 5 C-39.08 5 -31.16 5 -23 5 C-23 7.64 -23 10.28 -23 13 C-23.66 13 -24.32 13 -25 13 C-25 12.01 -25 11.02 -25 10 C-27.31 9.67 -29.62 9.34 -32 9 C-32 17.25 -32 25.5 -32 34 C-29.525 33.505 -29.525 33.505 -27 33 C-25.42715469 30.36976063 -25.42715469 30.36976063 -24.4296875 27.03125 C-24.00816406 25.82082031 -23.58664063 24.61039062 -23.15234375 23.36328125 C-22.72500836 22.07603573 -22.29924481 20.78826741 -21.875 19.5 C-21.03259046 16.98414675 -20.17252509 14.47613306 -19.3046875 11.96875 C-18.7475708 10.28942383 -18.7475708 10.28942383 -18.17919922 8.57617188 C-17.79006348 7.72603516 -17.40092773 6.87589844 -17 6 C-16.01 5.67 -15.02 5.34 -14 5 C-13.31164062 6.77503906 -13.31164062 6.77503906 -12.609375 8.5859375 C-11.34859204 11.83654394 -10.08177335 15.08473205 -8.8125 18.33203125 C-7.76748035 21.00962532 -6.7453418 23.68996457 -5.75 26.38671875 C-5.255 27.71123047 -5.255 27.71123047 -4.75 29.0625 C-4.47671875 29.81660156 -4.2034375 30.57070313 -3.921875 31.34765625 C-3.04238207 33.36053553 -3.04238207 33.36053553 0 34 C-0.08378906 32.80246094 -0.16757812 31.60492188 -0.25390625 30.37109375 C-0.91468839 20.11681213 -0.99437813 10.23444565 0 0 Z M-17 16 C-17.66 18.31 -18.32 20.62 -19 23 C-17.35 23 -15.7 23 -14 23 C-14.34227572 20.02934491 -14.34227572 20.02934491 -15 17 C-15.66 16.67 -16.32 16.34 -17 16 Z " fill="#104370" transform="translate(257,232)"/>
<path d="M0 0 C1.32 0 2.64 0 4 0 C4 0.66 4 1.32 4 2 C4.33 2.33 4.66 2.66 5 3 C5.45809793 4.45954728 5.87363606 5.93252336 6.26953125 7.41015625 C6.64368164 8.77237305 6.64368164 8.77237305 7.02539062 10.16210938 C7.54241595 12.06727715 8.05556044 13.97350317 8.56445312 15.88085938 C9.78768516 20.3100176 11.07691798 24.40956574 13.19921875 28.49609375 C15 32 15 32 15 35 C14.01 35.33 13.02 35.66 12 36 C6.84360448 43.55501731 5.03206534 50.9575735 5 60 C4.34 60 3.68 60 3 60 C2.98582031 59.38511719 2.97164062 58.77023438 2.95703125 58.13671875 C2.81137804 55.66848738 2.60736827 53.39910468 2 51 C1.195625 50.54625 0.39125 50.0925 -0.4375 49.625 C-3 48 -3 48 -3.6328125 45.45703125 C-3.9147506 43.47577532 -4.15455261 41.48797104 -4.34765625 39.49609375 C-4.7431301 36.8384884 -4.7431301 36.8384884 -7.05859375 35.66015625 C-8.01958984 35.33337891 -8.01958984 35.33337891 -9 35 C-8.979375 35.804375 -8.95875 36.60875 -8.9375 37.4375 C-9 40 -9 40 -10 41 C-11.66617115 41.04063832 -13.33388095 41.042721 -15 41 C-15 37.00373097 -13.18252127 35.2737819 -11 32 C-11 31.01 -11 30.02 -11 29 C-11.66 29 -12.32 29 -13 29 C-13.06960937 29.74378906 -13.13921875 30.48757812 -13.2109375 31.25390625 C-14.22452706 34.78139865 -15.73057428 35.7465183 -18.625 37.9375 C-21.07708951 39.92847698 -21.07708951 39.92847698 -23 42 C-23.16448881 45.09648876 -23.16448881 45.09648876 -22 48 C-22.38819464 51.75254814 -22.98263309 55.36654675 -24 59 C-26.45802095 55.31296857 -26.40285195 52.39825909 -26.4375 48.125 C-26.47037109 47.41730469 -26.50324219 46.70960937 -26.53710938 45.98046875 C-26.57656771 42.12790024 -26.2551273 40.30794313 -23.7734375 37.3125 C-22.85820312 36.549375 -21.94296875 35.78625 -21 35 C-19.38068109 33.30602251 -17.77602987 31.59788314 -16.1875 29.875 C-15.39730469 29.02679688 -14.60710937 28.17859375 -13.79296875 27.3046875 C-11.69298339 25.09202433 -11.69298339 25.09202433 -12 22 C-13.1446875 23.2375 -13.1446875 23.2375 -14.3125 24.5 C-17 27 -17 27 -20 27 C-21.60355101 23.49223216 -22.22036864 20.85645121 -22 17 C-20.35 16.67 -18.7 16.34 -17 16 C-17 15.34 -17 14.68 -17 14 C-15.02 14 -13.04 14 -11 14 C-10.67 12.68 -10.34 11.36 -10 10 C-12.31 10.66 -14.62 11.32 -17 12 C-15.84826645 9.53199953 -14.95216435 7.95216435 -13 6 C-11.741875 6.0825 -10.48375 6.165 -9.1875 6.25 C-6.03348873 6.38121118 -6.03348873 6.38121118 -3.50390625 4.671875 C-3.09011719 4.12015625 -2.67632812 3.5684375 -2.25 3 C-1.5075 2.01 -0.765 1.02 0 0 Z " fill="#6189B7" transform="translate(154,38)"/>
<path d="M0 0 C2.58675725 0.03308643 5.16497438 0.10028893 7.75 0.1875 C8.47960938 0.19330078 9.20921875 0.19910156 9.9609375 0.20507812 C13.81334038 0.36267642 15.65074223 0.67727499 18.51953125 3.328125 C20.55196077 6.99615084 20.08770179 9.01176011 19 13 C18.04084432 14.3630107 17.04703036 15.70327134 16 17 C17.07218761 18.63237552 18.15821244 20.25566803 19.25 21.875 C19.85328125 22.77992188 20.4565625 23.68484375 21.078125 24.6171875 C23.01158844 27.35199094 23.01158844 27.35199094 27 29 C27 20.42 27 11.84 27 3 C26.01 3 25.02 3 24 3 C24.33 2.01 24.66 1.02 25 0 C30.445 0.495 30.445 0.495 36 1 C36 1.66 36 2.32 36 3 C35.01 3 34.02 3 33 3 C33 11.58 33 20.16 33 29 C35.31 29 37.62 29 40 29 C40 19.43 40 9.86 40 0 C44.7446812 1.1861703 45.44591624 2.35316231 48.375 6.125 C49.54482422 7.60806641 49.54482422 7.60806641 50.73828125 9.12109375 C51.85783203 10.54615234 51.85783203 10.54615234 53 12 C54.97651933 14.35491611 56.98638996 16.6766038 59 19 C59.33 13.72 59.66 8.44 60 3 C59.01 3 58.02 3 57 3 C57.33 2.01 57.66 1.02 58 0 C60.64 0 63.28 0 66 0 C66.495 1.485 66.495 1.485 67 3 C66.01 3 65.02 3 64 3 C64 12.24 64 21.48 64 31 C61 31 61 31 58.625 28.69921875 C57.325625 27.20841797 57.325625 27.20841797 56 25.6875 C52.77227647 21.96142716 52.77227647 21.96142716 49.375 18.39453125 C48 17 48 17 45 13 C45 17.95 45 22.9 45 28 C45.99 28.33 46.98 28.66 48 29 C48 29.66 48 30.32 48 31 C43.98029604 31.17395523 39.96206763 31.30047689 35.93945312 31.38452148 C34.57350479 31.41957479 33.20781634 31.46723632 31.84277344 31.52807617 C20.54575225 32.01871322 20.54575225 32.01871322 16.80175781 29.55126953 C14.68022404 27.13633215 13.33535379 24.76631357 12.05029297 21.82983398 C11.07122656 19.65409756 11.07122656 19.65409756 8 19 C8 22.3 8 25.6 8 29 C8.99 29 9.98 29 11 29 C11 29.66 11 30.32 11 31 C7.04 31 3.08 31 -1 31 C-1 30.34 -1 29.68 -1 29 C-0.01 29 0.98 29 2 29 C2 20.42 2 11.84 2 3 C1.01 3 0.02 3 -1 3 C-0.67 2.01 -0.34 1.02 0 0 Z M8 4 C8 7.96 8 11.92 8 16 C12.63019987 15.5547002 12.63019987 15.5547002 14 14 C14.33856828 8.67326964 14.33856828 8.67326964 12 4 C10.68 4 9.36 4 8 4 Z " fill="#10436F" transform="translate(24,237)"/>
<path d="M0 0 C0 0.66 0 1.32 0 2 C-1.39412109 2.05607422 -1.39412109 2.05607422 -2.81640625 2.11328125 C-12.34908785 2.48529058 -12.34908785 2.48529058 -21 6 C-21.639375 6.886875 -22.27875 7.77375 -22.9375 8.6875 C-25 11 -25 11 -26.9140625 11.1796875 C-27.97753906 11.12167969 -27.97753906 11.12167969 -29.0625 11.0625 C-30.361875 11.041875 -31.66125 11.02125 -33 11 C-35.05270463 12.84188612 -35.05270463 12.84188612 -36 15 C-34.02 14.67 -32.04 14.34 -30 14 C-30.33 15.32 -30.66 16.64 -31 18 C-32.98 18 -34.96 18 -37 18 C-37 18.66 -37 19.32 -37 20 C-38.65 20.33 -40.3 20.66 -42 21 C-41.67 21.9075 -41.34 22.815 -41 23.75 C-40 27 -40 27 -40 31 C-36.01618925 28.83735988 -33.11016455 26.28788824 -30 23 C-30.44201686 28.06109299 -31.75898277 30.41542737 -35.25 34.0625 C-36.05824219 34.93390625 -36.86648437 35.8053125 -37.69921875 36.703125 C-40 39 -40 39 -43.0625 41.3125 C-46.39678804 45.93748018 -45.36292118 51.49166293 -45 57 C-46.98 57.495 -46.98 57.495 -49 58 C-49.09857318 64.18546688 -48.76927827 70.11656514 -48 76.25 C-46.85743695 85.54490479 -46.85743695 85.54490479 -47 90 C-49.47508559 86.28737161 -49.89858708 82.75402813 -50.5625 78.4375 C-50.69180908 77.61902588 -50.82111816 76.80055176 -50.9543457 75.95727539 C-51.31424183 73.63971012 -51.6606789 71.32065663 -52 69 C-52.13664062 68.071875 -52.27328125 67.14375 -52.4140625 66.1875 C-53.6475149 56.03794885 -54.54885288 44.61898704 -50.68359375 35.0390625 C-49.13108534 30.40815169 -49.04172097 25.33554585 -50.90234375 20.80078125 C-51.61821228 19.46330446 -52.35063724 18.13451974 -53.1015625 16.81640625 C-54.43568075 14.11916718 -54.41022886 11.93997349 -54 9 C-51.53878903 5.30818355 -50.52870218 5.38873522 -46.3125 4.5 C-38.59500992 2.9809022 -38.59500992 2.9809022 -32 -1 C-8.38862157 -3.72827625 -8.38862157 -3.72827625 0 0 Z " fill="#F4EFD2" transform="translate(174,34)"/>
<path d="M0 0 C1.60875 0.4021875 1.60875 0.4021875 3.25 0.8125 C2.73829223 9.31355633 1.21223603 17.39608616 -0.6875 25.6875 C-0.95240234 26.88375 -1.21730469 28.08 -1.49023438 29.3125 C-2.62330384 34.33961714 -3.81778221 39.03336595 -5.75 43.8125 C-6.45533755 50.10557662 -6.28155185 55.36802423 -2.75 60.8125 C-1.78760548 59.56562408 -0.83025991 58.31485031 0.125 57.0625 C0.65867188 56.36640625 1.19234375 55.6703125 1.7421875 54.953125 C3.14238914 52.96527397 4.22855265 51.01406614 5.25 48.8125 C6.44997482 52.41242445 5.93836502 53.57400756 4.81640625 57.13671875 C4.49736328 58.16474609 4.17832031 59.19277344 3.84960938 60.25195312 C3.50736328 61.32380859 3.16511719 62.39566406 2.8125 63.5 C2.47412109 64.58345703 2.13574219 65.66691406 1.78710938 66.78320312 C0.94918895 69.46218814 0.10320898 72.1383526 -0.75 74.8125 C-2.07 74.8125 -3.39 74.8125 -4.75 74.8125 C-4.72317139 74.255625 -4.69634277 73.69875 -4.66870117 73.125 C-4.51623473 67.54908457 -5.20251012 63.05137914 -7.0625 57.8125 C-7.31813721 57.06701904 -7.57377441 56.32153809 -7.8371582 55.5534668 C-11.13275734 46.27234705 -15.22025319 37.30640968 -19.26171875 28.33203125 C-19.90765991 26.89766724 -19.90765991 26.89766724 -20.56665039 25.43432617 C-21.2937496 23.82336715 -22.02399538 22.21381844 -22.75952148 20.60668945 C-24.78486627 16.08445687 -24.78486627 16.08445687 -24.4375 13.375 C-24.210625 12.859375 -23.98375 12.34375 -23.75 11.8125 C-22.76 13.7925 -21.77 15.7725 -20.75 17.8125 C-16.55617474 18.00756164 -13.44870098 17.88842655 -9.75 15.8125 C-8.85664423 13.34987071 -8.85664423 13.34987071 -8.6875 10.5 C-7.11831376 -0.35591569 -7.11831376 -0.35591569 0 0 Z " fill="#F8F1D2" transform="translate(187.75,43.1875)"/>
<path d="M0 0 C0.66 0.33 1.32 0.66 2 1 C2.33 7.27 2.66 13.54 3 20 C5.31 20.33 7.62 20.66 10 21 C10 14.4 10 7.8 10 1 C11.32 1 12.64 1 14 1 C14.33 3.64 14.66 6.28 15 9 C15.51433594 8.67644531 16.02867188 8.35289062 16.55859375 8.01953125 C19.80833949 6.66243743 22.5495352 6.69858191 26.0625 6.6875 C27.90521484 6.66236328 27.90521484 6.66236328 29.78515625 6.63671875 C33 7 33 7 34.921875 8.1640625 C36.43963858 10.7486599 36.29241763 12.71483368 36.1875 15.6875 C36.14689453 17.17830078 36.14689453 17.17830078 36.10546875 18.69921875 C36.07066406 19.45847656 36.03585938 20.21773437 36 21 C37.65 20.67 39.3 20.34 41 20 C41.33 13.73 41.66 7.46 42 1 C42.99 1 43.98 1 45 1 C45 7.6 45 14.2 45 21 C47.31 20.34 49.62 19.68 52 19 C52.33 15.04 52.66 11.08 53 7 C53.99 7 54.98 7 56 7 C56.495 13.435 56.495 13.435 57 20 C57.66 20 58.32 20 59 20 C59.495 13.565 59.495 13.565 60 7 C61.32 7 62.64 7 64 7 C64 11.62 64 16.24 64 21 C64.99 20.505 64.99 20.505 66 20 C66.46954261 16.95418731 66.46954261 16.95418731 66.625 13.4375 C66.69976562 12.23996094 66.77453125 11.04242188 66.8515625 9.80859375 C66.92503906 8.41833984 66.92503906 8.41833984 67 7 C68.32 7 69.64 7 71 7 C71.05383848 9.45862401 71.09359038 11.9160755 71.125 14.375 C71.14175781 15.07367188 71.15851563 15.77234375 71.17578125 16.4921875 C71.19344267 18.32897486 71.10303261 20.16601963 71 22 C69 24 69 24 66.10202026 24.24050903 C64.86291901 24.23606781 63.62381775 24.23162659 62.34716797 24.22705078 C61.66412598 24.22734283 60.98108398 24.22763489 60.27734375 24.22793579 C58.01549659 24.22654039 55.75397724 24.21096967 53.4921875 24.1953125 C51.92563049 24.19158311 50.35907116 24.18873579 48.79251099 24.18673706 C44.66605203 24.17909476 40.53973349 24.15944124 36.41333008 24.1373291 C32.20395813 24.11688346 27.99456352 24.1077381 23.78515625 24.09765625 C15.523373 24.07619583 7.26170396 24.04205279 -1 24 C-1.02887236 20.18751574 -1.04675492 16.3750593 -1.0625 12.5625 C-1.07087891 11.47388672 -1.07925781 10.38527344 -1.08789062 9.26367188 C-1.09111328 8.22919922 -1.09433594 7.19472656 -1.09765625 6.12890625 C-1.10289307 5.17056885 -1.10812988 4.21223145 -1.11352539 3.22485352 C-1 1 -1 1 0 0 Z M15.6875 13.1875 C13.85507857 16.24153571 13.84332796 17.54741235 14 21 C16.62506802 21.02690844 19.24986173 21.04679404 21.875 21.0625 C22.62136719 21.07087891 23.36773437 21.07925781 24.13671875 21.08789062 C28.19845578 21.20688084 28.19845578 21.20688084 32 20 C32 17.03 32 14.06 32 11 C23.41944627 10.20057599 23.41944627 10.20057599 15.6875 13.1875 Z " fill="#0F4371" transform="translate(25,198)"/>
<path d="M0 0 C0.66 -0.33 1.32 -0.66 2 -1 C4.88370333 -1.07194869 7.74239664 -1.09291708 10.625 -1.0625 C11.42679688 -1.05798828 12.22859375 -1.05347656 13.0546875 -1.04882812 C15.03649006 -1.03703168 17.01825433 -1.01909605 19 -1 C18.67 1.64 18.34 4.28 18 7 C17.4121875 6.2575 17.4121875 6.2575 16.8125 5.5 C14.44908285 3.54406857 12.98564997 3.75792027 10 4 C10 6.31 10 8.62 10 11 C12.64 11 15.28 11 18 11 C18 13.64 18 16.28 18 19 C17.34 19 16.68 19 16 19 C16 18.01 16 17.02 16 16 C13.03 16.495 13.03 16.495 10 17 C10.495 21.455 10.495 21.455 11 26 C13.41619823 26.25030977 13.41619823 26.25030977 16 26 C16.66 25.01 17.32 24.02 18 23 C18.66 23 19.32 23 20 23 C19.67 25.31 19.34 27.62 19 30 C13.06 30 7.12 30 1 30 C1 29.34 1 28.68 1 28 C1.66 28 2.32 28 3 28 C3.33 19.42 3.66 10.84 4 2 C2.35 2 0.7 2 -1 2 C-1 4.31 -1 6.62 -1 9 C-1.66 9 -2.32 9 -3 9 C-3.66 7.35 -4.32 5.7 -5 4 C-10.02847985 2.90923606 -10.02847985 2.90923606 -14.875 4.25 C-17.47412512 6.39045598 -17.89179201 7.96936323 -18.23828125 11.26953125 C-18.41218226 17.22792911 -17.95646229 20.46170502 -14 25 C-11.04335481 26.4783226 -8.25770263 26.06032783 -5 26 C-4.34 24.68 -3.68 23.36 -3 22 C-2.01 22 -1.02 22 0 22 C-0.4847561 28.54420732 -0.4847561 28.54420732 -2.625 30.4375 C-8.90170262 31.92408746 -14.3851336 31.00927481 -20 28 C-24.57664574 24.02554449 -25.5332797 18.83857943 -26 13 C-25.31917477 7.16435514 -23.07622588 4.66633153 -18.65625 1.1640625 C-13.30164262 -2.59931722 -6.10436638 -1.33533015 0 0 Z " fill="#104370" transform="translate(117,238)"/>
<path d="M0 0 C3.63 0 7.26 0 11 0 C11 0.99 11 1.98 11 3 C10.01 3 9.02 3 8 3 C8.11464015 5.70912781 8.24137154 8.41679661 8.375 11.125 C8.4059375 11.88554687 8.436875 12.64609375 8.46875 13.4296875 C8.67539195 20.76959277 8.67539195 20.76959277 12 27 C14.33297433 27.04092937 16.66705225 27.04241723 19 27 C19.86809439 21.79826905 20.12515348 16.83021184 20.0625 11.5625 C20.05798828 10.83095703 20.05347656 10.09941406 20.04882812 9.34570312 C20.03718148 7.56376581 20.01925191 5.78187137 20 4 C19.01 3.67 18.02 3.34 17 3 C17.33 2.01 17.66 1.02 18 0 C24.93 0 31.86 0 39 0 C39.495 1.485 39.495 1.485 40 3 C39.01 3 38.02 3 37 3 C37 10.92 37 18.84 37 27 C39.64 27 42.28 27 45 27 C45 26.01 45 25.02 45 24 C45.66 24 46.32 24 47 24 C47 26.31 47 28.62 47 31 C40.73 31 34.46 31 28 31 C28 30.34 28 29.68 28 29 C28.66 29 29.32 29 30 29 C30.33 20.42 30.66 11.84 31 3 C29.02 3 27.04 3 25 3 C25.01571045 3.57443848 25.0314209 4.14887695 25.04760742 4.74072266 C25.11035513 7.36871309 25.14911506 9.99654537 25.1875 12.625 C25.21263672 13.52863281 25.23777344 14.43226563 25.26367188 15.36328125 C25.32180125 20.67243093 25.05342685 24.44146416 22 29 C18.63204875 31.42805788 16.02087191 32.25424769 11.9375 32 C7.71137467 31.25516565 5.5916311 29.45550813 3 26 C1.60369816 21.33111572 1.88798945 16.51287483 1.9375 11.6875 C1.94201172 10.85154297 1.94652344 10.01558594 1.95117188 9.15429688 C1.96289452 7.10283351 1.98082797 5.05140727 2 3 C1.01 3 0.02 3 -1 3 C-0.67 2.01 -0.34 1.02 0 0 Z " fill="#10436F" transform="translate(166,237)"/>
<path d="M0 0 C0.33 4.29 0.66 8.58 1 13 C3.475 13.495 3.475 13.495 6 14 C5.87625 13.154375 5.7525 12.30875 5.625 11.4375 C6.14135858 6.70421306 8.48279699 4.10643477 12 1 C15.58003773 -0.19334591 18.24315896 -0.33543224 22 0 C23.9375 1.5625 23.9375 1.5625 25 4 C25.1875 7.75 25.1875 7.75 25 11 C23.68 11 22.36 11 21 11 C20.505 8.03 20.505 8.03 20 5 C16.56769552 5.26393501 16.56769552 5.26393501 13 6 C10.63019987 8.95377498 10.63019987 8.95377498 11 13 C17.27 13 23.54 13 30 13 C29.938125 11.411875 29.87625 9.82375 29.8125 8.1875 C29.63023101 3.50926268 29.63023101 3.50926268 31.3046875 1.203125 C34.19593235 -0.84872618 36.57228221 -0.40667838 40 0 C44.33729795 2.25205855 47.13397371 4.4386024 49 9 C49 11.64 49 14.28 49 17 C26.23 17 3.46 17 -20 17 C-20 6.84671533 -20 6.84671533 -17.1875 4 C-16.66542969 3.443125 -16.14335937 2.88625 -15.60546875 2.3125 C-11.26221901 -1.23818592 -5.25965293 -0.06187827 0 0 Z M-16 9 C-16.95231597 11.12119128 -16.95231597 11.12119128 -17 13 C-15.91447634 14.31262571 -15.91447634 14.31262571 -13.27734375 14.09765625 C-12.17519531 14.08605469 -11.07304687 14.07445312 -9.9375 14.0625 C-8.83277344 14.05347656 -7.72804687 14.04445312 -6.58984375 14.03515625 C-5.73519531 14.02355469 -4.88054687 14.01195312 -4 14 C-3.97310784 12.52093108 -3.95365379 11.04172517 -3.9375 9.5625 C-3.92589844 8.73878906 -3.91429687 7.91507813 -3.90234375 7.06640625 C-3.76732652 5.00836062 -3.76732652 5.00836062 -5 4 C-10.5365471 3.2450163 -12.57804145 4.69810925 -16 9 Z M34 4 C34 7.3 34 10.6 34 14 C37.63 14 41.26 14 45 14 C44.72834877 9.12364432 44.72834877 9.12364432 42.3125 5.0625 C39.40913094 3.72851962 37.15869424 3.78463448 34 4 Z " fill="#0F4371" transform="translate(202,205)"/>
<path d="M0 0 C0 1.32 0 2.64 0 4 C-8.68532268 4.15217632 -17.27573808 3.66818774 -25.9375 3.0625 C-28.67693465 2.8766605 -31.41656724 2.69386036 -34.15625 2.51171875 C-35.16328224 2.44443573 -35.16328224 2.44443573 -36.19065857 2.37579346 C-44.78827241 1.80684579 -53.39265387 1.38891695 -62 1 C-62 0.34 -62 -0.32 -62 -1 C-59.91780951 -1.81542431 -57.83420239 -2.62723189 -55.75 -3.4375 C-54.58984375 -3.88996094 -53.4296875 -4.34242187 -52.234375 -4.80859375 C-36.43069574 -10.62999734 -14.65726159 -7.27311087 0 0 Z " fill="#EFEED1" transform="translate(213,15)"/>
<path d="M0 0 C70.62 0 141.24 0 214 0 C214 0.66 214 1.32 214 2 C143.38 2 72.76 2 0 2 C0 1.34 0 0.68 0 0 Z " fill="#0D406E" transform="translate(37,298)"/>
<path d="M0 0 C20.13 0 40.26 0 61 0 C58.88689396 4.22621207 58.11551555 5.0704037 54 7 C51.39337158 7.36749268 51.39337158 7.36749268 48.58300781 7.35644531 C47.52551331 7.35944641 46.4680188 7.36244751 45.378479 7.36553955 C44.24811218 7.35319275 43.11774536 7.34084595 41.953125 7.328125 C40.78618103 7.32625183 39.61923706 7.32437866 38.41693115 7.32244873 C35.95582208 7.31573575 33.49472354 7.30183634 31.03369141 7.28125 C27.25022563 7.25000186 23.46717596 7.2402692 19.68359375 7.234375 C17.29426571 7.22520883 14.90494193 7.2148343 12.515625 7.203125 C11.37716125 7.19887512 10.23869751 7.19462524 9.06573486 7.19024658 C8.020849 7.18063904 6.97596313 7.17103149 5.89941406 7.16113281 C4.97517639 7.15430481 4.05093872 7.14747681 3.09869385 7.14044189 C1 7 1 7 0 6 C0 4.02 0 2.04 0 0 Z " fill="#FEF5D3" transform="translate(73,155)"/>
<path d="M0 0 C1.32 0 2.64 0 4 0 C4.33 4.29 4.66 8.58 5 13 C7.31 13.33 9.62 13.66 12 14 C12 9.38 12 4.76 12 0 C13.32 0 14.64 0 16 0 C16 4.29 16 8.58 16 13 C18.31 13 20.62 13 23 13 C22.96519531 12.31292969 22.93039063 11.62585938 22.89453125 10.91796875 C22.86746094 10.01691406 22.84039062 9.11585938 22.8125 8.1875 C22.76029297 6.84751953 22.76029297 6.84751953 22.70703125 5.48046875 C23 3 23 3 24.3046875 1.203125 C27.19593235 -0.84872618 29.57228221 -0.40667838 33 0 C37.33729795 2.25205855 40.13397371 4.4386024 42 9 C42.14561125 11.67536401 42.04925791 14.3181804 42 17 C40.251427 17.00616333 40.251427 17.00616333 38.4675293 17.01245117 C34.14530123 17.03421176 29.82398752 17.08846863 25.50219727 17.15258789 C23.63119262 17.1757949 21.76005683 17.19016995 19.88891602 17.19555664 C17.19984972 17.20482682 14.51285355 17.24577159 11.82421875 17.29296875 C10.98662521 17.2890361 10.14903168 17.28510345 9.28605652 17.28105164 C6.64713977 17.29183617 6.64713977 17.29183617 3 18 C1.05269878 20.3825698 1.05269878 20.3825698 0 23 C-2.6875 23.8125 -2.6875 23.8125 -5 24 C-5.33 23.01 -5.66 22.02 -6 21 C-5.19175781 20.34644531 -4.38351563 19.69289062 -3.55078125 19.01953125 C-0.26704797 15.13235541 -0.22708868 12.60969222 -0.1875 7.6875 C-0.16236328 6.94693359 -0.13722656 6.20636719 -0.11132812 5.44335938 C-0.05281557 3.62947031 -0.02345651 1.81468097 0 0 Z M27 4 C27 7.3 27 10.6 27 14 C30.63 14 34.26 14 38 14 C37.72834877 9.12364432 37.72834877 9.12364432 35.3125 5.0625 C32.40913094 3.72851962 30.15869424 3.78463448 27 4 Z " fill="#0F4370" transform="translate(109,205)"/>
<path d="M0 0 C2.22889496 -0.05428973 4.45817471 -0.09292338 6.6875 -0.125 C8.54955078 -0.15980469 8.54955078 -0.15980469 10.44921875 -0.1953125 C14.70865677 0.03898002 17.61989958 0.76266859 20.8125 3.625 C22.5476617 7.09532341 22.75438665 10.25680531 22 14 C20.64522086 16.79987689 19.45408118 17.85920578 17 20 C13.1875 20.875 13.1875 20.875 10 21 C10 25.29 10 29.58 10 34 C11.32 34 12.64 34 14 34 C14 34.66 14 35.32 14 36 C9.38 36 4.76 36 0 36 C0 35.34 0 34.68 0 34 C0.99 34 1.98 34 3 34 C3 23.77 3 13.54 3 3 C2.01 3 1.02 3 0 3 C0 2.01 0 1.02 0 0 Z M10 4 C10 8.95 10 13.9 10 19 C14.94463635 17.66436384 14.94463635 17.66436384 16 15 C16.53497308 9.70662972 16.53497308 9.70662972 14.6875 5 C12.89677829 3.7450988 12.89677829 3.7450988 10 4 Z " fill="#13446E" transform="translate(0,232)"/>
<path d="M0 0 C0.99 0.33 1.98 0.66 3 1 C3 7.6 3 14.2 3 21 C10.59 21 18.18 21 26 21 C23.12651296 13.28828371 23.12651296 13.28828371 19.640625 11.78125 C18.85171875 11.6884375 18.0628125 11.595625 17.25 11.5 C16.45078125 11.3865625 15.6515625 11.273125 14.828125 11.15625 C14.22484375 11.1046875 13.6215625 11.053125 13 11 C13 11.99 13 12.98 13 14 C11.68 14 10.36 14 9 14 C8.95745644 12.00045254 8.95919217 9.99958364 9 8 C10.63930993 6.36069007 12.49743674 6.78998633 14.75 6.75 C20.46887618 6.82331893 23.1458265 8.1458265 27.1875 12.1875 C29.51896253 15.80528668 30.22464085 18.77076827 31 23 C30 24 30 24 27.04077148 24.11352539 C25.74727783 24.10828857 24.45378418 24.10305176 23.12109375 24.09765625 C22.09110008 24.09553383 22.09110008 24.09553383 21.04029846 24.09336853 C18.83932199 24.08775479 16.63844591 24.07520007 14.4375 24.0625 C12.94856917 24.05748676 11.45963676 24.05292355 9.97070312 24.04882812 C6.31376925 24.03778093 2.65689442 24.02050713 -1 24 C-1.02887236 20.18751574 -1.04675492 16.3750593 -1.0625 12.5625 C-1.07087891 11.47388672 -1.07925781 10.38527344 -1.08789062 9.26367188 C-1.09111328 8.22919922 -1.09433594 7.19472656 -1.09765625 6.12890625 C-1.10289307 5.17056885 -1.10812988 4.21223145 -1.11352539 3.22485352 C-1 1 -1 1 0 0 Z " fill="#104370" transform="translate(255,198)"/>
<path d="M0 0 C1 1 1 1 1.0625 4.5625 C1.041875 5.696875 1.02125 6.83125 1 8 C0.34 8 -0.32 8 -1 8 C-1.33 7.01 -1.66 6.02 -2 5 C-3.91666667 4.16666667 -3.91666667 4.16666667 -6 4 C-6.99 4.495 -6.99 4.495 -8 5 C-8.03872687 7.33538907 -8.03872687 7.33538907 -7 10 C-5.31316175 11.41558788 -3.57600618 12.55435118 -1.69140625 13.69140625 C0.38027332 15.29420684 1.10403106 16.54621571 2 19 C2.26665846 22.1554584 1.93125865 24.9734094 1 28 C-1.5 30.625 -1.5 30.625 -5 32 C-8.09345195 32.05624458 -10.99527128 31.74011213 -14 31 C-15 30 -15 30 -15.09765625 28.15234375 C-15.06510417 26.1015625 -15.03255208 24.05078125 -15 22 C-14.01 22 -13.02 22 -12 22 C-11.34 23.65 -10.68 25.3 -10 27 C-8.35 27 -6.7 27 -5 27 C-4.67 25.35 -4.34 23.7 -4 22 C-5.11375 21.13375 -5.11375 21.13375 -6.25 20.25 C-13.71730769 14.14038462 -13.71730769 14.14038462 -14.4375 8.6875 C-14 5 -14 5 -11.5 2.0625 C-7.71394489 -0.69345897 -4.55135866 -0.46285003 0 0 Z " fill="#11436F" transform="translate(163,237)"/>
<path d="M0 0 C2.15958132 2.15958132 2.50031269 3.1555919 3.2890625 6.02734375 C3.50820312 6.81947266 3.72734375 7.61160156 3.953125 8.42773438 C4.17484375 9.25595703 4.3965625 10.08417969 4.625 10.9375 C4.96917969 12.1740332 4.96917969 12.1740332 5.3203125 13.43554688 C7 19.58940197 7 19.58940197 7 23 C4.36 23 1.72 23 -1 23 C-1 22.34 -1 21.68 -1 21 C-1.66 21.33 -2.32 21.66 -3 22 C-6.86061033 23.28687011 -9.94150283 23.13757618 -14 23 C-13.47916667 21.046875 -12.95833333 19.09375 -12.4375 17.140625 C-11.86650651 14.71098139 -11.86650651 14.71098139 -12 11 C-9.03 10.01 -6.06 9.02 -3 8 C-3.66 7.67 -4.32 7.34 -5 7 C-4.75 4.625 -4.75 4.625 -4 2 C-1.9375 0.6875 -1.9375 0.6875 0 0 Z " fill="#12436F" transform="translate(158,42)"/>
<path d="M0 0 C2.50298434 2.93828597 3.46930939 5.17902761 4 9 C3.01 9.33 2.02 9.66 1 10 C-4.15639552 17.55501731 -5.96793466 24.9575735 -6 34 C-6.66 34 -7.32 34 -8 34 C-8.01417969 33.38511719 -8.02835938 32.77023438 -8.04296875 32.13671875 C-8.09066406 31.32847656 -8.13835937 30.52023438 -8.1875 29.6875 C-8.22230469 28.88699219 -8.25710937 28.08648437 -8.29296875 27.26171875 C-8.79326592 24.73548786 -8.79326592 24.73548786 -11.5 23.65625 C-14 22 -14 22 -14.70703125 18.64453125 C-14.74183594 17.37996094 -14.77664062 16.11539063 -14.8125 14.8125 C-14.86019531 13.54019531 -14.90789062 12.26789063 -14.95703125 10.95703125 C-14.97830078 9.49330078 -14.97830078 9.49330078 -15 8 C-14.01 8.33 -13.02 8.66 -12 9 C-11.67 8.34 -11.34 7.68 -11 7 C-9.02111039 6.27306096 -7.02045442 5.60183749 -5 5 C-5.33 4.01 -5.66 3.02 -6 2 C-4.02 1.34 -2.04 0.68 0 0 Z " fill="#668CBA" transform="translate(165,64)"/>
<path d="M0 0 C1.32 0 2.64 0 4 0 C4.08703823 3.43734063 4.14040272 6.87439837 4.1875 10.3125 C4.21263672 11.28896484 4.23777344 12.26542969 4.26367188 13.27148438 C4.27333984 14.20927734 4.28300781 15.14707031 4.29296875 16.11328125 C4.3086792 16.97735596 4.32438965 17.84143066 4.34057617 18.73168945 C4 21 4 21 2.69262695 22.78198242 C-0.1476777 24.82587106 -2.62069366 24.34958341 -6 24 C-9.66887827 22.29354499 -12.34074668 20.03914665 -15 17 C-16.29449495 13.11651516 -16.13203312 10.09302664 -16 6 C-15 5 -15 5 -11.5625 4.875 C-8 5 -8 5 -6 6 C-6 6.99 -6 7.98 -6 9 C-7.98 9 -9.96 9 -12 9 C-10.967098 13.85314517 -10.967098 13.85314517 -8.25 17.875 C-5.50679352 19.38445598 -5.50679352 19.38445598 0 20 C0 13.4 0 6.8 0 0 Z " fill="#0F4370" transform="translate(17,205)"/>
<path d="M0 0 C2.97 0 5.94 0 9 0 C9 0.66 9 1.32 9 2 C8.34 2 7.68 2 7 2 C7.33 6.29 7.66 10.58 8 15 C9.32 15 10.64 15 12 15 C12.33 10.71 12.66 6.42 13 2 C12.34 2 11.68 2 11 2 C11 1.34 11 0.68 11 0 C13.64 0 16.28 0 19 0 C19 0.66 19 1.32 19 2 C18.34 2 17.68 2 17 2 C17.05220703 3.21236328 17.05220703 3.21236328 17.10546875 4.44921875 C17.13253906 5.51785156 17.15960938 6.58648437 17.1875 7.6875 C17.23970703 9.27111328 17.23970703 9.27111328 17.29296875 10.88671875 C16.96122395 14.41206019 16.12397898 16.19455704 14 19 C11.125 20.5625 11.125 20.5625 8 21 C4.8929491 19.51708934 3.44939528 18.1768817 2.2109375 14.93359375 C1.05110292 10.36384551 0.81188692 6.633641 2 2 C1.34 2 0.68 2 0 2 C0 1.34 0 0.68 0 0 Z " fill="#F5A11F" transform="translate(34,275)"/>
<path d="M0 0 C0.06058594 1.27617187 0.12117187 2.55234375 0.18359375 3.8671875 C0.26799568 5.53647016 0.35264386 7.20574037 0.4375 8.875 C0.47681641 9.71675781 0.51613281 10.55851563 0.55664062 11.42578125 C0.59853516 12.23144531 0.64042969 13.03710938 0.68359375 13.8671875 C0.72025146 14.61081543 0.75690918 15.35444336 0.79467773 16.12060547 C0.89955865 18.08864312 0.89955865 18.08864312 2 20 C2.33 13.73 2.66 7.46 3 1 C4.32 1 5.64 1 7 1 C7.02887512 4.64581687 7.04675585 8.29160463 7.0625 11.9375 C7.07087891 12.97841797 7.07925781 14.01933594 7.08789062 15.09179688 C7.09111328 16.08115234 7.09433594 17.07050781 7.09765625 18.08984375 C7.10289307 19.00628662 7.10812988 19.92272949 7.11352539 20.86694336 C7 23 7 23 6 24 C4.48071962 24.07179964 2.95832518 24.08392007 1.4375 24.0625 C0.61121094 24.05347656 -0.21507812 24.04445312 -1.06640625 24.03515625 C-2.02353516 24.01775391 -2.02353516 24.01775391 -3 24 C-3.96088383 21.11734851 -4.11670941 19.32337729 -4.09765625 16.33203125 C-4.09443359 15.43935547 -4.09121094 14.54667969 -4.08789062 13.62695312 C-4.07951172 12.69818359 -4.07113281 11.76941406 -4.0625 10.8125 C-4.05798828 9.87212891 -4.05347656 8.93175781 -4.04882812 7.96289062 C-4.03704626 5.64186288 -4.02059558 3.32096356 -4 1 C-2 0 -2 0 0 0 Z " fill="#0F436F" transform="translate(158,198)"/>
<path d="M0 0 C4.2742558 1.5830577 6.26531794 4.50568404 9 8 C9.33 6.35 9.66 4.7 10 3 C9.34 3 8.68 3 8 3 C8 2.01 8 1.02 8 0 C10.31 0 12.62 0 15 0 C15 0.99 15 1.98 15 3 C14.34 3 13.68 3 13 3 C13 7.95 13 12.9 13 18 C8.14285714 15.57142857 8.14285714 15.57142857 6 13 C6 12.34 6 11.68 6 11 C5.34 11 4.68 11 4 11 C3.67 12.32 3.34 13.64 3 15 C3.66 15 4.32 15 5 15 C5 15.66 5 16.32 5 17 C3.02 17.33 1.04 17.66 -1 18 C-2.21456051 14.35631848 -1.91547658 11.69829989 -1.625 7.875 C-1.53476562 6.61429687 -1.44453125 5.35359375 -1.3515625 4.0546875 C-1 1 -1 1 0 0 Z " fill="#F7A21E" transform="translate(64,277)"/>
<path d="M0 0 C1.30835788 3.92507365 0.32603515 5.2034861 -1.3125 8.9375 C-1.98732422 10.49791016 -1.98732422 10.49791016 -2.67578125 12.08984375 C-3.73710026 14.42224097 -4.83015586 16.7207262 -6 19 C-7.65 19 -9.3 19 -11 19 C-13.18392043 14.45016577 -14.58585321 11.15550825 -14 6 C-11.4938967 2.24084505 -10.18050197 2.27436746 -5.875 1.3125 C-4.23144531 0.93544922 -4.23144531 0.93544922 -2.5546875 0.55078125 C-1.71164063 0.36902344 -0.86859375 0.18726563 0 0 Z " fill="#7FC2C6" transform="translate(134,37)"/>
<path d="M0 0 C8.19256018 -0.63019694 8.19256018 -0.63019694 11.5625 2 C12.036875 2.66 12.51125 3.32 13 4 C12.608125 4.9075 12.21625 5.815 11.8125 6.75 C10.63986718 9.92364868 10.63986718 9.92364868 12.1875 12.3125 C13.99418062 14.22861864 13.99418062 14.22861864 17 15 C17 15.66 17 16.32 17 17 C14 18 14 18 11.4375 16.75 C9 15 9 15 7 12 C6.67 12.99 6.34 13.98 6 15 C6.66 15 7.32 15 8 15 C7.67 15.99 7.34 16.98 7 18 C4.69 17.67 2.38 17.34 0 17 C0.0721875 16.40832031 0.144375 15.81664062 0.21875 15.20703125 C1.26842554 7.52725118 1.26842554 7.52725118 0 0 Z M6 3 C6 4.65 6 6.3 6 8 C6.66 8 7.32 8 8 8 C7.67 6.35 7.34 4.7 7 3 C6.67 3 6.34 3 6 3 Z " fill="#EF9E21" transform="translate(153,277)"/>
<path d="M0 0 C0.66 0 1.32 0 2 0 C1.6893306 2.70855454 1.37652255 5.41683388 1.0625 8.125 C0.97548828 8.88554688 0.88847656 9.64609375 0.79882812 10.4296875 C0.42639647 13.62984102 0.03645276 16.79629338 -0.53125 19.96875 C-1.16914904 24.09383044 -1.35984305 28.20890466 -1.5625 32.375 C-1.60568359 33.20644531 -1.64886719 34.03789063 -1.69335938 34.89453125 C-1.79861805 36.92953228 -1.89973072 38.96474703 -2 41 C-1.01 41.33 -0.02 41.66 1 42 C0.67 44.64 0.34 47.28 0 50 C-1.65 50.66 -3.3 51.32 -5 52 C-6.08559499 12.17118998 -6.08559499 12.17118998 0 0 Z " fill="#D6DACD" transform="translate(206,51)"/>
<path d="M0 0 C0 0.66 0 1.32 0 2 C1.65 2 3.3 2 5 2 C4.34 2.66 3.68 3.32 3 4 C3 4.99 3 5.98 3 7 C1.02 7.33 -0.96 7.66 -3 8 C-3.33 8.99 -3.66 9.98 -4 11 C-4.99 10.34 -5.98 9.68 -7 9 C-7.33 9.99 -7.66 10.98 -8 12 C-9.32 11.34 -10.64 10.68 -12 10 C-11.979375 10.804375 -11.95875 11.60875 -11.9375 12.4375 C-12 15 -12 15 -13 16 C-14.66617115 16.04063832 -16.33388095 16.042721 -18 16 C-18 12.62268144 -17.54983086 12.0672036 -15.5625 9.5 C-13.80256117 7.21358374 -12.93348793 5.80046379 -12 3 C-8.27281019 0.60394941 -4.37260982 0 0 0 Z " fill="#638ABA" transform="translate(157,63)"/>
<path d="M0 0 C3.63 0 7.26 0 11 0 C10.67 1.65 10.34 3.3 10 5 C9.01 4.67 8.02 4.34 7 4 C6.67 4.99 6.34 5.98 6 7 C7.32 6.67 8.64 6.34 10 6 C9.979375 6.804375 9.95875 7.60875 9.9375 8.4375 C9.70366379 10.93354885 9.70366379 10.93354885 11 12 C11.04063832 13.66617115 11.042721 15.33388095 11 17 C7.52674819 18.1577506 4.63932552 18.06866652 1 18 C0.04380267 14.00204108 -0.1039592 10.29196078 -0.0625 6.1875 C-0.05347656 5.02605469 -0.04445312 3.86460937 -0.03515625 2.66796875 C-0.02355469 1.78753906 -0.01195312 0.90710938 0 0 Z M6 10 C6 11.32 6 12.64 6 14 C6.99 14 7.98 14 9 14 C8.67 12.68 8.34 11.36 8 10 C7.34 10 6.68 10 6 10 Z " fill="#F19E20" transform="translate(132,277)"/>
<path d="M0 0 C4.95 0 9.9 0 15 0 C15 2.64 15 5.28 15 8 C15.66 8 16.32 8 17 8 C17 5.36 17 2.72 17 0 C17.99 0 18.98 0 20 0 C20.1953125 6.0546875 20.1953125 6.0546875 20 8 C19.34 8.66 18.68 9.32 18 10 C15.99279077 9.71325582 13.9914056 9.38133299 12 9 C11.67 9.33 11.34 9.66 11 10 C9.33382885 10.04063832 7.66611905 10.042721 6 10 C6 9.34 6 8.68 6 8 C7.32 8 8.64 8 10 8 C10 7.34 10 6.68 10 6 C7.36 6 4.72 6 2 6 C2 7.32 2 8.64 2 10 C1.34 10 0.68 10 0 10 C0 6.7 0 3.4 0 0 Z " fill="#C5DFCE" transform="translate(78,140)"/>
<path d="M0 0 C2.64 0 5.28 0 8 0 C8.33 1.65 8.66 3.3 9 5 C11.18490007 2.32357511 11.18490007 2.32357511 11 0 C13.31 0 15.62 0 18 0 C18 0.66 18 1.32 18 2 C17.38125 2.598125 16.7625 3.19625 16.125 3.8125 C12.3940961 7.65313637 11.72420179 11.80988715 11 17 C11.99 17 12.98 17 14 17 C14 17.66 14 18.32 14 19 C10.30581799 20.231394 7.7943739 19.64432764 4 19 C4.33 18.34 4.66 17.68 5 17 C5.66 17 6.32 17 7 17 C5.62947693 9.56555439 5.62947693 9.56555439 2 3 C1.34 2.67 0.68 2.34 0 2 C0 1.34 0 0.68 0 0 Z " fill="#F8A41F" transform="translate(238,275)"/>
<path d="M0 0 C2.64 0 5.28 0 8 0 C8.33 2.64 8.66 5.28 9 8 C9.66 5.36 10.32 2.72 11 0 C12.98 0 14.96 0 17 0 C17 0.99 17 1.98 17 3 C16.34 3 15.68 3 15 3 C14.81824219 3.66386719 14.63648437 4.32773437 14.44921875 5.01171875 C13.10476709 9.73453613 11.85015263 13.92835339 9 18 C6.0240927 15.5073597 5.12649386 13.02381517 3.9375 9.375 C3.34594144 7.56468826 2.71079012 5.76690338 2 4 C1.34 3.67 0.68 3.34 0 3 C0 2.01 0 1.02 0 0 Z " fill="#F9A41E" transform="translate(106,277)"/>
<path d="M0 0 C4.29 0 8.58 0 13 0 C13 1.65 13 3.3 13 5 C12.01 5.495 12.01 5.495 11 6 C11 5.34 11 4.68 11 4 C10.34 4 9.68 4 9 4 C9 7.63 9 11.26 9 15 C9.66 15 10.32 15 11 15 C11 15.66 11 16.32 11 17 C7.625 17.625 7.625 17.625 4 18 C3.34 17.34 2.68 16.68 2 16 C2.33 15.67 2.66 15.34 3 15 C3.23363881 13.15108054 3.41303635 11.29511969 3.5625 9.4375 C3.64628906 8.42558594 3.73007813 7.41367187 3.81640625 6.37109375 C3.87699219 5.58863281 3.93757812 4.80617188 4 4 C2.35 4.33 0.7 4.66 -1 5 C-0.67 3.35 -0.34 1.7 0 0 Z " fill="#F39F1F" transform="translate(217,277)"/>
<path d="M0 0 C-0.27096447 3.88382414 -0.78538452 5.73173064 -3.25 8.8125 C-8.14804121 12.70866915 -12.99185096 12.10183303 -19 12 C-18.4968595 8.27676034 -17.97211379 6.34882282 -15 4 C-12.625 3.33984375 -12.625 3.33984375 -10 2.9375 C-6.39509786 2.37423404 -3.35150293 0 0 0 Z " fill="#628ABA" transform="translate(159,101)"/>
<path d="M0 0 C1.0725 0.268125 2.145 0.53625 3.25 0.8125 C3.4375 3.125 3.4375 3.125 3.25 5.8125 C1.9375 7.25 1.9375 7.25 0.25 8.8125 C-0.20375 9.823125 -0.6575 10.83375 -1.125 11.875 C-2.75 14.8125 -2.75 14.8125 -5.1875 16.25 C-7.84022605 16.83230572 -9.23095407 16.74547997 -11.75 15.8125 C-11.09 15.8125 -10.43 15.8125 -9.75 15.8125 C-9.60304687 14.70841797 -9.60304687 14.70841797 -9.453125 13.58203125 C-7.31581017 -0.36579051 -7.31581017 -0.36579051 0 0 Z " fill="#B8C5C9" transform="translate(187.75,43.1875)"/>
<path d="M0 0 C0.94875 0.04125 1.8975 0.0825 2.875 0.125 C3.205 1.775 3.535 3.425 3.875 5.125 C2.885 5.125 1.895 5.125 0.875 5.125 C0.875 4.465 0.875 3.805 0.875 3.125 C-0.115 3.125 -1.105 3.125 -2.125 3.125 C-1.691875 3.57230469 -1.25875 4.01960938 -0.8125 4.48046875 C3.70737882 9.38746682 3.70737882 9.38746682 4.5 12.875 C3.875 15.125 3.875 15.125 2.25 17 C-0.89164987 18.48814994 -2.81544136 17.95238966 -6.125 17.125 C-6.125 15.145 -6.125 13.165 -6.125 11.125 C-5.465 11.125 -4.805 11.125 -4.125 11.125 C-3.795 12.115 -3.465 13.105 -3.125 14.125 C-2.465 14.125 -1.805 14.125 -1.125 14.125 C-1.125 13.465 -1.125 12.805 -1.125 12.125 C-1.970625 11.361875 -2.81625 10.59875 -3.6875 9.8125 C-6.125 7.125 -6.125 7.125 -6.0625 4.4375 C-4.62250085 0.88550209 -3.89000757 0.1556003 0 0 Z " fill="#F7A21E" transform="translate(184.125,276.875)"/>
<path d="M0 0 C17.49 0.33 34.98 0.66 53 1 C49.49118857 3.33920762 46.45077429 3.69335067 42.375 4.1875 C41.68148437 4.28224609 40.98796875 4.37699219 40.2734375 4.47460938 C38.52120281 4.69877221 36.7605571 4.85503766 35 5 C34.505 4.505 34.505 4.505 34 4 C32.07521187 3.84193469 30.1450079 3.748865 28.21484375 3.68359375 C27.04501953 3.64169922 25.87519531 3.59980469 24.66992188 3.55664062 C22.82237305 3.49766602 22.82237305 3.49766602 20.9375 3.4375 C19.70193359 3.39431641 18.46636719 3.35113281 17.19335938 3.30664062 C14.12902665 3.20015802 11.06460927 3.09814576 8 3 C7.67 3.66 7.34 4.32 7 5 C4.69 4.34 2.38 3.68 0 3 C0 2.01 0 1.02 0 0 Z " fill="#7193B8" transform="translate(72,161)"/>
<path d="M0 0 C0.66 0 1.32 0 2 0 C2.027193 1.58323688 2.04648306 3.16661062 2.0625 4.75 C2.07410156 5.63171875 2.08570313 6.5134375 2.09765625 7.421875 C1.92127374 12.07837323 1.92127374 12.07837323 1 14 C-1.21794654 15.40925826 -3.26111385 16.5280015 -5.625 17.625 C-6.22957031 17.9240625 -6.83414063 18.223125 -7.45703125 18.53125 C-13.66709855 21.52373446 -19.47590542 23.28144033 -26.4375 23.125 C-27.48808594 23.10695312 -28.53867188 23.08890625 -29.62109375 23.0703125 C-30.40613281 23.04710937 -31.19117187 23.02390625 -32 23 C-32 22.67 -32 22.34 -32 22 C-30.9378125 21.84144531 -29.875625 21.68289062 -28.78125 21.51953125 C-19.10700578 19.96758073 -12.28530217 18.28530217 -5.1875 11.1875 C-2.66430703 7.51084738 -1.38406292 4.22503417 0 0 Z " fill="#164773" transform="translate(141,143)"/>
<path d="M0 0 C1.32 0.33 2.64 0.66 4 1 C2.87275884 11.1451704 -0.09179535 20.05659152 -5 29 C-5.66 29 -6.32 29 -7 29 C-5.17591135 19.13333869 -2.91646324 9.60804386 0 0 Z " fill="#7899BF" transform="translate(192,98)"/>
<path d="M0 0 C16.69866964 -0.10875887 33.32803694 -0.09838815 50 1 C50 1.33 50 1.66 50 2 C38.64340101 4.2331307 28.09394885 3.90788624 16.625 3.125 C14.90633021 3.01823218 13.18757971 2.91275535 11.46875 2.80859375 C7.31142206 2.55389428 3.15556872 2.28189599 -1 2 C-0.67 1.34 -0.34 0.68 0 0 Z " fill="#174872" transform="translate(141,16)"/>
<path d="M0 0 C2.31 0 4.62 0 7 0 C6.67 4.95 6.34 9.9 6 15 C6.66 15 7.32 15 8 15 C8 15.66 8 16.32 8 17 C5.69 17.33 3.38 17.66 1 18 C-0.2062252 14.38132441 -0.10816918 11.07493749 -0.0625 7.3125 C-0.05798828 6.61060547 -0.05347656 5.90871094 -0.04882812 5.18554688 C-0.03706927 3.45699462 -0.01913454 1.72848635 0 0 Z " fill="#F8A11D" transform="translate(90,277)"/>
<path d="M0 0 C2.31 0 4.62 0 7 0 C6.83886719 0.55558594 6.67773438 1.11117188 6.51171875 1.68359375 C5.95565278 4.20074733 5.83192948 6.4861512 5.8125 9.0625 C5.79832031 9.91972656 5.78414062 10.77695312 5.76953125 11.66015625 C5.84153915 14.27198309 5.84153915 14.27198309 8 17 C4.625 17.625 4.625 17.625 1 18 C0.34 17.34 -0.32 16.68 -1 16 C-0.67 15.67 -0.34 15.34 0 15 C0.07313567 12.46950598 0.09247527 9.96695163 0.0625 7.4375 C0.05798828 6.72658203 0.05347656 6.01566406 0.04882812 5.28320312 C0.03700864 3.52209987 0.01907263 1.76103964 0 0 Z " fill="#F5A01F" transform="translate(199,277)"/>
<path d="M0 0 C1.39195915 4.17587745 -0.17676781 6.13474776 -2 10 C-4.64 9.34 -7.28 8.68 -10 8 C-10.33 8.99 -10.66 9.98 -11 11 C-11.99 11.33 -12.98 11.66 -14 12 C-14.25 6.375 -14.25 6.375 -12 3 C-9.1796875 2.05078125 -9.1796875 2.05078125 -5.875 1.3125 C-4.23144531 0.93544922 -4.23144531 0.93544922 -2.5546875 0.55078125 C-1.71164063 0.36902344 -0.86859375 0.18726563 0 0 Z " fill="#7FC2C6" transform="translate(134,37)"/>
<path d="M0 0 C0.66 0 1.32 0 2 0 C0.19341423 16.22083393 0.19341423 16.22083393 -1.0625 23.3125 C-2.09658489 29.1831709 -2.59951563 35.05596879 -3 41 C-3.33 41 -3.66 41 -4 41 C-4.83426966 9.66853933 -4.83426966 9.66853933 0 0 Z " fill="#E9EAD1" transform="translate(206,51)"/>
<path d="M0 0 C1.60875 0.2784375 1.60875 0.2784375 3.25 0.5625 C6.47268936 0.93848043 8.02646885 0.91493266 11 0 C12 1 12 1 12.0625 4.5625 C12.041875 5.696875 12.02125 6.83125 12 8 C10.35 8.66 8.7 9.32 7 10 C7 9.34 7 8.68 7 8 C7.66 7.67 8.32 7.34 9 7 C8.01 6.67 7.02 6.34 6 6 C5.071875 6.99 5.071875 6.99 4.125 8 C2 10 2 10 0 10 C0 9.34 0 8.68 0 8 C1.32 7.67 2.64 7.34 4 7 C4 5.35 4 3.7 4 2 C3.01 2 2.02 2 1 2 C1 2.99 1 3.98 1 5 C1.66 5.33 2.32 5.66 3 6 C1.68 5.67 0.36 5.34 -1 5 C-0.67 3.35 -0.34 1.7 0 0 Z " fill="#D2E5CF" transform="translate(109,140)"/>
<path d="M0 0 C0.66 0.33 1.32 0.66 2 1 C2 8.59 2 16.18 2 24 C1.01 24 0.02 24 -1 24 C-1.02887236 20.18751574 -1.04675492 16.3750593 -1.0625 12.5625 C-1.07087891 11.47388672 -1.07925781 10.38527344 -1.08789062 9.26367188 C-1.09111328 8.22919922 -1.09433594 7.19472656 -1.09765625 6.12890625 C-1.10289307 5.17056885 -1.10812988 4.21223145 -1.11352539 3.22485352 C-1 1 -1 1 0 0 Z " fill="#104471" transform="translate(169,198)"/>
<path d="M0 0 C2.64 0 5.28 0 8 0 C8 2.64 8 5.28 8 8 C8.66 8 9.32 8 10 8 C10 5.36 10 2.72 10 0 C10.99 0 11.98 0 13 0 C13.1953125 6.0546875 13.1953125 6.0546875 13 8 C12.34 8.66 11.68 9.32 11 10 C8.375 9.625 8.375 9.625 6 9 C6 7.68 6 6.36 6 5 C4.68 4.67 3.36 4.34 2 4 C2 3.01 2 2.02 2 1 C1.34 0.67 0.68 0.34 0 0 Z " fill="#C5E2CF" transform="translate(85,140)"/>
<path d="M0 0 C0.99 0.99 1.98 1.98 3 3 C2.608125 3.9075 2.21625 4.815 1.8125 5.75 C0.63986718 8.92364868 0.63986718 8.92364868 2.1875 11.3125 C3.99418062 13.22861864 3.99418062 13.22861864 7 14 C7 14.66 7 15.32 7 16 C4 17 4 17 1.5 15.9375 C-1.47820074 13.62939443 -2.54876835 11.43712759 -4 8 C-2.68 7.34 -1.36 6.68 0 6 C-0.66 4.35 -1.32 2.7 -2 1 C-1.34 0.67 -0.68 0.34 0 0 Z " fill="#F9A41F" transform="translate(163,278)"/>
<path d="M0 0 C0.3327958 3.66075376 0.46170299 5.39500988 -1.8125 8.375 C-4 10 -4 10 -7 10 C-7.33 7.36 -7.66 4.72 -8 2 C-2.25 0 -2.25 0 0 0 Z " fill="#21517E" transform="translate(141,55)"/>
<path d="M0 0 C-2.97 4.455 -2.97 4.455 -6 9 C-10 8 -10 8 -12 5 C-12 4.01 -12 3.02 -12 2 C-11.01 2.33 -10.02 2.66 -9 3 C-8.67 2.34 -8.34 1.68 -8 1 C-2.47058824 -1.23529412 -2.47058824 -1.23529412 0 0 Z " fill="#F0EDD1" transform="translate(162,70)"/>
<path d="M0 0 C0.33 0 0.66 0 1 0 C1.50469616 4.22862004 2.00293584 8.45797659 2.5 12.6875 C2.64308594 13.88568359 2.78617187 15.08386719 2.93359375 16.31835938 C3.06894531 17.47529297 3.20429687 18.63222656 3.34375 19.82421875 C3.53227539 21.41882935 3.53227539 21.41882935 3.72460938 23.0456543 C3.97394201 25.72045416 4.05207267 28.31608769 4 31 C2.15952931 28.23929397 1.66830965 27.15292742 1.1484375 24.05078125 C0.95507812 22.90125977 0.95507812 22.90125977 0.7578125 21.72851562 C0.63148437 20.93123047 0.50515625 20.13394531 0.375 19.3125 C0.2409375 18.53455078 0.106875 17.75660156 -0.03125 16.95507812 C-2.11229671 4.22459342 -2.11229671 4.22459342 0 0 Z " fill="#DAE5CF" transform="translate(123,93)"/>
<path d="M0 0 C2 2 2 2 2.265625 4.0234375 C2.26046875 4.79945313 2.2553125 5.57546875 2.25 6.375 C2.25515625 7.14585937 2.2603125 7.91671875 2.265625 8.7109375 C1.96944246 11.2633341 1.41533291 12.85812953 0 15 C-0.99 15.33 -1.98 15.66 -3 16 C-2.86722656 15.34773437 -2.73445312 14.69546875 -2.59765625 14.0234375 C-1.65517178 9.3591713 -0.74231297 4.70131546 0 0 Z " fill="#DDE1CF" transform="translate(205,130)"/>
<path d="M0 0 C3.125 0.375 3.125 0.375 6 1 C6.33 1.99 6.66 2.98 7 4 C6.01 4.99 5.02 5.98 4 7 C3.34 6.67 2.68 6.34 2 6 C2.33 5.34 2.66 4.68 3 4 C0.69 4.66 -1.62 5.32 -4 6 C-2.84826645 3.53199953 -1.95216435 1.95216435 0 0 Z " fill="#7B9BC0" transform="translate(141,44)"/>
<path d="M0 0 C0.33 0.99 0.66 1.98 1 3 C0.38511719 3.04898438 -0.22976562 3.09796875 -0.86328125 3.1484375 C-1.67152344 3.22320312 -2.47976562 3.29796875 -3.3125 3.375 C-4.51326172 3.47941406 -4.51326172 3.47941406 -5.73828125 3.5859375 C-8.27224441 3.89564426 -8.27224441 3.89564426 -11 6 C-11.33 4.68 -11.66 3.36 -12 2 C-8.09971775 -0.60018816 -4.52565431 -0.15085514 0 0 Z " fill="#5E86B6" transform="translate(143,96)"/>
<path d="M0 0 C1.48117801 0.28127421 2.95993249 0.57533732 4.4375 0.875 C5.67306641 1.11863281 5.67306641 1.11863281 6.93359375 1.3671875 C7.61550781 1.57601562 8.29742187 1.78484375 9 2 C9.33 2.66 9.66 3.32 10 4 C9.01 4.33 8.02 4.66 7 5 C6.67 5.66 6.34 6.32 6 7 C3.03 6.505 3.03 6.505 0 6 C-1.125 2.25 -1.125 2.25 0 0 Z " fill="#95CBC9" transform="translate(122,44)"/>
<path d="M0 0 C0.33 0.66 0.66 1.32 1 2 C3.35599235 2.46751788 3.35599235 2.46751788 6.0625 2.625 C7.44115234 2.73714844 7.44115234 2.73714844 8.84765625 2.8515625 C9.55792969 2.90054687 10.26820313 2.94953125 11 3 C8.22957891 5.77042109 6.23466195 5.39796106 2.375 5.625 C1.18648437 5.69976563 -0.00203125 5.77453125 -1.2265625 5.8515625 C-2.14179688 5.90054687 -3.05703125 5.94953125 -4 6 C-1.125 1.125 -1.125 1.125 0 0 Z " fill="#5782B1" transform="translate(137,20)"/>
<path d="M0 0 C2.125 0.9375 2.125 0.9375 4 2 C-3.4654395 4.77476512 -10.06714481 5.36801906 -18 5 C-18 4.67 -18 4.34 -18 4 C-16.86820312 3.79503906 -15.73640625 3.59007812 -14.5703125 3.37890625 C-13.08851239 3.10693028 -11.60674315 2.83478613 -10.125 2.5625 C-9.37863281 2.42779297 -8.63226563 2.29308594 -7.86328125 2.15429688 C-3.81466622 1.45463389 -3.81466622 1.45463389 0 0 Z " fill="#24537F" transform="translate(127,161)"/>
<path d="M0 0 C1.65 0.33 3.3 0.66 5 1 C5 3.31 5 5.62 5 8 C3.35 8.66 1.7 9.32 0 10 C0 9.34 0 8.68 0 8 C1.32 7.67 2.64 7.34 4 7 C4 5.35 4 3.7 4 2 C3.01 2 2.02 2 1 2 C1 2.99 1 3.98 1 5 C1.66 5.33 2.32 5.66 3 6 C1.68 5.67 0.36 5.34 -1 5 C-0.67 3.35 -0.34 1.7 0 0 Z " fill="#D3E5CF" transform="translate(109,140)"/>
<path d="M0 0 C0.33 0.99 0.66 1.98 1 3 C0.67 3.66 0.34 4.32 0 5 C-3.96 5 -7.92 5 -12 5 C-12 4.34 -12 3.68 -12 3 C-8.04 2.01 -4.08 1.02 0 0 Z " fill="#72BBC4" transform="translate(134,37)"/>
<path d="M0 0 C0.75 1.625 0.75 1.625 1 4 C-0.75 7.25 -0.75 7.25 -3 10 C-3.99 10 -4.98 10 -6 10 C-6 9.01 -6 8.02 -6 7 C-5.01 6.34 -4.02 5.68 -3 5 C-2.63837971 3.67405895 -2.30271961 2.34061543 -2 1 C-1.34 0.67 -0.68 0.34 0 0 Z " fill="#1D4D7B" transform="translate(143,66)"/>
<path d="M0 0 C2.33183607 0.67188497 4.66501142 1.33915417 7 2 C7 2.33 7 2.66 7 3 C2.38 3 -2.24 3 -7 3 C-7 2.34 -7 1.68 -7 1 C-3.375 -1.125 -3.375 -1.125 0 0 Z " fill="#D6DFC9" transform="translate(158,13)"/>
<path d="M0 0 C1.98 0 3.96 0 6 0 C6.33 1.32 6.66 2.64 7 4 C4.69 4 2.38 4 0 4 C0 2.68 0 1.36 0 0 Z " fill="#11446F" transform="translate(190,200)"/>
<path d="M0 0 C2.64 0 5.28 0 8 0 C8 2.31 8 4.62 8 7 C6 6 4 5 2 4 C2 3.01 2 2.02 2 1 C1.34 0.67 0.68 0.34 0 0 Z " fill="#7EC1C6" transform="translate(85,140)"/>
<path d="M0 0 C1.485 0.99 1.485 0.99 3 2 C2.85769192 3.41702513 2.71099254 4.8336096 2.5625 6.25 C2.48128906 7.03890625 2.40007812 7.8278125 2.31640625 8.640625 C2.02365007 10.82364639 1.57935581 12.8773182 1 15 C-1.42945561 11.35581659 -1.0828781 10.07076636 -0.625 5.8125 C-0.51414063 4.72582031 -0.40328125 3.63914062 -0.2890625 2.51953125 C-0.19367188 1.68808594 -0.09828125 0.85664062 0 0 Z " fill="#6288B5" transform="translate(129,82)"/>
<path d="M0 0 C2.64 0 5.28 0 8 0 C7.34 1.32 6.68 2.64 6 4 C5.34 3.67 4.68 3.34 4 3 C3.67 3.66 3.34 4.32 3 5 C2.01 4.34 1.02 3.68 0 3 C0 2.01 0 1.02 0 0 Z " fill="#F39F1F" transform="translate(106,277)"/>
<path d="M0 0 C2.31 0 4.62 0 7 0 C6.67 1.32 6.34 2.64 6 4 C4.02 4 2.04 4 0 4 C0 2.68 0 1.36 0 0 Z " fill="#0F4370" transform="translate(118,223)"/>
<path d="M0 0 C0.65234375 1.765625 0.65234375 1.765625 1 4 C0.00390625 5.921875 0.00390625 5.921875 -1.4375 7.75 C-2.14712891 8.67039062 -2.14712891 8.67039062 -2.87109375 9.609375 C-3.24363281 10.06828125 -3.61617187 10.5271875 -4 11 C-4.65234375 9.234375 -4.65234375 9.234375 -5 7 C-4.00390625 5.078125 -4.00390625 5.078125 -2.5625 3.25 C-2.08941406 2.63640625 -1.61632812 2.0228125 -1.12890625 1.390625 C-0.75636719 0.93171875 -0.38382813 0.4728125 0 0 Z " fill="#E9E9D1" transform="translate(143,57)"/>
<path d="M0 0 C1.28163292 3.84489875 0.69835501 5.37169613 -1 9 C-3.625 10.375 -3.625 10.375 -6 11 C-4.54955729 6.89041233 -2.48889248 3.56741255 0 0 Z " fill="#E5E6D0" transform="translate(193,92)"/>
<path d="M0 0 C5.28 0 10.56 0 16 0 C16 0.33 16 0.66 16 1 C10.72 1.66 5.44 2.32 0 3 C0 2.01 0 1.02 0 0 Z " fill="#345D7E" transform="translate(175,17)"/>
<path d="M0 0 C0.66 0 1.32 0 2 0 C1.67 2.31 1.34 4.62 1 7 C0.01 7 -0.98 7 -2 7 C-2.125 4.625 -2.125 4.625 -2 2 C-1.34 1.34 -0.68 0.68 0 0 Z " fill="#678EBD" transform="translate(191,107)"/>
<path d="M0 0 C1.32 0.33 2.64 0.66 4 1 C4.33 2.65 4.66 4.3 5 6 C4.01 5.67 3.02 5.34 2 5 C1.67 6.65 1.34 8.3 1 10 C0.67 10 0.34 10 0 10 C0 6.7 0 3.4 0 0 Z " fill="#A1B6C6" transform="translate(124,91)"/>
<path d="M0 0 C0.99 0 1.98 0 3 0 C3 2.97 3 5.94 3 9 C2.34 9 1.68 9 1 9 C1 6.69 1 4.38 1 2 C0.34 1.67 -0.32 1.34 -1 1 C-0.67 0.67 -0.34 0.34 0 0 Z " fill="#D4E5CF" transform="translate(104,140)"/>
<path d="M0 0 C2.0625 0.25 2.0625 0.25 4 1 C4.33 1.66 4.66 2.32 5 3 C0.56923077 5.09230769 0.56923077 5.09230769 -2.3125 4.625 C-2.869375 4.41875 -3.42625 4.2125 -4 4 C-3.34 4 -2.68 4 -2 4 C-2 3.34 -2 2.68 -2 2 C-1.34 1.34 -0.68 0.68 0 0 Z " fill="#BAC6C9" transform="translate(180,55)"/>
<path d="M0 0 C0.33 0.66 0.66 1.32 1 2 C1.66 2 2.32 2 3 2 C3.33 1.34 3.66 0.68 4 0 C4.99 0.33 5.98 0.66 7 1 C7 1.66 7 2.32 7 3 C3.30581799 4.231394 0.7943739 3.64432764 -3 3 C-2.01 2.01 -1.02 1.02 0 0 Z " fill="#E09524" transform="translate(245,291)"/>
<path d="M0 0 C0.99 0 1.98 0 3 0 C3.33 1.98 3.66 3.96 4 6 C2.35 6.66 0.7 7.32 -1 8 C-1 6 -1 6 0.5 4.375 C0.995 3.92125 1.49 3.4675 2 3 C1.34 3 0.68 3 0 3 C0 2.01 0 1.02 0 0 Z " fill="#83C2C6" transform="translate(117,142)"/>
<path d="M0 0 C0.33 0.66 0.66 1.32 1 2 C1.66 2 2.32 2 3 2 C2.34 3.98 1.68 5.96 1 8 C0.01 8 -0.98 8 -2 8 C-1.34 5.36 -0.68 2.72 0 0 Z " fill="#1B4C79" transform="translate(149,139)"/>
<path d="M0 0 C0.66 0 1.32 0 2 0 C2 1.32 2 2.64 2 4 C2.66 4.33 3.32 4.66 4 5 C3.34 5 2.68 5 2 5 C2 6.32 2 7.64 2 9 C1.34 9 0.68 9 0 9 C0 6.03 0 3.06 0 0 Z " fill="#EEEFD2" transform="translate(78,141)"/>
<path d="M0 0 C1.98 0 3.96 0 6 0 C6 0.99 6 1.98 6 3 C4.02 3.33 2.04 3.66 0 4 C0 2.68 0 1.36 0 0 Z " fill="#EF9D1F" transform="translate(117,277)"/>
<path d="M0 0 C0.66 1.32 1.32 2.64 2 4 C1.21625 4.103125 0.4325 4.20625 -0.375 4.3125 C-3.33045181 4.77595022 -3.33045181 4.77595022 -5 8 C-5 6.35 -5 4.7 -5 3 C-3.35 2.67 -1.7 2.34 0 2 C0 1.34 0 0.68 0 0 Z " fill="#7093BC" transform="translate(137,52)"/>
<path d="M0 0 C0.928125 0.2784375 0.928125 0.2784375 1.875 0.5625 C4.04160178 1.23686176 4.04160178 1.23686176 6 0 C6.99 0.66 7.98 1.32 9 2 C8.67 2.66 8.34 3.32 8 4 C2.25 3.125 2.25 3.125 0 2 C0 1.34 0 0.68 0 0 Z " fill="#A9BAC7" transform="translate(180,48)"/>
<path d="M0 0 C1.485 0.99 1.485 0.99 3 2 C2.67 3.65 2.34 5.3 2 7 C1.01 7 0.02 7 -1 7 C-0.7525 6.1028125 -0.7525 6.1028125 -0.5 5.1875 C0.1114124 2.88655664 0.1114124 2.88655664 0 0 Z " fill="#61B4C2" transform="translate(125,141)"/>
<path d="M0 0 C0.66 0 1.32 0 2 0 C2.66 1.65 3.32 3.3 4 5 C3.34 5.66 2.68 6.32 2 7 C1.34 6.67 0.68 6.34 0 6 C0 4.02 0 2.04 0 0 Z " fill="#FAA41D" transform="translate(178,288)"/>
<path d="M0 0 C0 1.65 0 3.3 0 5 C-0.99 5.495 -0.99 5.495 -2 6 C-2 5.34 -2 4.68 -2 4 C-2.99 3.67 -3.98 3.34 -5 3 C-2.25 0 -2.25 0 0 0 Z " fill="#FAA61E" transform="translate(142,283)"/>
<path d="M0 0 C1.32 0 2.64 0 4 0 C3.67 1.32 3.34 2.64 3 4 C1.35 4 -0.3 4 -2 4 C-1.34 2.68 -0.68 1.36 0 0 Z " fill="#E2E4CF" transform="translate(140,48)"/>
<path d="M0 0 C1.32 0 2.64 0 4 0 C3.67 1.32 3.34 2.64 3 4 C2.01 4 1.02 4 0 4 C0 2.68 0 1.36 0 0 Z " fill="#104472" transform="translate(271,223)"/>
<path d="M0 0 C1.32 0 2.64 0 4 0 C3.67 1.32 3.34 2.64 3 4 C2.01 3.67 1.02 3.34 0 3 C0 2.01 0 1.02 0 0 Z " fill="#0F4370" transform="translate(10,200)"/>
<path d="" fill="#50554E" transform="translate(0,0)"/>
</svg>
